<?xml version="1.0" standalone="no"?>
<!DOCTYPE svg PUBLIC "-//W3C//DTD SVG 1.1//EN" "http://www.w3.org/Graphics/SVG/1.1/DTD/svg11.dtd" >
<svg xmlns="http://www.w3.org/2000/svg" xmlns:xlink="http://www.w3.org/1999/xlink" version="1.1">
<metadata>
Created by FontForge 20170910 at Wed Jan 23 00:33:45 2013
 By Jimmy Wärting
PeaxWebdesign
</metadata>
<defs>
<font id="PeaxDrawnIcons" horiz-adv-x="893" >
  <font-face 
    font-family="PeaxDrawnIcons"
    font-weight="500"
    font-stretch="normal"
    units-per-em="1000"
    panose-1="2 0 6 3 0 0 0 0 0 0"
    ascent="800"
    descent="-200"
    x-height="440"
    cap-height="651"
    bbox="-158.737 -264 1003 826.895"
    underline-thickness="50"
    underline-position="-150"
    unicode-range="U+0020-3000"
  />
<missing-glyph horiz-adv-x="364" 
d="M66 33h199v600h-199v-600zM33 0v666h265v-666h-265z" />
    <glyph glyph-name=".notdef" horiz-adv-x="364" 
d="M66 33h199v600h-199v-600zM33 0v666h265v-666h-265z" />
    <glyph glyph-name=".null" horiz-adv-x="0" 
 />
    <glyph glyph-name="nonmarkingreturn" horiz-adv-x="333" 
 />
    <glyph glyph-name="space" unicode=" " horiz-adv-x="751" 
d="M607 247q-32 -24 -100 -41q-71 -17 -159 -21q-89 -4 -159 6q-59 10 -91 28q8 -78 11 -122q40 -39 100 -53q34 -8 92 -8q59 -1 125 7q70 11 114 32q47 23 57 56q0 3 3 5q-3 5 -2 10q9 41 9 101zM551 654q-34 4 -104 5t-161 -4q-92 -8 -143 -26q-53 -19 -51 -46
q1 -8 13 -16q14 -9 42 -14q53 -11 142 -9q78 2 154 14q72 10 96 22q18 10 36 24.5t24 27.5q5 8 2 11q-9 8 -42 9q-4 0 -7 2h-1zM651 641q-14 -96 -17 -286q0 -17 1 -65t-1 -83t-8 -67q-1 -4 -4 -6q3 -5 1 -11q-12 -45 -71 -73q-48 -23 -122 -34q-68 -10 -129.5 -9t-97.5 9
q-63 15 -107 55q-13 0 -14 13q-3 46 -10.5 124t-11.5 124t-8 125q-3 78 2 126q1 10 11 13q7 37 69 59q54 20 150 28q92 5 163 4t108 -5q3 0 5 -2q44 -2 60 -17q5 -5 7 -10q5 5 12 4q6 -1 9.5 -5.5t2.5 -10.5zM93 430q14 -21 63 -34q45 -12 112 -15q59 -2 116.5 2.5
t86.5 12.5q27 8 66 30q53 30 67 36q2 1 5 1q2 83 10 147q-23 -32 -68 -54q-27 -15 -104 -26.5t-158 -13.5q-91 -2 -147 9q-33 7 -52 19l-10 6q-1 -53 1 -114q8 0 12 -6zM100 253q23 -23 93 -34q67 -10 154 -6q85 4 154 20q71 18 95 42q4 4 11 4q-1 58 -1 76q1 49 2 78
q-12 -6 -57 -31q-42 -24 -72 -32q-32 -10 -91 -15t-121 -2q-71 3 -118 16q-44 11 -66 30q3 -54 12 -143q3 -1 5 -3zM492 496q0 -14 -14 -14t-14 14t14 14t14 -14zM495 316q0 -14 -14 -14t-14 14t14 14t14 -14zM490 127q0 -14 -14 -14t-14 14t14 14t14 -14z" />
    <glyph glyph-name="exclam" unicode="!" horiz-adv-x="840" 
d="M709 677q1 -3 1 -7q-1 -6 -5.5 -9.5t-10.5 -2.5q-28 4 -58 6l-54 5q-25 2 -59 2.5t-55 1t-59 -0.5t-55 -1t-59.5 -2t-55 -2.5t-59.5 -3t-56 -3.5h-5q-8 -61 -14 -161q-5 -69 -4 -114q0 -25 1 -39q1 -8 2 -12v-1h1q4 -1 11 -2q14 -2 36 -2q16 0 39.5 0.5t25.5 0.5
q55 0 165.5 -0.5t165.5 -0.5q7 0 30 -2q2 0 18 -2t25 -2q25 -3 39 -3h12q1 3 2 8q2 10 4 32q1 10 4 35q1 18 2 23q7 37 19 138q6 52 8 84q2 18 2 28q0 5 -1 8q-1 0 -3 1zM100 305v-5q1 -7 5 -9q1 0 6 -1q7 -2 18 -3q20 -3 59 -6q71 -6 171 -10q101 -4 174 -5q80 -1 95 2
q10 2 14 6t10 17l1 1q-14 1 -35 3q-9 1 -25 2.5t-18 1.5q-21 2 -27 2q-55 0 -165.5 0.5t-165.5 0.5q-2 0 -25.5 -0.5t-39.5 -0.5q-24 0 -39 2q-8 1 -13 2zM373 86q35 21 45 58.5t7 95.5q-34 2 -68 3l-25 1q8 -38 -8 -74t-50 -57q-11 -7 -50 -26q19 -1 48 -1q29 -1 101 0z
M429 100v1l-1 -1h1zM111 711q98 -5 345 7q33 2 106 -1q82 -3 105 -3q7 0 11 -6h13q15 -1 24 -4q16 -4 22 -14q2 -4 3 -11q1 -4 1 -10q0 -12 -2 -31q-2 -32 -8 -85q-12 -103 -19 -141q-1 -3 -3 -20q-2 -25 -3 -35q-3 -22 -5 -34q-1 -8 -3 -13q-1 -4 -2 -6q-2 -5 -6 -7
q-4 -4 -13 -5q4 -6 1 -13q-9 -17 -16 -24q-10 -11 -28 -14.5t-102 -2.5q-35 0 -79 2q3 -64 -7 -101q77 -1 101 -18q17 -12 11 -30q-4 -13 -20 -24q-24 -19 -68 -34q-45 -15 -71 -12q-15 1 -72 3l-87 3q-57 3 -92 8q-46 7 -61 20q-12 11 -8 25q3 10 14 19q17 15 50 29
q77 33 141 33h2q29 38 17 82v3q-66 3 -117 7q-39 3 -61 6q-12 2 -20 3q-9 2 -14 5q-16 9 -18 29q-1 4 -1 13q0 7 -1 10q-1 8 5 13q-1 4 -2 11q-1 16 -1 41q-1 47 4 117q9 155 20 191q-1 3 -1 6q0 6 4.5 9.5t10.5 3.5zM147 409q23 55 61 98t88 72.5t98 49t108 36.5q6 2 11 -1
t6.5 -8.5t-1.5 -10.5t-8 -6q-59 -17 -105.5 -36t-93.5 -47t-82 -68t-56 -89q-5 -13 -18 -8t-8 18zM573 285q0 -6 -4 -10t-10 -4t-10 4t-4 10q0 14 14 14t14 -14z" />
    <glyph glyph-name="quotedbl" unicode="&#x22;" horiz-adv-x="671" 
d="M295 655q-39 -4 -108 -4q-78 -1 -108 -2q0 -52 -0.5 -156t-0.5 -156q37 -4 100 -3q86 3 116 1q6 0 9.5 -4.5t3.5 -10.5t-4.5 -9.5t-10.5 -3.5q-28 2 -113 -1q-63 -1 -101 3q0 -10 -1 -45t-0.5 -57.5t2.5 -43.5q1 -13 7 -38q7 -31 9 -41q1 -6 -2 -24v-7q2 -1 6 -1
q10 -3 27 -5q32 -3 83 -4q63 -2 111 0q3 4 8 5v1q-24 264 -24 601v2q-5 0 -9 3zM444 709q-174 2 -249 -10q-24 -4 -63 -17l-11 -4q16 1 66 1q83 0 128 6q4 0 8 -1l21 4l73 15zM518 691h-3q-9 0 -23 -3q-25 -3 -70 -12l-72 -15l-20 -4q2 -3 2 -7q0 -332 23 -593q8 3 16 7
q25 13 63 37l96 62q-2 3 -2 6q0 65 -2.5 196.5t-2.5 197.5q0 1 1 28t0 46q0 25 -3 41q-1 8 -3 12v1zM520 691h1h-1zM58 688q15 3 65 20q41 14 68 19q35 6 79 8.5t74.5 2.5t82 -1t74.5 -1q14 0 14 -14v-3h8q7 -1 11 -4q7 -4 11 -15q2 -7 4 -18q3 -17 3 -45q1 -18 0 -45.5
t-1 -28.5q0 -66 2.5 -194.5t2.5 -191.5q9 1 13 -7q4 -7 2 -12q-2 -11 -14 -11l-49 -31l-59 -38q-39 -25 -65 -38q-16 -9 -28 -13q-3 -9 -12 -11q-23 -4 -136 -1q-54 1 -84 5q-20 2 -31 4q-7 2 -12 4q-7 3 -11 8q-7 11 -4 28q1 14 1 16q-1 12 -8 38q-6 27 -8 41
q-3 24 -3 51.5t1 61.5t1 49q0 57 0.5 166.5t0.5 160.5q-8 3 -9 12q-1 8 6 13q-1 12 10 15zM260 258q0 -14 -14 -14t-14 14t14 14t14 -14zM254 200q0 -14 -14 -14t-14 14t14 14t14 -14zM260 143q0 -14 -14 -14t-14 14t14 14t14 -14z" />
    <glyph glyph-name="numbersign" unicode="#" horiz-adv-x="789" 
d="M129 526q-1 2 -3 3q-3 1 -9 4q-7 3 -11 5q-18 11 -15 29q2 16 24 40q25 29 47 44q4 2 8 2q-7 9 0 18q9 11 20 2q4 -4 19 -17l25 -20q9 -7 18 -12q4 -2 13 2q2 1 11 6t15 6q8 3 57 5q16 0 25 3q9 1 11 4t5 21q3 10 4 15q3 10 8 15l7 5h2h1h1h4q4 0 10 -1l30 -4
q19 -3 31 -6q8 -2 13 -4q8 -3 11 -8q7 -9 7 -23q0 -8 -1 -23q-3 -26 -1 -32q5 -12 32 -30q37 -26 46 -37q6 -8 12 -32q2 -8 2 -10q15 3 24 4q16 2 27 2q17 0 25 -8q3 -2 4 -6q1 -1 1 -2v-1v-1v-1v-1v-2v-9q-1 -7 -1 -29q-2 -43 -2 -48v-2v-4v-5v-6q0 -8 -1 -14
q-1 -10 -6 -15q-8 -8 -23 -10q-7 -1 -21 1q-12 1 -16 1h-2q0 -1 1 -1q2 -16 0 -23q-8 -29 -31 -61q-27 -37 -33 -47q-2 -4 0 -10q2 -4 10 -17q8 -15 10 -26q2 -17 -11 -31q-6 -7 -18 -12q-10 -4 -11 -5q-32 -20 -45 -24q-10 -4 -18 0t-10 14q-2 4 -2.5 8t-1.5 7q-3 6 -14 9
q-15 4 -54 -2q-45 -7 -67 -2q-4 1 -13 5l-16 8q-9 4 -15 6q-1 -3 -2 -13q-3 -12 -5 -18q-5 -14 -17 -17q-9 -3 -24 2q-9 4 -23 11l-21 12q-11 6 -14 7q0 1 -1 1q-3 0 -6 1q-11 3 -16 12q-2 5 -1 11q0 3 1 8q2 6 6 16q5 14 5 15l2 5q0 8 -17 21q-30 23 -35 33q-6 11 -10 30
q-3 18 -5 23q-1 2 -3 3q-4 1 -15 -1q-16 -4 -22 -4q-17 0 -26 13q-3 5 -3 14q-1 5 -1 14q0 16 1 37q2 22 4 37q2 9 4 14q1 4 2 6q2 5 6 8q10 6 40 5q16 0 19 4q3 3 5 17q4 24 6 29q0 1 1 2l1 1l2 4l6 13l6 12zM398 508q35 -10 60 -34.5t36 -58.5q17 -55 -10 -105.5
t-96 -62.5q-65 -11 -111 24t-55 89q-7 40 7 73q-40 -62 -4 -122q22 -36 66 -56t98 -12q72 10 101.5 61.5t12.5 109.5q-10 35 -37 61t-68 33zM335 535q74 12 126 -21.5t69 -91.5q11 -32 6 -66t-20 -63t-47 -50.5t-76 -27.5q-62 -8 -114 15t-78 67q-18 30 -20 63t14.5 68.5
t51.5 66.5q15 13 19 16q2 4 7 6l2 1q24 17 48 21q7 1 12 -4zM289 490l2 4l-2 -1q-5 -3 -10 -8q5 3 10 5zM178 627q-19 -12 -43 -38q-15 -18 -16 -26l1 -1q3 -1 8 -3q8 -4 11 -6q18 -9 19 -26q0 -4 -2 -9q-1 -2 -2 -5l-7 -14l-7 -13l-2 -4v-1q-1 -2 -4 -22q-4 -23 -11 -31
q-13 -14 -42 -14q-20 1 -21 1q-1 -4 -2 -11q-2 -13 -4 -34q-1 -20 -1 -35v-12l1 -1h1q3 0 17 3q16 3 25 1q17 -3 24 -20q3 -7 7 -28q2 -15 6 -21q3 -5 29 -25q28 -22 27 -43q0 -5 -3 -15q-1 0 -6 -15q-3 -7 -4 -11q4 -1 7 -2q2 -1 16 -9t20 -11q12 -7 20 -9q3 -2 5 -2
q1 4 3 13q2 13 4 18q5 14 15 18q5 2 12 1q3 -1 8 -3q6 -2 17 -7l17 -7l7 -3q17 -4 57 2q45 6 66 0q22 -6 31 -23q2 -5 4 -12q10 5 32 19l17 7l8 4q4 5 3 10q0 4 -6 14q-10 16 -12 23q-6 17 2 31q6 13 34 51q20 27 28 53l-2 9q-3 18 6 27q8 8 23 8q5 0 19 -1q11 -2 15 -1
q3 0 4 1h1v11v5v5v4v2q0 6 2 49q0 22 1 29v1q-2 1 -3 1q-8 0 -23 -2q-10 -1 -22 -3q-6 -1 -8 -1.5t-3 -0.5h-2q-5 0 -9 3q-5 5 -9 15q-1 5 -4 15q-4 17 -6 20q-7 8 -40.5 31.5t-41.5 43.5q-5 12 -1 46q1 12 1 18q0 4 -1 6q-3 1 -8 2q-12 3 -29 6l-29 4h-3q-1 -3 -3 -12
q-5 -23 -11 -31q-8 -11 -26 -16q-12 -2 -31 -3q-48 -3 -50 -3q-3 -1 -9 -5l-14 -7q-22 -10 -38 0q-17 10 -54 41q1 -9 -6 -14zM351 473q-59 0 -86 -34q-24 -30 -16 -74t44.5 -72t90.5 -18q55 10 76 48.5t7 83.5q-10 32 -37 54t-65 23q-3 -11 -14 -11z" />
    <glyph glyph-name="dollar" unicode="$" horiz-adv-x="786" 
d="M364 238q2 18 -12 30q-11 10 -27 10q-37 -35 -54.5 -53t-48 -52t-48.5 -64.5t-27 -60.5q-6 -21 15 -47q20 -25 41 -17q12 5 34 35q19 28 45 74q39 71 67 137q4 9 15 8zM412 215q-12 -18 -43 -18h-4l-16 -34q8 -12 27 -52q16 -35 32 -52q9 -11 26 -18t34 -7q15 0 24 7
q8 7 8 25q-1 35 -36 83q-10 15 -32 42zM322 306q22 0 40 -11q-18 22 -31 28q-8 4 -15 4.5t-10 -1t-5 -3.5q-1 -1 0 -3q4 -6 16 -11q3 -1 5 -3zM629 648q-6 -11 -11 -15q-2 -2 -32 -22q-18 -12 -25 -21q-4 -4 -3 -7q0 -2 3 -8q7 -11 8 -18q1 -3 1 -6q8 3 12 4q8 3 14 1
q3 -2 6 -5l4 4l23 26q14 15 22 26q4 4 5 7l-2 3q-5 7 -13 16zM438 133q6 -3 11 -10q2 -5 5 -10q2 -6 4 -10q2 -8 1 -12q-2 -6 -6 -9q-6 -5 -14 -2q-4 1 -7 6q-2 2 -4 5q-6 0 -10 4t-4 10q0 7 1 11l-2 3q-6 12 7 19q11 5 18 -5zM190 464q8 -40 40 -97q5 -10 16 -29l20 -34
l15 -30l11 12v5q-10 7 -15 16q-9 17 1 32q17 24 52 15q-9 9 -51 66l-31 41l-10 15q-2 3 -4 5q-2 4 -2 6q-3 10 4 22q3 6 11 18q21 28 29 43q30 60 -21 117q-23 24 -49 35q-19 8 -29 9h-4v-7q1 -8 6 -22q3 -9 11 -28.5t11 -28.5q6 -16 7 -27q3 -17 -5 -27q-6 -9 -20 -17
q-3 -1 -10 -5q-5 -2 -8 -4l-3 -3l-9 -6q-5 -3 -9 -6q-7 -4 -12 -4q-11 0 -21 11q-7 7 -14 19q-8 14 -28 54q-18 36 -27 51q-6 9 -10 13q-1 -2 -2 -3q-26 -31 -27 -77t22 -82q21 -35 94 -35q2 0 13 3q14 5 25 2q9 -2 17 -13q4 -6 8 -15q6 -3 8 -10zM338 236q-14 -22 -66 -85
q-40 -49 -55 -83q-6 -12 -18.5 -6.5t-7.5 18.5q16 38 60 89q51 62 63 81q8 12 19.5 4.5t4.5 -18.5zM132 768h18q11 0 14 -11q6 3 15 2q15 -1 39 -11q31 -14 57 -43q65 -70 26 -148q-9 -17 -31 -47q-7 -10 -10 -15l-1 -1l2 -2l10 -14l30 -42q39 -52 48 -61h4q14 0 14 -14v-5
l80 86q62 65 92 104q3 5 3 7q-1 1 -5 8q-6 11 -7 19q-2 14 9 28q10 11 31 26q28 19 30 21q1 0 6 10q10 17 25 15q5 -1 11 -5q2 -3 6 -7q7 -7 15 -17l14 -18q3 -4 5 -8q3 -5 4 -8q1 -5 -2 -11q-1 -2 -3 -5q-2 -4 -7 -11l-24 -28l-24 -26q-5 -6 -9 -10q-2 -2 -4 -3
q-3 -3 -6 -4q-9 -2 -14 -2q-9 -1 -15 4l-1 1q-4 -2 -8 -6l-24 -22l-65 -68l-64 -72q-25 -28 -33 -41q17 -20 26 -40q6 -12 8 -22q4 -1 6 -5l30 -38q23 -27 34 -42q40 -56 41 -100q1 -30 -18 -46q-16 -14 -42 -14q-22 0 -45 9.5t-37 25.5q-16 19 -35 58q-14 29 -17 34
l-28 -54q-25 -46 -47 -76q-27 -38 -46 -45q-40 -15 -73 25q-30 38 -19 73q24 84 139 198q-2 2 -3 4q-6 14 -15 30l-20 36l-17 30q-25 46 -36 80q-5 3 -6 7q0 1 -3 10q-2 7 -4 12q-3 7 -5 10l-2 3q-2 0 -8 -2q-15 -5 -22 -5q-88 0 -118 49q-27 40 -26 96t33 95q1 0 2 2
q2 3 3 4q6 9 16 10q11 1 22 -10q7 -7 15 -19q10 -16 28 -54q20 -39 27 -51q6 -11 10 -15h1q2 1 5 3l8 6q5 3 6 4q3 2 9 5q7 4 9 5q3 1 6 3q-10 0 -13 9l-44 125q-2 7 1 12q-1 3 -1 6q0 14 14 14zM344 349h-1q5 -3 11 -7l5 6q-3 -1 -6 -1q-6 0 -9 2z" />
    <glyph glyph-name="percent" unicode="%" horiz-adv-x="920" 
d="M307 486l15 13q101 91 155 150q4 6 12 5q3 2 5 4q22 15 41 13q63 -7 228 -59q1 0 9 -2q10 -2 16 -3q10 -3 16 -6q12 -5 15 -14l1 -8q0 -1 -1 -2q0 -2 -1 -4q-1 -4 -4 -12l-12 -34l-14 -35l-5 -13q-3 -7 -6 -9q-22 -25 -69 -65q-56 -48 -70 -61l-230 -222l-30 -31l-37 -38
q-24 -24 -41 -37q-22 -19 -37 -23q-4 -1 -11 1q-3 1 -9 2l-26 10q-32 13 -70 32q-42 21 -69 37q-16 10 -24 16q-5 5 -9 8q-5 6 -6 11t1 14q1 7 3 19l12 49q16 68 21 79q9 20 42 46q42 33 43 34q43 43 141 131q2 3 5 4zM518 408l-8 3q-25 9 -72 20l-78 17q-31 7 -42 10
q-94 -84 -137 -127l-46 -36q-11 -9 -18 -16q30 -19 83 -48q33 -18 53 -28q8 -4 14 -6q4 5 11 5q3 0 6 -2q5 4 11 10q16 13 41 37l28 27l26 26l16 16q44 38 112 92zM263 169h-1q-8 3 -21 9q-21 10 -54 28q-56 31 -86 50q-6 -19 -19 -71q-7 -29 -11 -48q-2 -11 -3 -17
q-1 -2 -1 -3l4 -4q7 -5 21 -14q23 -13 67 -35q41 -20 69 -32l13 -5l9 45q5 30 8.5 52.5t4.5 44.5zM542 341q-2 7 -3 17q-2 9 -4 28q-67 -53 -111 -92q-5 -4 -15 -14l-27 -26l-27 -27q-25 -25 -41 -39q-10 -8 -17 -13q-3 -2 -5 -4q-1 -22 -4.5 -45t-10 -55.5t-8.5 -43.5
q6 4 14 10q15 13 38 36q14 13 37 38l30 31l152 147q0 8 1 27t1 25zM755 552l2 2q5 7 11 10q9 5 18 2l2 4l2 7q-4 1 -10 3q-4 1 -9 2q-61 -56 -171 -144l-15 -12l2 1l81 53l48 38q18 18 32 30q3 3 7 4z" />
    <glyph glyph-name="ampersand" unicode="&#x26;" horiz-adv-x="852" 
d="M453 239l-32 -29q3 -6 11 -24l16 -34q9 -17 18 -32q33 -61 57 -71q30 -12 62.5 -8t56.5 21q24 18 31 42.5t-9 58.5q-5 9 -29 21q-23 10 -60 22q-74 23 -109 23q-10 0 -13 10zM129 709q0 -5 -1 -10.5t-1.5 -12t-1.5 -9.5q-3 -30 0 -45q8 -45 76 -138q24 -34 105 -134
q3 -4 16 -18.5t21.5 -26.5t13.5 -23l29 31q-13 13 -26.5 30t-21.5 31l-20 34l-18 31q-14 22 -40 67l-42 70q-15 27 -39.5 61.5t-49.5 61.5zM107 739q0 5 4 9q10 10 20 0q29 -29 58 -68.5t46 -67.5l47 -78l42 -71l18 -31l20 -34q7 -12 19 -27.5t23 -26.5l209 233l58 68
q20 23 34 35q8 8 14 11q5 3 9 4q7 2 13 -2q11 -7 12 -24q0 -10 -3 -26q-5 -26 -20 -67q-29 -84 -46 -110q-16 -23 -35 -45.5t-44 -46.5t-41 -38l-48 -42l-43 -37q42 -3 110 -24q39 -11 64 -24q33 -16 41 -32q21 -46 12 -80.5t-42 -57.5q-30 -21 -69.5 -26t-75.5 10
q-34 14 -72 83q-10 19 -41 83l-62 -63q-70 -71 -113 -109q0 -6 -6 -10q-11 -9 -22 -13q-3 -3 -7 -3q-35 -11 -63 13q-33 30 -40 91q-6 62 21 107q32 55 98 55q56 0 94 -29l38 42q-3 2 -4 5q-4 11 -11 20.5t-20.5 25.5t-18.5 21q-81 101 -106 135q-71 99 -81 149q-3 21 0 54
q5 39 5 48q0 7 5 11zM501 164q26 -61 62 -78q7 -4 23.5 -3.5t30.5 5.5q14 6 18 13q4 6 -1 15q-3 6 -24 14q-18 8 -51 18q-10 3 -57 15zM465 203q3 2 6 3q13 5 17 -9l1 -1q8 -2 21 -6l57 -15q34 -10 54 -19q29 -12 37 -26q14 -23 1 -44q-9 -15 -31 -24q-19 -7 -40.5 -7.5
t-36.5 5.5q-53 26 -84 113q-4 2 -7 3q-13 5 -8 18q4 9 13 9zM232 175q-19 7 -36 0q-19 -9 -33 -35q-12 -25 -14 -50q-1 -11 1 -18l2 -4q1 0 5.5 1.5t9.5 5.5q15 11 33 33q17 22 26 43q7 16 6 24zM260 170q-1 -13 -9 -30q-10 -24 -29 -49q-20 -25 -39 -39q-26 -19 -45 -8
q-11 6 -15 21q-3 11 -2 27q2 31 18 61q18 35 46 47q34 16 73 -7q12 -7 5 -19q-1 -2 -3 -4zM291 200q-34 29 -85 29q-50 0 -74 -41q-22 -37 -17 -90q6 -50 31 -73q16 -14 37 -7q51 42 135 127q101 102 137 134l43 36l47 41l40 38q24 23 42 44q17 21 33 44q15 22 44 103
q14 40 18 63q2 7 2 12l-1 -1q-12 -10 -31 -33l-57 -67l-323 -359q-7 -9 -17 -3q-2 1 -4 3zM390 279l8 13q7 12 19 5t5 -19l-8 -13q-7 -12 -19 -5t-5 19z" />
    <glyph glyph-name="quotesingle" unicode="'" horiz-adv-x="701" 
d="M228 9q-80 38 -122 89q-63 77 -23 160q9 18 38 57q26 34 31 48q4 10 4 35v13v9q-1 13 0 21q1 16 -12 124q-5 46 -6 72q-1 37 7 52q11 20 42 39q30 17 54 19q41 3 59 -46q11 -32 12 -93q1 -13 -1 -99q-1 -24 0 -37q1 -15 3 -21q1 -2 4 -2q5 -1 18 3q4 0 12.5 2.5t12.5 3.5
q18 4 28 1q17 -5 25 -24q6 -13 7 -14t3 0q5 1 16 7q15 9 21 12q16 6 28 2q18 -5 26 -23q9 -18 10 -19q2 -3 11 -4q20 -1 30 -11q18 -18 27 -60q6 -26 8 -61q7 -119 -70 -176q-39 -29 -48 -44q-2 -3 -9 -27q-7 -27 -21 -36q-3 -2 -9 -3q-3 -1 -8 -1q-9 -1 -24 -3l-66 -5
q-36 -2 -65 -3q-14 -1 -22 -1h-7h-2h-3q-3 1 -7 4q-8 8 -10 23l-1 14q-1 1 -1 3zM196 277v-1v-1v-3v-2q0 -4 -6 -7q-9 -7 -18 1l-2 4l-2 3v1v1v2v1l-6 38q0 4 -1 9l-17 -25q-28 -37 -35 -52q-33 -67 18 -130q43 -51 127 -88q12 -6 7 -19q-1 -3 -4 -5q0 -2 0.5 -5t0.5 -4v-2
q8 0 21 1q29 1 65 3l66 5q14 1 22 3q4 0 6 1q5 3 9 18q8 29 12 36q12 18 56 50q64 48 58 152q-2 33 -7 57q-7 34 -20 46q-3 3 -12 3q-21 2 -31 14q-3 4 -13 25q-3 7 -9 9q-3 0 -9 -2q-5 -2 -18 -10q-14 -8 -22 -10q-17 -5 -29 5q-7 6 -15 25q-2 7 -7 9q-3 0 -13 -2
q-5 -1 -13 -3.5t-12 -3.5q-18 -4 -29 -3q-19 3 -26 20q-4 9 -5 29q-1 14 0 40q2 85 1 98q-1 56 -11 84t-30 27q-17 -1 -42 -15q-24 -15 -32 -29q-4 -8 -3 -37q1 -25 6 -69q13 -114 12 -130q-1 -6 0 -18v-23q0 -15 -1 -24l2 -6v-1q1 -2 2 -5l2 -12v-5l1 -15l6 -51v-1v-1z" />
    <glyph glyph-name="parenleft" unicode="(" horiz-adv-x="782" 
d="M83 346q32 3 88 20q82 25 120 28q80 6 293 -33l-46 42q-73 69 -129 92q-15 6 -43 -11q-2 -1 -15.5 -9.5t-22.5 -13t-17 -7.5q-21 -5 -49 12q-19 12 -27 10q-14 -2 -37 -20q-22 -16 -50 -42q-34 -33 -65 -68zM106 321q90 -38 171.5 -48t160 3t182.5 50q-248 46 -327 40
q-34 -3 -114 -27q-47 -14 -73 -18zM640 310q3 3 8 3l-9 5q1 -4 1 -8zM70 306l28 -39q19 -26 22 -29q42 -57 75 -79q14 -10 32 -15t30 -6.5t38 -3t37 -2.5l34 -3q22 -2 32 -3t25 -1.5t26 0t21 2.5q53 10 104 76q45 57 60 99q-2 -2 -3 -2q-111 -39 -195.5 -52.5t-174.5 -0.5
t-191 59zM48 347q32 41 81 88q29 27 52 44q29 21 48 25t47 -14q18 -11 27 -8q6 1 13 4.5t18 11.5l18 11q40 23 67 12q62 -25 139 -98q59 -56 84 -73l6 -1q8 -2 10 -10l16 -8q13 -7 6.5 -19.5t-18.5 -6.5l-2 1q3 -5 1 -12q-16 -47 -65 -109q-58 -73 -121 -85
q-11 -3 -23.5 -3.5t-29 0t-26.5 1.5l-34 3q-22 2 -32 3q-8 1 -35.5 2.5t-41.5 3t-35.5 8t-38.5 17.5q-37 25 -82 86q-6 9 -17 24l-18 25q-6 9 -15.5 21t-17.5 21q-10 10 1 19q6 6 14 3q0 2 1 3q0 5 3 10z" />
    <glyph glyph-name="parenright" unicode=")" horiz-adv-x="623" 
d="M271 259q12 11 20 19q17 18 20 32q10 43 -29 67q-36 22 -83 16l-9 -20q-1 -2 -3 -7t-3 -6q-3 -9 -5 -16q-5 -15 -2 -21q6 -13 32 -27q1 0 20 -9t27 -14q9 -7 15 -14zM110 485q5 48 35 87t75 63t92 28q49 4 95 -14q37 -17 62.5 -47.5t37 -69t15.5 -74.5q3 -36 1 -75
q-8 -163 -224 -316q-45 -32 -83 -42q-28 -7 -50 -1q-27 8 -41 36q-7 16 -8 47v23v20q0 5 4 9.5t9.5 4.5t10 -4t4.5 -10v-20v-22q0 -26 6 -36q8 -16 23 -21q14 -4 35 1q33 8 74 37q204 146 212 296q2 38 -1 71q-4 34 -14 67.5t-31.5 59.5t-53.5 40q-37 16 -79.5 12t-82.5 -25
t-65.5 -54.5t-29.5 -72.5q-1 -6 -5.5 -9.5t-10 -3t-9 5t-3.5 9.5zM205 179q41 34 46 53q2 9 -11 17q-6 5 -22.5 12.5t-21.5 10.5q-34 17 -45 39q-8 16 1 42q2 8 7 18q0 1 2 5.5t3 6.5q15 38 32.5 67t42 56t59 41.5t75.5 14.5q14 0 14 -14t-14 -14q-101 0 -160 -112
q48 0 84 -21q56 -34 42 -97q-5 -21 -28 -45q-6 -7 -32 -30q-1 -2 -1 -4q-7 -27 -55 -68q-11 -9 -20 2t2 20z" />
    <glyph glyph-name="asterisk" unicode="*" horiz-adv-x="711" 
d="M349 230q13 -1 28.5 -4t26.5 -6l28 -10q17 -6 24 -8q60 -18 96 -6q39 13 30 51q-3 17 -16 33t-30 23q-14 6 -27.5 9t-38.5 4t-32 2q-6 1 -9.5 5.5t-3 10t5 9t9.5 3.5q8 -1 25 -2t28 -2t26.5 -4.5t28.5 -8.5q23 -10 40 -31t22 -45q6 -27 -6 -50t-42 -33q-37 -13 -83 -3
q8 -31 -7 -70q-5 -13 -18 -8t-8 18q12 31 6 54q-15 -1 -50 -4q-55 -6 -79 -8q-47 -3 -77 0q-41 4 -60 19q-15 13 -27 39q-14 30 -8 49q4 12 21 34l36 40q58 60 65 69q64 89 120 220q6 12 18.5 6.5t7.5 -18.5q-56 -132 -124 -224q-8 -11 -66 -73q-23 -24 -35 -38
q-14 -17 -17 -24q-2 -9 7.5 -29.5t19.5 -28.5q12 -10 44 -13q30 -3 74 0l77 7l16 2q-43 15 -68 16q-6 0 -9.5 4.5t-3.5 10.5t4.5 9.5t10.5 3.5z" />
    <glyph glyph-name="plus" unicode="+" horiz-adv-x="842" 
d="M576 -52q1 -9 -7 -13q-49 -29 -123 -27q-89 1 -111 56q-2 5 0 10q-6 8 -12.5 13t-19 11.5t-22.5 12.5q-19 13 -42 40q-29 34 -34 39q-6 6 -18 14t-31 19.5t-31 19.5q-64 41 -71 77q-11 57 2 79q15 24 49 13q19 -6 49 -27q39 -25 40 -26q8 -5 18 -7t26 -4l25 -3
q-1 15 -3 41q-2 18 -7 74q-9 88 0 207q5 69 17 114q15 58 40 75q25 16 46 2q15 -9 24 -34q2 -4 3 -7q2 9 5 17q13 42 32 64q26 29 61 23q31 -6 47 -48q9 -23 13 -51q23 22 57 14q31 -8 45 -45q9 -26 10 -70v-23q9 8 19 12q16 7 32 2q16 -7 26 -27q12 -25 12 -95
q1 -59 -7 -142q-17 -181 -41 -235q-11 -25 -55 -80q-35 -44 -45 -76q-1 -5 -6 -8t-11 -1h-1zM509 595v-1v1zM539 602q-11 -76 -11 -225q0 -14 -14 -14t-14 14q0 135 8 207q0 1 -1 3v3q-1 2 -1 6v18q1 29 7 53q1 5 3 9q0 51 -14 87q-10 27 -27 30q-18 4 -33.5 -13.5
t-26.5 -53.5q-13 -41 -18 -93q2 -2 2 -4q4 -32 6 -70t2 -62.5t-0.5 -71.5t-0.5 -64q0 -4 -2 -7q7 1 28.5 2.5t30.5 1.5l28 2q19 1 31 0t28.5 -2t31.5 -4t30 -7q11 35 13 131l-6 7q0 1 -1 2v1v1v1v2v2v12q1 10 2 23l2 21q4 44 3 71q0 39 -9 61q-8 22 -24 26q-20 5 -33 -8
q-9 -9 -16 -28q0 -31 -5 -63q1 -3 1 -7zM654 521q0 -7 -1 -54.5t-4.5 -79.5t-12.5 -56q-3 -10 -14 -9q-6 -6 -14 -3q-39 12 -79 13t-94.5 -3.5t-84.5 -4.5q-14 0 -14 14t14 14t31 1q-3 3 -3 8q0 19 0.5 57t0.5 61t-1 55t-3 59q-1 0 -2 1q-3 2 -4 6q-1 2 -1 3v1v1v1v2v11
q0 17 -1 30q-3 41 -13 65q-6 16 -13 21q-6 4 -15 -3q-17 -11 -29 -58q-11 -42 -16 -110q-9 -116 0 -202q4 -44 7 -74q2 -20 2 -34q82 6 134 -29q49 -34 89 -120q6 -13 -7 -19t-19 7q-37 79 -79 109q-44 30 -118 24v-4q-2 -4 -5 -6q-6 -6 -15 -4q-4 0 -8 3l-3 2q-3 1 -21.5 3
t-32.5 5.5t-25 9.5q-2 1 -41 27q-28 18 -42 23q-13 5 -16 0q-8 -14 1 -59q5 -25 58 -60l30 -18l33 -21q14 -9 22 -17q7 -6 36 -41q20 -24 36 -34q4 -4 20.5 -12.5t27 -17.5t18.5 -23q4 -6 1 -13q18 -32 82 -33q66 -2 109 23q6 3 12 1q0 2 1 5q10 36 49 85q40 50 51 75
q10 21 21 85q10 61 18 141q8 83 7 139q0 64 -10 83q-5 10 -11 12q-4 2 -10 0q-17 -8 -27 -30q-4 -9 -7 -22q5 -5 5 -12z" />
    <glyph glyph-name="comma" unicode="," horiz-adv-x="933" 
d="M545 665q-2 -15 0 -51t-2 -57q-6 -32 -17 -61q-10 -29 -28 -56l-33 -48q-14 -19 -41.5 -45t-41.5 -39l-48 -40q-33 -27 -44 -37l-28 -25q-19 -18 -35.5 -31.5t-31.5 -23.5q-33 -20 -84.5 -39t-85.5 -19q-5 0 -16 4q-1 0 -4 1l-6 2q-3 1 -5 2q-9 2 -13 3h-1
q-12 -14 -12 -28q0 -3 4 -8q1 -1 5 -6t6 -8q15 -24 45 -27q3 -1 32 -2q22 -1 36 -4q6 -2 29.5 -8t33 -8t27 -5t31.5 -2.5t28 3.5q23 4 45 12t54 21.5t43 17.5q89 35 158 24q17 -3 37.5 -10t46 -17t38.5 -14q70 -23 106 1q20 12 28 39t3 55q-4 22 -23 63q-22 48 -28 71
q-7 33 -12 70t-7.5 63.5t-4 72.5t-1.5 63v72v66q0 14 14 14t14 -14v-66v-71q0 -17 1.5 -63t4 -71t7.5 -61.5t12 -68.5q4 -19 25 -65q21 -45 26 -71q6 -33 -4.5 -68t-38.5 -54q-48 -31 -131 -3q-10 3 -53.5 19.5t-63.5 19.5q-62 10 -144 -22q-9 -3 -42 -17t-56.5 -22.5
t-47.5 -13.5q-16 -3 -32.5 -3.5t-36.5 2.5t-30 5l-34 9l-28 7q-12 3 -32 4q-28 2 -33 2q-44 5 -66 39q-1 3 -4 6q-5 6 -6 8q-9 12 -9 24q0 26 21 48q7 9 22 8q8 -1 19 -4l16 -6l7 -2q29 0 77 17.5t77 36.5q15 9 30 21.5t34 29.5l29 27l45 37l47 40l40 37q26 25 39 43l31 44
q17 25 26 52q10 26 15 57q3 17 2 49q-2 39 0 55q1 6 5.5 10t10 3t9.5 -5.5t3 -9.5zM557 268q33 -17 58 -7q22 9 49 42q9 11 20 2t2 -20q-32 -39 -61 -50q-36 -14 -80 7q-13 7 -6.5 19.5t18.5 6.5z" />
    <glyph glyph-name="hyphen" unicode="-" horiz-adv-x="943" 
d="M780 644q-210 0 -252 -1q-4 0 -96 -6q-51 -3 -86 -1q-32 -23 -62.5 -52t-71.5 -74l-57 -63q-27 -28 -66 -61.5t-65 -59t-42 -52.5q153 -10 254 -15q106 -5 169 -7q36 -1 56 0q10 0 16 1h3q24 24 38 46q35 51 38 56q21 27 73 88.5t87.5 108t63.5 92.5zM459 191l10 7
q19 14 27 22q42 42 97 109l92 115l15 17l14 17q6 6 12.5 15.5t11.5 18.5q2 4 6 6q2 13 4 29q-31 -42 -92 -115t-78 -95q-3 -3 -37 -54q-26 -38 -46 -53q-3 -3 -8 -4q-3 0 -7 -1q-7 -1 -18 -1h-5q0 -15 2 -33zM473 63q1 -17 1 -32q13 0 25 -1q11 25 39.5 62t84.5 98l37 40
l37 42l31 34q17 20 28.5 35t18.5 26q1 2 2 3q-1 0 -2 1q-11 17 -18 36q-47 -85 -116 -167t-160 -173q-3 -3 -8 -4zM470 96q195 196 271 340q2 4 6 6q-2 13 -3 28q-7 -9 -21.5 -25.5t-15.5 -18.5l-93 -114q-55 -69 -98 -112q-10 -10 -31 -25q-16 -11 -23 -18l3 -24
q4 -25 5 -37zM40 102q27 -1 74 -7q57 -8 82 -9q42 -2 123 0q82 2 124 -1q-2 15 -5 44q-3 20 -4 29q-55 1 -208 13q-138 11 -207 12l10 -30q39 -4 111.5 -6.5t92.5 -3.5q18 -1 96 -8q58 -6 94 -6q14 0 14 -14t-14 -14q-32 0 -97 6q-76 7 -95 8q-22 1 -90 3.5t-105 5.5zM13 69
l2 -4v5q-1 0 -2 -1zM51 32q72 -18 230 -8q122 8 165 8q0 12 -1 25h-3q-41 3 -123 1q-83 -2 -125 0q-25 1 -84 9q-46 6 -67 7q0 -24 -3 -44h1q5 3 10 2zM9 211q58 0 219 -13q136 -11 203 -12q-2 20 -2 38h-25q-63 2 -170 7q-100 5 -244 14q9 -16 17 -34h2zM829 451
q-14 -16 -30 -41q-4 -5 -10 -6q4 -9 10 -17q6 -9 -2 -18q7 -7 2 -16q-8 -13 -20 -28.5t-30 -36.5l-31 -35l-38 -42l-36 -39q-56 -61 -83 -97q-22 -30 -33 -49q10 -4 9 -15q-1 -6 -5.5 -9.5t-10.5 -2.5l-3 1q-5 -9 -15 -7q-6 2 -10 8q-4 -4 -9 -4h-10h-12q-4 -3 -9 -3
q-8 0 -21.5 0.5t-19.5 0.5q-4 -8 -14 -7q-21 3 -50 3.5t-83 0t-71 -0.5q-147 0 -193 24q-37 19 -57 55q-20 37 -20 79q0 49 11 87.5t35 69t46 52t59 53.5t60 56q15 15 53.5 58.5t69.5 73.5t63 53q2 13 15 12h3q8 5 15 -1q31 0 77 2q92 6 97 6q29 1 265 1q14 0 14 -14
q0 -6 -4 -10q8 -8 2 -17q-15 -25 -33 -51q8 -5 7 -14q-7 -43 -8 -73h3q27 -6 52 0q5 1 10 -2t6.5 -8.5t-1.5 -10.5t-9 -7h-1q3 -8 -2 -14zM480 253q1 0 1 1z" />
    <glyph glyph-name="period" unicode="." horiz-adv-x="835" 
d="M481 685q-113 19 -223 -34t-180 -151q-46 -65 -63.5 -135.5t0.5 -146.5q18 -77 76 -141q82 -91 215 -101q123 -10 221 60q99 70 147 184q30 74 32 148.5t-31 145.5t-100 119q-49 35 -94 52zM494 712q47 -18 99 -55q74 -54 109 -131q36 -77 34 -158t-35 -159
q-50 -122 -157 -197.5t-240 -65.5q-144 11 -235 111q-64 71 -83 154q-20 84 -0.5 160.5t68.5 146.5q52 74 129.5 125.5t164.5 68.5q-2 4 -2 8q0 15 15 15q69 0 127 -21h1q2 -1 5 -2zM234 343q-12 2 -29 -2q-7 -1 -13 4q-4 1 -6 5q-8 0 -13 6q-7 12 4 20q30 19 72 24
q45 14 67 20q41 12 66 16q16 3 26 3q16 0 23 -7q8 -8 4 -21q-2 -4 -2 -5q-3 -22 -10 -66.5t-11 -77.5t-4 -65q0 -66 14 -86l2 1q10 10 19 -1q7 -6 3 -15l2 -1q13 -8 15 -18q4 -15 -14 -25q-22 -12 -59 -13q-11 0 -30 1t-25 1q-71 0 -95 57q-16 40 -8 115q3 21 9 59l8 52
q1 4 1 7q-8 8 -16 12zM379 201h1v12zM402 80q6 -4 6 -11q12 1 21 4l-8 4q-3 0 -10 2q-5 1 -9 1zM355 268v-29l3 28q-1 0 -3 1zM365 338l2 3l1 8q-2 -4 -3 -10v-1zM356 537q2 -2 3 -4l1 1v1l-2 1q-1 1 -2 1zM215 451q-15 7 -17 22q-1 12 8 26q7 11 20 24q26 23 63 41t65 17
q23 -1 36 -13t12 -30q0 -34 -35 -55q-33 -20 -69 -30q-15 -7 -28 -10q-35 -9 -55 7v1z" />
    <glyph glyph-name="slash" unicode="/" horiz-adv-x="734" 
d="M398 226l7 -12q48 12 105 -2q41 -10 73 -31t45 -52q2 -4 3 -8.5t2 -8.5t1.5 -9.5t0.5 -9t-0.5 -9t-0.5 -8.5t-1 -8.5t-1.5 -7.5t-1.5 -8t-1 -8q-5 -27 -6 -30q-7 -21 -24 -30q-10 -5 -23 0q-8 3 -20 10q-17 11 -46 34q-33 27 -72 64q-27 25 -67 81q-5 1 -8 5q-2 4 -2 8
l-30 44l-13 -15l-90 -110l-52 -71q-20 -26 -33 -41l-13 -15q-8 -7 -14 -9q-11 -4 -24 -0.5t-21 11.5q-22 22 -19 71q2 43 23 88q22 49 59 79t83 23q26 -4 44 -13l10 17l24 40l-30 51q-48 85 -75 154q-30 78 -26 121l-4 4q-9 12 2.5 20.5t19.5 -2.5q31 -40 62.5 -95.5
t45.5 -83.5l47 -103l11 17l42 60l29 49q48 84 63 126v4q0 6 4 10q1 3 1 5q2 6 6.5 9t10.5 1.5t9 -6t2 -10.5q-2 -8 -5 -17v-2q4 -5 1 -12l-2 -6q-9 -114 -100 -246l-39 -53l4 -9l22 -37q2 -4 2 -8zM427 175q36 -58 75 -103q2 -1 2 -2l24 -20q27 -23 43 -32l3 -2
q16 30 11 63.5t-28 61.5q-25 30 -58 40t-72 -6zM116 8q11 24 39 60q35 46 40 55q22 32 51 81q-13 6 -33 9q-22 4 -42 -5q1 -6 -2 -11q-9 -14 -28 -32t-26 -27q-22 -30 -26 -70q-4 -42 20 -61q3 -3 4 -6l2 2q0 3 1 5z" />
    <glyph glyph-name="zero" unicode="0" 
d="M348 207q-4 1 -16 1t-35 -2q-15 -1 -48 -4t-49 -4q-60 -6 -90 -3q-21 2 -32 9q-19 10 -14 30q4 13 23 20q12 4 33 7q27 3 92 5q71 3 97 5q38 3 53 10q-5 26 -7.5 36.5t-10 26.5t-18.5 29q-30 35 -81.5 47t-103.5 -1q-54 -11 -97.5 -42t-61.5 -73q-15 -33 -21.5 -73
t0.5 -71q9 -43 46 -75t90 -47q50 -14 102 -9t85 28q9 7 23 30q15 24 27 53q12 30 15 50q1 10 -1 17zM94 227q7 -3 19 -4q27 -2 85 2q16 2 49 5t48 4q24 2 38 2q19 0 27 -4q21 -11 17 -46q-3 -24 -17 -57q-13 -30 -29 -57q-17 -28 -31 -37q-39 -28 -98.5 -34t-112.5 11
q-59 16 -102 53t-54 89q-7 41 0 83t23 79q22 49 71 83.5t109 47.5q55 14 115 0t97 -56q13 -15 22 -36t11.5 -31t8.5 -39q1 -5 -1 -9q2 -10 -6 -16q-18 -12 -71 -17q-27 -2 -99 -5q-64 -2 -89 -5q-19 -2 -28 -6h-2zM436 31q11 1 78 2q72 2 116 8q65 8 99 26q37 20 36 52
q-1 18 -9.5 36t-21.5 28q-29 21 -109 20q-9 0 -29.5 -0.5t-29.5 -0.5q-14 0 -23 2q-13 2 -19 7q-5 3 -6 8q-2 7 4 13q3 3 7 4q2 1 6 1q4 1 14 1q25 1 29 1q15 1 42 4l26 3q16 1 25.5 1.5t21 2.5t19.5 6q17 6 24 18q9 14 7 41q-6 98 -122 122q-68 14 -181 2q-1 -31 -6 -97
t-7.5 -108.5t-0.5 -98.5t11 -97q0 -4 -1 -7zM412 464q137 16 215 0q136 -28 144 -147q2 -35 -11 -58q-12 -20 -38 -30q-7 -2 -16 -5q27 -6 44 -19q20 -14 31 -37.5t12 -48.5q2 -49 -51 -77q-38 -20 -108 -29q-46 -6 -120 -8q-73 -2 -84 -3q-6 -1 -10.5 3t-5.5 9q0 5 2 9
q-5 3 -7 9q-9 42 -11 99.5t0.5 100t7 110t6.5 94.5q-11 2 -12 12q-1 6 3 10.5t9 5.5z" />
    <glyph glyph-name="one" unicode="1" horiz-adv-x="993" 
d="M776 488q-4 -3 -9 -3h-34h-2h-1q-73 0 -235 0.5t-248 0.5q-13 0 -49 3q-43 3 -60 4q-34 2 -58 0q-25 -2 -35 -8q-3 -4 -7 -18q-6 -19 -10 -51q-8 -63 -10 -151q-1 -86 4 -153q2 -33 6 -54q3 -17 6 -22l6 -2q8 -2 20 -4q20 -2 60 -3q31 -1 44 -1q17 0 37.5 0.5t24.5 0.5
q302 0 459 -6q13 -1 42 -3.5t41 -2.5q51 -3 79 4q4 1 9 18q6 20 8 54q1 16 1 103v34v56v66q0 56 -2 91q-1 20 -3 30q-1 5 -1 8v1q-6 4 -19 7q-15 3 -37 2q-12 0 -27 -1zM733 513q5 0 27 2q27 2 42 2q26 1 43 -3q24 -4 35 -17q4 -3 6 -11q1 -4 2 -11q2 -11 3 -32q2 -37 2 -92
v-67v-56v-34q0 -88 -1 -105q-3 -37 -9 -59q-9 -33 -30 -39q-31 -8 -86 -4q-13 0 -41.5 2.5t-42.5 3.5q-155 6 -457 6q-4 0 -25 -0.5t-38 -0.5t-44 1q-39 1 -62 4q-15 2 -25 4q-13 4 -19 11q-7 9 -12 35q-4 22 -7 57q-5 68 -4 155q2 91 10 154q5 35 11 56q8 26 20 34
q15 9 47 12q24 2 61 0q18 -1 61 -4q35 -3 47 -3q86 0 248.5 -0.5t237.5 -0.5zM504 119v2q4 30 15 143q9 93 20 142q-169 6 -240 7q-1 -48 -7 -141q-7 -109 -7 -150q77 4 125 2q34 -2 94 -5zM167 344q-45 -10 -54 -65q-5 -30 4 -55q8 -23 22 -28q19 -6 34 10t21 47t-1 57
q-8 26 -26 34zM203 351q11 -13 17 -33q9 -33 2 -71q-8 -39 -29 -61q-27 -27 -62 -16q-28 8 -41 45q-11 32 -5 68q7 40 34 67t74 24q6 0 9.5 -4.5t3.5 -10.5q0 -4 -3 -8zM388 314l-30 -26l-24 -21q-10 -10 -19.5 0.5t1.5 19.5q7 7 23.5 21t27.5 24.5t20 21.5l1 5q2 5 5 8
q7 7 16 5q13 -4 15 -17q1 -6 -1 -15q-1 -2 -4 -11q-2 -5 -2 -7q-4 -25 -11 -149q0 -6 -4.5 -9.5t-10.5 -3.5t-9.5 4.5t-3.5 10.5q7 118 10 139zM660 173q-2 -2 -4 -3l3 -8l1 8v3zM64 121q61 -8 170 -2l23 2q0 45 7 153q6 93 7 139h-23q-11 0 -45.5 2t-53.5 2q-32 1 -52 -1
q-18 -1 -28 -5q1 -14 -1.5 -39t-2.5 -30q-3 -63 -3 -221h2zM596 148q0 -3 0.5 -7t0.5 -5q1 0 1 -0.5t3 -4.5l11 -15q1 -2 1 -3q41 -2 74 -4v1q-1 16 -24 38q-8 8 -17 15l-6 4l-2 1q0 1 -0.5 1t-1.5 1l-1 1l-3 8q0 4 2 7l2 5l2 1q2 1 5 3t10 5l27 11q6 3 11 6l-11 1l-81 8
q-6 1 -9.5 5.5t-3 10t5 9t9.5 3.5l82 -8q27 -3 31 -3q6 -1 10 -2h3h2q1 -1 2 -1q2 -1 3 -3q5 -4 5 -10q0 -9 -7 -16q-4 -5 -12 -10q-10 -7 -29 -15l-19 -8l10 -10q31 -29 33 -56v-4q34 -1 65 -1q8 49 11 143q4 129 13 179q1 6 6 9.5t10.5 2.5t9 -6t2.5 -10q-9 -49 -13 -175
q-3 -94 -10 -144q8 -4 8 -13q0 -13 -13 -14l-1 -8q-1 -5 -6 -8.5t-11 -2.5q-3 1 -5 2q-5 -5 -13 -4q-29 7 -62.5 8.5t-75.5 1.5t-67 1q-77 4 -160 5t-196.5 -0.5t-160.5 -1.5q-14 0 -14 14q0 6 5 11q-3 3 -3 8q0 179 3 239q1 10 2.5 29.5t2 27t-1.5 26.5q-1 6 2.5 10.5
t9.5 5.5q7 1 12 -4q12 3 30 5q22 2 55 1q19 0 53.5 -2t45.5 -2q89 0 268 -6t268 -6q14 0 14 -14t-14 -14h-59q-5 -18 -27 -34q-11 -9 -35 -21q16 1 19 1q10 0 30 -2q19 -1 28 -1q14 0 14 -14t-14 -14q-10 0 -30 2q-19 1 -28 1h-37q-13 3 -19.5 7t-7.5 11q-2 7 2 14
q4 5 13 11q4 2 15 8q24 12 34 19q9 7 13 13q-52 1 -128 3v-3q-11 -49 -20 -141q-11 -113 -15 -144l46 -2q-4 5 -5 7q-2 4 -3 10q0 1 -0.5 5t-1.5 7q-1 6 2.5 10.5t9.5 5.5t10.5 -2.5t5.5 -9.5z" />
    <glyph glyph-name="two" unicode="2" horiz-adv-x="735" 
d="M237 522q-38 -10 -79 -37q-4 -2 -16 -10l-17 -11q-4 -2 -14.5 -9.5t-15.5 -11.5l-13 -11q-8 -6 -14 -12.5t-11 -13.5q-42 -53 -52 -120.5t9 -126.5t68 -105q49 -47 117 -61q85 -18 166 5q82 23 136 76q37 35 54.5 78t11.5 97t-39 110q-50 83 -113 117q-11 5 -24.5 10
t-23.5 8l-27 6q-18 5 -27 8q-5 1 -8 6t-1 11q0 2 1 4q-26 2 -52 -3q-4 -1 -8 -3t-8 -1zM340 539v-1q-1 -5 -4 -8q66 -16 91 -30q70 -36 125 -127q62 -104 38 -201q5 11 9 23q20 70 -4 141.5t-81 124.5q-78 74 -174 78zM234 575v32l-12 4q-5 2 -9 4q-1 -4 -1 -7q-2 -13 1 -18
q5 -9 21 -15zM295 566v14v7q0 4 2 13q-19 -1 -35 1v-32q15 -3 33 -3zM443 397q43 -46 53 -110t-15 -124q-1 -2 -4.5 -10.5t-4.5 -11.5t-4 -11l-6 -11q-2 -4 -6 -10.5t-8 -10.5l-8 -10q-5 -5 -10 -9q-77 -62 -215 -36q-74 14 -117 68.5t-47 125.5q-4 70 30.5 131.5
t102.5 88.5q19 8 27 11t25.5 7.5t32.5 4t30 -5.5q8 -2 10 -11q40 -5 67 -17q35 -16 62 -43q4 -2 5 -6zM410 672q-21 7 -66.5 5.5t-85.5 -11.5q-20 -4 -32 -10q-9 -3 -14 -8q6 -5 21 -11q44 -14 98 -7t99 26q4 2 7 3l-3 1l-2 2h-4l-2 2l-9 3q-3 2 -5 4q-1 1 -2 1zM478 647
q1 -17 1 -21q-1 -2 -2 -9q-2 -8 -3 -17q-1 -7 -8 -10q0 -2 -1 -3q-15 -18 -56 -32q69 -21 124 -73q62 -58 89 -137q26 -79 3 -158q-14 -50 -68 -117q-16 -19 -33 -34.5t-38 -26.5l-36 -19q-16 -7 -43 -14l-40 -9q-13 -3 -45.5 -8.5t-42.5 -7.5q-10 -1 -15 7q-36 0 -71 7
q-76 16 -130.5 67.5t-75.5 117.5t-9.5 140.5t57.5 133.5q7 9 17 18l15 14q6 6 20 16l17 12q4 3 21 14l17 11q44 28 84 39q-26 10 -37 28q-8 13 -5 35q1 6 3 15l1 8q-10 15 1 30q7 10 26 18q14 6 36 11q44 10 91 12q48 2 78 -7q3 -1 6 -4q2 -1 3 -1q2 -2 7 -3l8 -3
q13 -5 20 -13q5 -7 5 -15q8 -3 9 -12zM326 601q-3 -14 -3 -15v-6v-12h5q40 3 72 14q33 10 43 23q2 2 4 3q1 8 3 15q1 6 1 7v5q-5 -2 -11 -5q-53 -22 -114 -29zM187 331q6 -7 21 -37l30 -58q19 -35 30 -53q6 -9 10 -14v1q7 8 17 23q18 26 47 73l71 122q-21 20 -49 32
q-36 17 -130 21q-4 0 -7 2q-10 -3 -33 -12q-58 -23 -88.5 -77t-26.5 -115q4 -62 41 -109q36 -47 101 -59q125 -24 191 30q4 3 7 6t6 7l5 6q2 3 5 8.5t4.5 8t4 9t3.5 8.5t4 10t4 9q20 50 14.5 102t-36.5 91l-67 -114q-29 -48 -48 -75q-11 -17 -18 -25q-5 -6 -9 -8
q-6 -6 -13 -6q-10 0 -20 11q-6 7 -14 19q-12 19 -31 55l-29 58q-15 27 -19 32q-9 11 2 20t20 -2z" />
    <glyph glyph-name="three" unicode="3" horiz-adv-x="820" 
d="M362 716q-117 8 -219 -68q-102 -77 -150 -196q-59 -145 -5 -266q61 -138 254 -187q62 -16 126 -9q63 8 115.5 35.5t98 69.5t71.5 96t36.5 115t-7.5 126q-1 4 -4 19l-6 21q-1 6 -4.5 18.5t-6.5 20t-7.5 17t-9.5 16.5q-22 36 -88 88q-47 38 -87 55.5t-95 19.5q-9 0 -12 9z
M460 720q53 -17 114 -66q69 -55 94 -94l12 -22q5 -11 10 -28l7 -22q2 -7 7 -28t6 -22q14 -58 9.5 -116.5t-25.5 -109t-55.5 -96t-79.5 -77.5t-97.5 -54t-110 -24.5t-115.5 10.5q-207 53 -274 203q-29 71 -27 144q2 71 32 145q39 96 113 167q74 72 171 102t204 -8q3 -1 5 -4z
M313 686q64 -2 141 -37q64 -30 110 -65.5t69 -87.5q27 -70 16 -148t-52 -151q-43 -74 -107 -123t-136 -53q-52 -3 -106.5 10t-103 39.5t-84 71t-45.5 99.5q-11 62 6 139t56 145q42 73 101 118t128 45q4 0 7 -2zM45 354q13 -2 40 1h3q1 1 2 1t3.5 -0.5t4.5 -1.5q6 -4 7 -12
q0 -6 -5 -10q-1 -2 -3 -3l-3 -1q-1 0 -3 -1l-29 -6q-8 -1 -13 4q-4 1 -8 1q-5 -44 2 -79q11 -60 56.5 -106t105 -68.5t123.5 -24.5q1 5 1 14q0 20 4 30l4 14l1 4q2 7 3 11q1 2 1.5 3.5t1.5 1.5l2 4q10 8 19 0q2 -2 3 -4.5t1 -3.5l1 -2v-2q-1 -1 -1 -2q0 -3 -5 -17
q0 -3 -1 -6q6 -5 5 -13v-22q0 -5 -1 -7q60 8 114 51.5t91 108.5q40 68 50 140.5t-15 132.5q-20 46 -62 78q-41 32 -103 61q-61 28 -110 34v-8v-3v-25v-1v-1q-1 -2 -1 -4l-4 -4q-6 -5 -13 -3q-5 1 -8 5q-1 2 -1 3l-1 3v3v6v30q-19 0 -37 -4h-5q-93 -25 -160 -143
q-43 -76 -58 -157h1zM596 377q-2 0 -9 -3q-12 -5 -26 -8q-5 -1 -10 2.5t-6 9t2.5 10.5t9.5 6q10 2 19 6q11 5 18 5q6 0 10.5 -3.5t4.5 -9.5t-3.5 -10.5t-9.5 -4.5zM235 426q17 -18 40 -49q29 -39 30 -40l21 21q10 11 24 24l22 19l26 22q18 15 23 18.5t27 21t23 18.5l1 1l4 2
l41 34q11 9 20 -2t-2 -20l-45 -36l-95 -99l-59 -61l-20 -20l-6 -6q-1 -2 -2 -2q-4 -3 -7 -4q-7 -1 -14 3q-3 2 -6 6q-5 5 -11 15q-10 15 -26 44l-27 49q-14 25 -19 32q-7 12 4.5 19.5t19.5 -3.5l1 -3q7 1 12 -4zM490 543q0 -14 -14 -14t-14 14t14 14t14 -14zM171 505
q0 -14 -14 -14t-14 14t14 14t14 -14zM529 200q0 -14 -14 -14t-14 14t14 14t14 -14zM189 158q0 -14 -14 -14t-14 14t14 14t14 -14z" />
    <glyph glyph-name="four" unicode="4" horiz-adv-x="908" 
d="M337 310q-1 0 -1 1q-23 6 -44 7q-11 -1 -23 -6q-8 -3 -15 3q-14 -4 -25 -12q-34 -23 -36 -67.5t32.5 -75t97.5 -19.5q20 3 33 36q14 34 9 74q-4 40 -27 58zM290 347q39 5 66 -16q31 -25 37 -77q6 -47 -11 -88q-19 -47 -55 -53q-76 -12 -120 27t-42 97t48 89q32 22 77 21z
M567 411q6 -1 16 -3q21 -3 57 -5q33 -2 59 -2q13 -1 21 0h7q5 2 6 11q0 3 -5 26q0 4 1 8h-2q-5 0 -50.5 3t-49.5 2.5t-49 -1.5q-5 -13 -8 -22q-2 -8 -3 -17zM409 588h2l6 -2q12 -8 16 -29q2 -6 3 -15v-1q80 -3 110 -3q7 0 28 1t44 1.5t43 -0.5q89 -1 120 -21q12 -8 19 -38
q5 -22 7 -60q4 -67 -2 -167q-6 -99 -17 -168q-6 -38 -12 -60q-4 -12 -8 -20q-5 -11 -12 -16q-11 -7 -38 -10q-20 -2 -50 -1q-19 0 -49 1.5t-37 1.5q-12 0 -117 -2l-177 -2q-108 0 -172 2q-39 2 -62 4q-28 3 -38 9q-23 13 -29 48q-10 61 -10 241q1 88 6 144q3 32 7 51
q6 25 16 34q2 2 5 2q-1 11 8 15q34 14 110 19q25 1 56 1q2 14 5 23q8 18 23 24q4 2 15 3q9 1 23 1q27 1 60 1q36 -1 60 -3q14 -1 22 -3q5 -1 9 -2t7 -4zM228 551l-4 -2h6zM24 489q-3 -2 -6 -18q-5 -18 -7 -48q-5 -55 -6 -141q0 -177 10 -237q4 -22 15 -28q4 -2 27 -5
q22 -2 60 -4q64 -2 171 -2q73 1 182 2q0 57 8 186q-14 -65 -63 -108q-39 -34 -90.5 -39.5t-97 13.5t-78.5 55q-56 59 -49 131q7 78 90 141q1 2 2 3q77 63 151 48q66 -13 107 -80q26 -44 31 -97q1 17 1.5 57t1 64.5t5.5 59t15 60.5q2 6 9 8q-28 1 -109 4l-126 6
q-90 2 -148 -1q-70 -4 -99 -17h-2q1 -8 -5 -13zM214 371q-80 -58 -86 -128q-6 -59 41 -109q46 -49 110.5 -58.5t117.5 32.5q34 29 48 72t8 85.5t-27 78.5q-34 56 -88 67q-58 11 -120 -37q-2 -2 -4 -3zM563 477q20 2 43.5 2.5t39 0t44 -2.5t39.5 -3q6 0 9.5 -4.5t3.5 -10.5
q0 -2 -1 -4q12 1 15 -11q5 -26 5 -33q-1 -28 -24 -36q-5 -2 -16 -2q-9 -1 -23 0q-26 0 -60 2q-37 2 -59 6q-13 2 -21 4q-5 1 -8 2q-8 4 -10 11q-3 14 3 37q3 11 9 24q-1 1 -1 2q-1 6 3 10.5t9 5.5zM530 492q-11 -32 -15.5 -68.5t-4.5 -94t-1 -75.5q-1 -24 -4 -76.5t-5 -92
t-2 -76.5q69 1 84 1q7 0 37.5 -1.5t48.5 -1.5q29 0 47 1q20 2 25 6q1 0 3 4q3 6 6 16q6 21 12 57q10 66 16 164q6 99 2 164q-2 36 -7 57l-7 19q-24 16 -104 17q-20 1 -43 0.5t-43.5 -1.5t-28.5 -1h-24q13 -5 8 -18z" />
    <glyph glyph-name="five" unicode="5" horiz-adv-x="649" 
d="M356 781q-78 14 -155 -32q-76 -46 -121 -125q-50 -88 -31 -165q21 -86 127 -124q72 -24 129 -23t99.5 24.5t69.5 59.5t39 81q13 43 7.5 89.5t-23 87.5t-54.5 75t-87 52zM137 490q14 -15 26 -12q2 1 7 7q7 7 15 21q15 25 33 65q16 36 27 70q9 26 12 38q-46 -15 -81 -73
q-34 -56 -39 -116zM278 694q8 -4 7 -13q-1 -14 -13 -49t-28 -72q-19 -42 -35 -69q-9 -15 -17 -24q-11 -13 -21 -15q-7 -2 -13.5 -2.5t-12.5 1.5t-10 4t-9 6.5t-7 6.5t-6.5 7.5t-5.5 6.5q-9 10 2 20q1 0 1 1q8 61 42 118q45 75 109 89q6 1 10.5 -2t6.5 -9v-5zM460 329
q-2 -37 -14 -102l-6 -32q0 -4 -1 -7q-7 -35 -10 -60q-1 -10 -12 -12q1 -7 -5 -12q-25 -19 -64 -26q-37 -8 -76 -3q-41 5 -72 25q-31 21 -39 58q-4 6 -7 13q-12 28 -13 77q0 14 1 38t1 32q-99 45 -121 134q-22 88 33 186q44 77 119.5 127.5t157.5 46.5q5 4 12 2q9 -2 19 -5
q17 -4 34 -10q6 -2 8 -9q89 -47 124 -138q35 -90 11 -182q-21 -82 -82 -132q2 -4 2 -9zM175 297q34 -42 107 -46q60 -2 128 20q9 3 15 -4q5 29 6 52q-107 -65 -260 -12v-7q2 -1 4 -3zM174 241q6 -5 14 -13t13.5 -12t12.5 -7q37 -14 106 -17q65 -3 93 11l6 29l2 14
q-1 -1 -3 -1q-72 -24 -137 -22q-70 3 -112 39v-14v-5q3 -1 5 -2zM204 170q58 -41 177 -15q10 2 15 -7q4 5 7 11q1 2 3 3l1 9q-34 -9 -89 -7q-72 3 -114 19q-15 5 -31 20q3 -12 7 -20q3 -7 7 -14q8 6 17 1z" />
    <glyph glyph-name="six" unicode="6" horiz-adv-x="883" 
d="M416 711q-76 -3 -142.5 -34t-113 -81t-76.5 -112q-31 -61 -43 -130q-13 -71 -2 -138q11 -68 44 -120q74 -117 235 -119q104 -1 204 57q99 57 162 150q43 63 61 129t6 137t-58 132q-54 70 -112.5 96t-152.5 26q-8 0 -12 7zM471 731q80 -5 136 -34.5t108 -98.5
q51 -66 63.5 -143.5t-6.5 -148.5t-65 -137q-67 -99 -172.5 -160t-216.5 -60q-176 2 -259 132q-36 57 -47.5 131t2.5 147q13 76 49 145.5t91 124t134.5 85t171.5 24.5q8 -1 11 -7zM333 457q-5 11 6 18q73 46 122 30q46 -16 54 -76q8 -53 -18 -116t-76 -102q-18 -14 -26.5 -20
t-26.5 -14.5t-34 -10.5q-81 -9 -106 42q-21 42 4 110q15 39 42 76.5t59 62.5zM399 413q-21 -8 -45 -30q-29 -29 -45 -64q-16 -33 -9 -50q8 -17 44 -12q25 3 52 42q28 38 35 78q4 18 1 29q-2 8 -8 10q-9 3 -25 -3zM406 444q15 2 27 -2q20 -7 26 -29q4 -17 0 -41
q-9 -46 -40 -89q-35 -49 -71 -54q-58 -7 -73 29q-13 28 8 73q13 27 34 52q-6 11 4 18q40 29 68 39q8 3 16 4h1zM409 463q-42 -6 -86 -52.5t-64.5 -102.5t-5.5 -87q17 -34 77 -27q13 1 26.5 7.5t22 12.5t24.5 19q45 35 68 90.5t17 101.5q-7 43 -36 53q-13 5 -31 2v-1
q1 -6 -2.5 -10.5t-9.5 -5.5z" />
    <glyph glyph-name="seven" unicode="7" horiz-adv-x="760" 
d="M370 808h3q6 -2 9 -6.5t2 -10.5l-2 -8q21 -46 34.5 -72.5t39 -59.5t56.5 -58q57 -46 88 -50h8q11 2 16 2q29 1 35 -20q2 -6 1 -17q-1 -7 -3 -16q-1 -6 -3.5 -14.5t-2.5 -11.5q-23 -114 -72 -218t-124 -179q-1 0 -17 -18q-12 -13 -22 -21q-30 -26 -58 -23q-14 2 -36 16
q-6 4 -15 11t-12 8q-88 61 -142.5 168.5t-62.5 220.5q0 3 -2 17l-2 24q-2 33 4 47q2 3 4 5h1l2 2q1 0 2 1l7 3l21 10q30 15 34 18q60 48 110 113q63 82 60 131q-1 10 9 14q1 6 7 9q13 6 19 -7zM317 244q0 53 11 227q-52 -28 -76 -83q-21 -46 -8 -84q15 -41 70 -59zM329 503
q1 18 2 34q6 143 15 202q-17 -38 -53 -85q-52 -67 -114 -118q-7 -5 -40 -21l-21 -10l-3 -2q-2 -9 -1 -30l2 -23q2 -14 2 -17q8 -107 59 -209t134 -158q3 -2 11 -8.5t14 -9.5l-7 36q-7 38 -9 62q-2 33 -3 69q-6 2 -11 4q-68 21 -88 76q-17 48 8 105q15 33 42 60.5t61 42.5z
M390 489q-17 -1 -34 -6q-11 -201 -11 -245q62 -8 100 33q21 24 28 58t-3 75q-12 47 -34 64q-13 10 -37 18zM423 507q18 -7 31 -17q29 -23 44 -80q11 -45 2.5 -87t-34.5 -71q-46 -50 -121 -42q1 -32 3 -62q2 -22 8 -59q8 -40 10 -54q14 1 32 16q8 7 19 19q17 18 18 19
q71 71 118.5 171.5t69.5 211.5q1 2 3.5 11.5t3.5 14.5q2 8 2 13q1 4 1 5q-3 1 -8 1q-4 0 -14 -1t-15 -1q-38 5 -102 56q-41 33 -68.5 72t-52.5 92q-8 -58 -14 -200v-6q3 0 6 -1q10 -5 29 -11q9 0 18 -1q8 -1 11 -9z" />
    <glyph glyph-name="eight" unicode="8" horiz-adv-x="910" 
d="M514 151v-1v1zM490 273q-4 3 -5.5 9t1.5 10.5t9 6.5h2q2 1 4 1q128 29 208 93q50 40 67 97q17 56 -5 109t-80 85q-64 35 -147 38.5t-157.5 -15.5t-146.5 -55q-68 -33 -116.5 -69t-70.5 -84q-13 -26 -12.5 -59t14.5 -58q35 -62 127 -87q24 -7 50.5 -11t65.5 -9t50 -6
q2 0 23 2q10 1 17 0q11 0 17 -4q10 -6 23 -29q12 -22 14 -24q25 -27 71 -56q-1 7 -4 22q-5 18 -6 23q-8 54 -13 70zM519 275q4 -16 12 -68q0 -3 5 -20q4 -17 5 -27q1 -8 0 -13q-1 -10 -7 -15q-8 -7 -19 -5q-7 1 -16 7q-50 32 -77 60q-5 6 -19 30q-9 17 -12 19h-4h-13
q-25 -3 -30 -2q-9 1 -48.5 6t-67.5 9.5t-54 11.5q-103 29 -143 100q-18 31 -18.5 71.5t14.5 71.5q14 29 36.5 54.5t52.5 46.5t54 36q25 14 58 30q74 36 151 56t166.5 16.5t159.5 -42.5q67 -36 92 -99t5.5 -127.5t-75.5 -110.5q-80 -65 -208 -96z" />
    <glyph glyph-name="nine" unicode="9" horiz-adv-x="718" 
d="M317 364q29 -11 78 -3q-18 31 -13 65q-2 2 -3 4q-6 13 7 19l2 1q8 22 26 51l20 31l22 33q6 10 12.5 26.5t7.5 30.5q4 51 -19 84t-60.5 43t-77 -5.5t-64.5 -55.5q-15 -23 -16 -52.5t7 -55.5q7 -23 25 -60l21 -44q12 -26 18 -43q2 -7 4 -13q3 -2 5 -5q5 -7 0 -15
q2 -20 -2 -36zM584 369l-4 3q-5 4 -14 10l-44 27q-26 15 -45 25l-16 8l-5 2q-9 1 -27 -6q-8 -3 -18 -8q-7 -32 11 -59q5 -8 0 -16q0 -2 1 -4q1 -5 -2.5 -10t-9.5 -6q-76 -13 -120 10q-12 6 -5 19q0 1 1 2q4 7 5 17q-76 -44 -141 -70l12 -4l23 -7l22 -8l12 -4q8 -3 29 -12
t33 -13.5t29 -9.5t29 -6q7 -1 31 10q21 10 54 28q21 11 54.5 31t41.5 24q4 2 10 4l15 6q9 4 14 5q12 5 19 9q4 2 5 3zM318 141q-7 34 -2 83q-16 4 -34.5 10.5t-43.5 17.5t-28 12l-12 4q-8 3 -21.5 7t-22.5 8q-19 6 -31 11v-4q-2 -16 -2 -20q-1 -19 1 -27q2 -1 5 -3
q8 -6 23 -14l70 -37l70 -35q15 -8 24 -12zM344 155q24 18 27 20q74 45 121 69q6 4 45 17q26 10 34 18q10 10 15 34q2 11 3 26q-8 -3 -19 -8l-14 -5q-9 -3 -14 -5t-7 -3l-43 -24l-53 -31q-35 -20 -57 -29q-25 -12 -38 -13q-4 -39 0 -66zM276 130q-4 -2 -25 -13.5t-28 -14.5
l-25 -14q-19 -9 -29.5 -13.5t-26 -10.5t-29.5 -9q-6 -2 -11 1t-6.5 8.5t1.5 10.5t8 6q47 14 140 64l-38 19l-70 38q-16 8 -25 14q-4 3 -7 5q-2 1 -4 3t-4 5q-6 14 -4 43q0 4 2 20q1 11 1 16q0 4 2 7v1q0 12 11 18q5 2 13 3h8q3 0 4.5 0.5t2.5 0.5q69 27 150 75q-1 5 -3 11
q-6 15 -17 40l-22 44q-17 37 -26 64t-8 64.5t20 67.5q31 47 78.5 66t93.5 6q48 -12 77 -54q28 -41 24 -102q-1 -17 -9 -37t-15 -32t-23 -35.5t-19 -29.5q-7 -11 -12 -20q19 7 32 6q5 0 14 -5l18 -8l46 -26q26 -15 45 -28q10 -6 16 -11q8 -5 10 -8q6 -8 6 -18q5 -5 5 -12
q-2 -33 -5 -48q-6 -33 -22 -49q-13 -13 -45 -24q-37 -13 -42 -15q-45 -24 -119 -69q-2 -2 -20 -15l175 86q12 7 18.5 -5.5t-6.5 -18.5q-194 -102 -390 -184q-12 -5 -17.5 7.5t7.5 18.5l162 72q-1 0 -3 1q-3 1 -8 4l-25 11zM207 2q15 3 29.5 9t37.5 18l30 16q24 11 140 58
q84 34 133 67q12 7 19.5 -4.5t-3.5 -19.5q-52 -34 -138 -69q-127 -51 -139 -58l-28 -15q-24 -12 -41 -19t-34 -11q-6 -1 -11 2.5t-6 9t2.5 10.5t8.5 6z" />
    <glyph glyph-name="colon" unicode=":" horiz-adv-x="1053" 
d="M530 164q-1 8 -3 22q-5 36 -6 49q-1 31 -1 65t0.5 77.5t0.5 64.5q-82 7 -205 4q-215 -6 -224 -6q-3 0 -5 1q0 -5 -1 -49t-1 -73q-1 -50 0 -78v-25v-1q4 -1 11 -2q17 -3 49 -7l57 -7h1q2 0 4 -1l88 -10q155 -17 235 -24zM283 521q-1 -13 -1 -48q18 0 33 1q136 3 225 -5
q6 -1 9.5 -5t3.5 -10q-1 -5 -4 -9v-36l18 8l56 22q36 15 54 21q13 5 20 7q4 1 7 1q-1 30 -1 52q-3 -9 -13 -9q-136 0 -407 10zM243 -45l-21 2l1 -9q1 -6 -4 -11q-1 -16 3 -24l3 -4q4 0 8 7q7 12 7 31q0 5 3 8zM696 210h-73q-5 0 -9 4q-27 -16 -49 -27q-5 -2 -10 0
q4 -29 4 -47q0 -14 -14 -14q-10 0 -13 10q-75 6 -240 24l-35 4q1 -22 0 -127l106 -15q77 -10 118 -15t103 -10t113 -6q-14 108 -1 219zM358 119q4 3 9 3q3 0 5 -1l5 -1q23 -6 54 -9q26 -1 83 -1q5 0 9 -3h9q14 0 14 -14t-14 -14q-30 0 -60 1q-37 1 -61 4q-41 3 -75 10
q-6 2 -9 6.5t-1.5 10.5t6 9t10.5 2q8 -2 16 -3zM754 -121q3 9 5 23q2 7 9 10l-21 2q3 -21 7 -35zM553 213q31 15 83 47l69 40q-3 5 -2 10q3 12 3.5 24.5t0 33.5t-0.5 28v7q0 13 -1 36v1h-1q-6 -2 -17 -6q-18 -6 -53 -21l-56 -22q-22 -8 -30 -11q-1 -97 1 -143q0 -11 2 -25
q1 0 2 1zM726 220q-17 -115 0 -230q0 -4 -1 -7q1 -3 1 -6q0 -14 -14 -14q-55 0 -122 5.5t-113.5 11t-125 16.5t-113.5 15q-5 1 -9 5.5t-3 10.5q1 4 3 7q0 112 -1 134l-11 1q0 -124 3 -184q105 -7 299 -24t275 -23l32 26l34 28q13 10 28.5 26t26.5 31v1v612l-59 -34
q-41 -22 -62 -35q1 -2 1 -5q8 -83 7 -208q-1 -22 -2.5 -95t-1.5 -112q0 -15 -0.5 -48.5t-0.5 -52t2 -45t7 -48.5q1 -6 -2 -11t-9 -6t-11 2t-6 9q-5 23 -7 51.5t-2 48t0.5 53.5t0.5 47q0 39 1.5 112.5t2.5 94.5q1 124 -7 206q0 4 2 8q-375 0 -545 7v-2q0 -97 2 -128l28 1
q0 42 2 59q-1 3 -1 6q0 5 4.5 9t10.5 4q285 -11 420 -11q9 0 13 -9v3q0 14 14 14t14 -14q0 -27 1 -68q3 -3 3 -8v-21q0 -4 1 -9q0 -6 -1 -16q1 -50 10 -83q1 -6 -2 -11t-8 -7h-2q5 -2 7 -6q7 -13 -5 -19l-80 -47h48q4 0 7 -2h4q6 -1 9.5 -5.5t2.5 -10.5zM143 373l30 12
l31 13q13 5 18 -8t-8 -18l-27 -11q-1 -3 -2 -5q43 1 75 1q31 0 49 -1q2 0 3 1q21 9 46 23q12 7 19 -5t-5 -19q-13 -8 -24 -13q4 -8 -1 -15q-3 -6 -11 -10q-5 -1 -12 -3q-3 -2 -6 -2h-1q-6 0 -44.5 -0.5t-53.5 0t-43.5 3t-50.5 6.5q-12 3 -11 15q-2 4 -2 8v1q0 4 1 8
q4 11 15 9h1l6 2q2 6 8 8zM940 25q0 -40 -7 -66q-6 -24 -19 -31q-20 -9 -40 17q-3 4 -4 8q-3 2 -5 7l-15 -13l-48 -39q-9 -8 -18 0q4 -5 3 -12q-7 -37 -16 -49t-21 -9q-8 2 -14 12q-11 18 -18 66l-206 18q-159 14 -246 20q2 -3 2 -7q0 -27 -11 -45q-12 -20 -30 -21
q-21 -2 -31 21q-8 19 -4 50q1 3 2 5v3q-7 4 -7 13q0 6 5 10q-3 61 -3 189l-47 6q-38 5 -51 7q-9 2 -15 3q-3 1 -5 2q-5 1 -8 4t-4 7q0 2 -1 4q0 4 -1 9v27q-1 28 0 78q0 24 0.5 54.5t1 50.5t0.5 25q0 14 14 14q4 0 7 -2q4 7 12 7q43 0 106 2q-2 32 -2 129q0 3 1 5
q-7 4 -7 13q0 5 3 8q3 6 9 8q23 5 47.5 16t57 28t47.5 24q30 14 79 31q4 6 12 6h7l38 13q14 5 18 -8q1 -3 1 -5q57 -1 203.5 -4.5t226.5 -3.5q14 0 14 -14t-14 -14q-82 0 -243 4t-240 4q-57 -20 -90 -35l-46 -23l-51 -25q154 -5 502 -5q6 0 10 -4l66 38l71 41q11 7 19 -5
q5 -8 -1 -16q7 -4 7 -12v-615q0 -5 -3 -9q0 -4 -3 -7q3 -4 3 -8zM783 -91l-1 1l-1 1h-1q2 -1 3 -2zM886 -22q6 -3 7 -12q2 -1 3 -3q4 -5 7 -8q2 4 3 11q4 14 5 36q-10 -10 -25 -24z" />
    <glyph glyph-name="semicolon" unicode=";" horiz-adv-x="960" 
d="M614 538h2q2 1 6 4q6 3 9 4q31 10 70 11.5t71 -9.5q53 -22 77 -90q22 -64 4 -119q-25 -81 -129 -130q-90 -41 -220 -52q-120 -10 -234.5 8.5t-170.5 59.5q-35 25 -55.5 64t-21.5 81q-1 44 20.5 81.5t65.5 57.5q58 26 150 27q7 39 34 72t65 54q44 24 91 27t90 -20
q37 -22 59 -81q3 -8 13 -38q3 -8 4 -12zM256 508q-85 -1 -136 -25q-36 -16 -53.5 -46t-16.5 -66t18.5 -69t46.5 -55q51 -36 161 -54q108 -18 226 -8q125 10 210 50q93 43 115 112q14 47 -5 101q-19 57 -60 74q-25 9 -60 7.5t-63 -9.5l-2 -2q-6 -3 -9 -5q-19 -9 -31 2
q-5 3 -8 12q-2 5 -6 14q-9 30 -12 37q-19 50 -47 67q-34 19 -74.5 16.5t-79.5 -24.5q-33 -18 -55.5 -45.5t-28.5 -59.5q4 -4 4 -10q0 -7 -6 -11q0 -6 -4 -10t-10 -4q-11 0 -14 11zM295 73q-3 -7 -41 -102q-25 -63 -45 -103q-7 -13 -19.5 -6.5t-6.5 18.5q20 39 45 101
q34 88 41 104q6 12 18.5 6.5t7.5 -18.5zM458 75q-53 -132 -77 -225q-2 -5 -7 -8t-10.5 -1.5t-8.5 6.5t-2 11q25 93 79 227q5 13 18 8t8 -18zM619 85q-19 -41 -42 -111q-36 -112 -38 -116q-4 -13 -17.5 -8.5t-8.5 18.5l37 114q23 71 43 115q6 13 19 7t7 -19zM134 129
q-19 -80 -86 -214q-7 -13 -19.5 -6.5t-6.5 18.5q66 132 84 208q2 6 7 9t10.5 1.5t8.5 -6.5t2 -10zM774 124q-7 -31 -38 -136l-24 -80q-13 -39 -19 -48q-8 -11 -19.5 -3.5t-4.5 19.5q4 6 16 41l25 79q29 100 36 134q2 6 6.5 9t10.5 1.5t9 -6t2 -10.5z" />
    <glyph glyph-name="less" unicode="&#x3c;" horiz-adv-x="992" 
d="M324 483q-50 -22 -94 -71t-68 -109q-32 -80 -14 -144q20 -72 99 -103q68 -27 136 -15q56 10 118 61q50 41 74 88t23 89.5t-22 81.5q-31 59 -99 93.5t-153 28.5zM392 509q70 -9 125 -45.5t84 -89.5q24 -45 25 -94.5t-26 -102t-81 -97.5q-68 -56 -132 -67q-75 -13 -150 17
q-92 36 -116 121q-20 73 15 163q33 83 100.5 144.5t140.5 66.5q6 0 10.5 -3.5t4.5 -9.5v-3zM360 766q3 -33 3 -81q0 -12 -0.5 -39t-0.5 -41t-14 -14t-14 14t0.5 41t0.5 39q0 47 -3 79q0 5 3.5 9.5t9 5t10 -3t5.5 -9.5zM389 -49q1 -26 -2 -79q-3 -55 -3 -76q0 -14 -14 -14
t-14 14q0 21 3 78q3 53 2 75q0 6 4 10.5t9.5 4.5t10 -4t4.5 -9zM700 304q153 0 177 1q6 0 10.5 -4t4.5 -9.5t-4 -10t-9 -4.5q-26 -1 -179 -1q-14 0 -14 14t14 14zM-113 285q65 -5 155 1q6 0 10.5 -3.5t4.5 -9.5t-3.5 -10.5t-9.5 -4.5q-92 -7 -159 -1q-6 1 -9.5 5t-3 10
t4.5 9.5t10 3.5zM38 586q25 -15 62 -46q44 -37 58 -46q11 -8 3.5 -19.5t-19.5 -4.5q-18 13 -60 48q-35 30 -58 44q-12 7 -5 19t19 5zM604 482l31 32l35 38l30 33q9 10 19.5 0.5t0.5 -20.5q-11 -11 -30 -32l-35 -39l-31 -32q-10 -10 -20 0t0 20zM147 -9q-41 -46 -85 -81
q-11 -9 -20 2t2 20q43 34 83 77q9 11 19.5 1.5t0.5 -19.5zM605 81q17 -10 35 -25.5t37.5 -35t29.5 -27.5q11 -9 2 -20t-20 -2l-41 40q-35 34 -57 46q-12 7 -5 19t19 5z" />
    <glyph glyph-name="equal" unicode="=" horiz-adv-x="926" 
d="M618 620q2 0 5 2q13 7 18 8q62 11 105 -4q53 -20 70 -79q17 -66 4 -104q-25 -72 -120 -115q-83 -37 -200 -46q-110 -8 -211.5 12t-149.5 64q-34 30 -46.5 73t1.5 87q15 43 57 68q52 31 146 32q8 33 31 62q24 29 56 48q38 23 78 26q41 3 82 -21q20 -14 49 -70
q14 -27 18 -33q4 -7 7 -10zM294 590q-85 -2 -129 -28q-32 -19 -44 -53.5t-2 -70t38 -60.5q43 -38 139 -57q95 -19 202 -11q113 8 190 43q85 39 106 100q10 29 -6 86q-12 46 -52 61q-35 12 -89 2q-2 0 -12 -5q-13 -7 -24 -5q-7 2 -14 10q-5 5 -10 13q-4 8 -19 35
q-26 50 -40 59q-30 19 -63.5 17t-66.5 -22q-28 -17 -47.5 -41.5t-26.5 -51.5q2 -3 2 -7q0 -7 -5 -11q0 -6 -4.5 -9.5t-10.5 -3.5q-10 1 -12 10zM172 143q-3 1 -3 -1zM229 139l-18 -9q-18 -9 -27 -12q-8 -3 -13 -4q-13 -1 -19 10q-5 11 5 22l3 4q14 28 42 111q4 14 17.5 9.5
t8.5 -17.5q-25 -77 -36 -101l7 3q22 11 27 14q8 3 12 4q10 3 17 -1q12 -7 7 -22q0 -2 -2 -6q0 -2 -1 -2q-10 -34 -43 -85q-40 -61 -47 -77q-7 -13 -19.5 -6.5t-6.5 18.5q9 17 50 80q26 40 36 67zM469 239q-13 -21 -34 -61l-27 -50l-29 -52l-7 -14l8 4l31 10q28 10 38 20l1 1
q4 3 5 3q5 3 9 3q12 2 17 -10q2 -4 1 -9q0 -2 -1 -4q-2 -4 -4 -9q-4 -9 -13 -24l-41 -69l-74 -114q-8 -11 -19.5 -3.5t-4.5 19.5q25 35 74 113l41 68l1 1l-49 -21l-30 -14q-7 -2 -11 -4q-2 -1 -4 -1h-4q-6 0 -10 5q-3 2 -3.5 5t-0.5 5v2q0 1 1 3l2 4q2 4 5 11l17 32l30 53
q6 10 27 50.5t34 60.5q8 12 19.5 4.5t4.5 -18.5zM691 263q-8 -24 -27 -61l-21 -42q6 4 10 6q12 6 21 5q14 -3 15 -20q0 -7 -3 -19q-6 -16 -20 -45q-11 -22 -48 -86q-7 -12 -19 -5t-5 19q36 63 47 85q11 21 16 35l-5 -3q-11 -7 -17 -10q-15 -6 -25 2q-8 6 -7 15q0 5 3 9
q1 2 3 5l1 2q3 7 29 59q18 36 26 59q5 13 18 8t8 -18z" />
    <glyph glyph-name="greater" unicode="&#x3e;" horiz-adv-x="740" 
d="M485 641q-110 0 -191 -75.5t-106 -183.5q-14 -51 -9 -102t24.5 -94t61.5 -76q42 -34 101 -49q96 -25 210 9q-14 4 -16 5q-75 27 -115 83q-51 69 -61 160t18.5 177t87.5 147q-3 -1 -5 -1zM500 671l14 -2q2 0 5 -2q9 3 15 -4q9 -11 -2 -20q-63 -53 -95.5 -136.5t-25.5 -174
t56 -158.5q36 -49 103 -73l32 -9l20 -6q4 -2 7 -3q1 0 2 -1q2 -1 3 -1l3 -3q5 -6 2 -13q-4 -16 -25 -17h-8h-4h-3q-132 -43 -241 -15q-52 14 -93 41.5t-64.5 62.5t-37.5 77t-13 85.5t10 88.5q13 55 42 105t70 89.5t96.5 63t116.5 23.5q2 0 5 -1q4 4 10 3z" />
    <glyph glyph-name="question" unicode="?" horiz-adv-x="687" 
d="M544 432q-86 7 -149 -3l-4 -1l-12 -2q-8 -2 -13 -2h-7q-8 1 -12 7q-3 5 -2 11q0 2 1 5q1 4 4 10q4 10 14 28q18 32 48 80l14 24l-169 -168q-1 -1 -9 -8l-20 -19l-22 -21l-29 -27h3q23 1 65 6q25 4 66 10l21 4q5 0 7 1h3h2h3q6 -2 9 -8q5 -12 -6 -23q-3 -3 -4 -3v-1
q-77 -120 -132 -231q20 24 35 40l217 214l56 55zM314 334q-40 -6 -65 -9q-43 -6 -68 -7q-15 -1 -24 0q-7 1 -11 4q-9 4 -10 14q0 4 2 8q1 2 2 3q1 2 3 4q4 5 11 12l32 30l22 21l20 18q8 7 9 9l133 132l158 160q9 10 19.5 0.5t0.5 -20.5l-18 -18q0 -2 -1 -3q-27 -33 -94 -141
q-29 -48 -46 -80l-10 -17l5 1l4 1h1q1 1 2 1q72 11 168 2h3h5q14 0 19 -11q2 -5 1 -9q-1 -2 -1 -3l-2 -2q0 -1 -1 -2l-3 -3l-9 -10l-29 -29l-56 -55l-217 -214q-19 -19 -54.5 -63t-56.5 -65l-2 -1q0 -1 -1 -1q-2 -2 -6 -2q-7 -2 -12 4q-4 4 -4 10q0 3 2 5q0 1 0.5 2t3.5 4
q4 7 5 8q9 17 24.5 49.5t19.5 41.5q54 107 126 221z" />
    <glyph glyph-name="at" unicode="@" horiz-adv-x="894" 
d="M305 165q-8 -1 -13 5q0 1 -1 2q-38 -1 -127.5 -3t-137.5 -2v-11v-24q0 -14 2 -22q0 -3 1 -5h4q10 0 29 -1h89h65h53h30q3 0 5 -1q0 46 1 62zM413 262q-25 -3 -72 -3q-105 -1 -123 -3q-4 0 -47 1q-25 0 -37 -6q-24 -11 -90 -56q43 0 130.5 2.5t132.5 2.5q39 31 77 49z
M490 345q2 2 5 4q47 23 117 77q68 54 102 98q18 23 20 36q1 4 0 6t-6 4q-15 6 -54 0q-46 -7 -119 -29q-93 -30 -231 -114q-133 -81 -159 -95l126 7q78 4 134 6q29 0 46 1h14q3 -1 4 -1h1zM755 536q-6 -13 -19 -29q-35 -46 -106 -101.5t-121 -81.5q3 -8 5 -21q3 -24 4 -59
q0 -33 -2 -60q-1 -9 -2 -17q126 84 187 157q92 111 54 212zM631 537q5 0 9 -3q11 -9 2 -20q-15 -19 -33 -26q-19 -9 -31 -1q-10 7 -8 18q1 8 8 15q11 12 37 22q10 4 16 -5zM334 168q-2 -17 -2 -50l110 72q1 6 3 20t2 19q1 11 1 19l-11 -5l-41 -20q-28 -13 -56 -33v-4
q0 -8 -7 -12q1 -3 1 -6zM84 322q28 12 61 30l49 28q17 10 62.5 38.5t52.5 32.5q139 85 238 116q77 24 123 31q47 7 69 -2q13 -6 19 -17q3 -4 4 -9q9 0 13 -8q57 -124 -52 -256q-67 -80 -212 -175q-10 -6 -18 3q-14 -7 -40 -8q-10 -1 -28 -1h-21q-4 0 -8 2q-49 -31 -84 -57
q-11 -9 -19 3q-1 1 -2 3h-140h-89q-19 1 -30 1q-5 0 -9 1h-3h-2q-3 1 -6 3q-8 7 -12 24q-2 10 -2 26v26v17q0 7 5 12q-7 11 4 19l35 23l39 26q-5 15 -6 29q-1 12 2 22q-4 11 7 17zM46 153q144 0 207 4q6 0 10.5 -3.5t4.5 -9.5t-3.5 -10.5t-9.5 -4.5q-65 -4 -209 -4
q-14 0 -14 14t14 14z" />
    <glyph glyph-name="A" unicode="A" horiz-adv-x="902" 
d="M674 485h-1q-70 0 -208.5 1t-208.5 1q-19 0 -59 -1.5t-62 -1.5t-62 3q9 -100 7 -248q0 -23 -2.5 -116.5t-2.5 -143.5v-1q23 -1 60 0q64 1 87 0q69 -3 142 -3q76 0 168.5 1.5t142.5 1.5h3q-3 17 -3 36v44v35q-1 55 1 195.5t-2 196.5zM764 494q-5 -1 -28 -4q-19 -3 -32 -3
q3 -56 1.5 -197t-0.5 -197v-53q0 -47 2 -52q14 8 51 22q-1 185 3 251q1 13 3.5 53.5t3.5 60t0.5 51t-3.5 56.5q-1 2 -1 5v7zM221 406q11 -1 13 -11q2 3 3 7q1 7 -2 9q-4 1 -14 -5zM483 414q-1 1 -5 2q-10 3 -24 0q-2 -9 0 -16q4 9 14 9q6 0 11 -5q4 7 4 10zM452 363l-6 2
q-26 14 -23 51q0 1 -1 2q-7 13 6 20q28 16 58 7q20 -6 25 -22q6 -16 -9 -37q-8 -13 -20 -20q-6 -86 -44 -138q-26 -38 -65 -48t-95 13q-51 24 -67 65q-15 38 -8 111q-5 3 -10 8q-9 4 -8 15l3 20q2 9 10 12q2 4 6 7q30 19 49 4q17 -13 13 -38q-3 -24 -23 -33q-5 -2 -11 -3
q-5 -62 7 -93q11 -29 51 -47q80 -37 124 24q31 43 38 118zM683 517q18 -2 49 3q22 3 27 3v3h-4q-25 4 -53.5 4t-67 -1t-56.5 -1h-52h-57h-51q-36 0 -57 -1t-51 -2t-56 -3l-53 -4q-9 -1 -20 -3q55 2 75 2q70 0 208.5 -1t208.5 -1h1q5 2 9 2zM71 522q19 2 62 13t66 13
q107 10 379 10q16 0 55 1t69 0.5t57 -3.5q3 0 5 -2l4 2q12 2 17 -9q10 -4 9 -15l-1 -8q9 -5 9 -14t-8 -13v-1q3 -27 4 -61.5t0 -55t-3.5 -65.5t-3.5 -55q-3 -55 -3 -271q0 -15 -15 -15q-7 0 -12 6q-36 -14 -54 -25q-3 -5 -9 -6q-7 -1 -13 4q-4 -4 -10 -4q-50 0 -143 -1.5
t-169 -1.5t-143 3q-22 1 -84 0q-55 -2 -88 2q-6 1 -10 6t-3 11q1 9 10 12q0 50 2.5 143.5t2.5 116.5q2 151 -7 251q-6 1 -10 6t-3 11t6 10t11 3l16 -2q3 3 8 4z" />
    <glyph glyph-name="B" unicode="B" horiz-adv-x="892" 
d="M350 453l37 2q-1 3 -1 6q3 53 3 116q0 40 -1 66q-3 28 -6 35q-7 12 -25 8q-6 -1 -11 -4q-4 -2 -5 -4q-4 -10 -4 -40q-1 -27 2 -68q2 -26 6 -67.5t5 -49.5zM759 393q3 38 3 46q-117 0 -345 -12q-2 -27 -11 -44v-1h7q1 1 3 1h6q215 11 332 11q2 0 5 -1zM46 368q3 1 6 1
q110 0 286 9q-1 3 -3 5q-9 16 -14 39q-163 -8 -272 -8h-3v-46zM120 303q-2 20 -5 37q-22 -1 -43 -1l18 -38q6 5 13 4q8 -1 17 -2zM209 306v36l-64 -2q3 -17 5 -37q12 0 59 3zM300 307q1 26 1 39q-33 -1 -62 -3v-36q18 1 54 1zM409 311l-4 41h-1l-73 -4q0 -13 -1 -41
q15 0 28 1q24 1 51 3zM564 323q52 3 93 4q-1 23 -1 36q-42 -1 -90 -3v-4zM533 320q2 19 3 38l-101 -5l4 -40l79 6zM687 299v-40q27 63 43 105q-22 0 -44 -1q0 -11 1 -38q7 -4 7 -13q0 -8 -7 -13zM123 273q-10 1 -19 2l23 -44zM208 230v46q-41 -3 -55 -3l4 -46q19 0 51 3z
M297 234q0 19 1 43l-6 1q-36 0 -54 -1v-46q5 1 9 1zM416 238l-4 43q-28 -2 -52 -3q-14 -1 -32 -1q-1 -24 -1 -42q34 1 89 3zM531 241q0 25 1 49l-12 -1l-78 -6l4 -44q53 1 85 2zM656 247q1 21 1 50q-41 -1 -95 -5q-1 -25 -1 -50q51 2 94 5h1zM209 153q-1 21 -1 46
q-30 -1 -48 -2q-1 -7 -8 -11l22 -35q3 2 7 2h28zM298 155q-2 21 -1 49q-26 -1 -48 -2q-5 0 -11 -1q0 -26 1 -48q28 1 59 2zM419 160q0 23 -2 48q-56 -1 -90 -3q-1 -28 1 -49q42 1 91 4zM563 167l81 5h5l11 25q-8 5 -7 14q1 3 1 6q-42 -3 -93 -5zM533 166l-2 45
q-31 -1 -84 -2q2 -25 2 -48zM565 137q1 -14 3 -28q31 1 57 3l11 29zM535 136q-49 -3 -85 -5v-11q0 -7 -4 -11v-4q23 1 88 3h4q-2 13 -3 28zM420 130q-48 -3 -89 -4q2 -17 6 -28q10 1 30 2.5t36 2.5l14 1q-1 3 -1 6q0 6 4 10v10zM300 125l-60 -2q1 -14 3 -27q28 -1 63 0
q-3 12 -6 29zM210 123h-16l18 -25zM762 366q-17 -49 -55 -136q-41 -93 -56 -133q-1 -4 -4 -6q-3 -7 -11 -8q-33 -3 -102 -5q-80 -2 -99 -3q-23 -1 -68 -5q-49 -3 -70.5 -4t-70.5 0q-1 -2 -3 -3q-12 -10 -21 1l-4 5h-4q-6 1 -10 6t-3 11q0 1 1 3q-67 88 -140 243q-1 2 -1 5
q-4 -4 -10 -4q-15 0 -15 15v75q0 15 15 15q3 0 5 -1q5 7 13 7q108 0 270 8v1q0 7 -4 48t-6 66q-3 43 -2 71q0 36 6 52q5 11 19 19q8 4 19 7q16 3 32.5 -2.5t24.5 -21.5q7 -12 9 -47q2 -27 2 -68q0 -64 -3 -118v-2q236 12 357 12q11 0 14 -10q5 -4 5 -11q0 -10 -0.5 -21.5
t-2 -25t-1.5 -21.5q0 -6 -5 -10t-11 -4q-4 0 -7 2q-1 -1 -3 -1v-1z" />
    <glyph glyph-name="C" unicode="C" horiz-adv-x="916" 
d="M-15 444q5 30 25 48q21 18 59 23q27 3 44 2.5t44.5 -2t37.5 -1.5q17 0 63 2l116 5q58 3 120 4q122 3 176 2q40 -2 64 -5q30 -3 41 -10q39 -26 41 -108q2 -83 -4 -208q-4 -76 -11 -123q-4 -27 -9 -44q-6 -22 -16 -30q-11 -8 -40 -13q-24 -4 -63 -6q-62 -3 -173 -1
q-37 0 -102.5 1.5t-79.5 2.5q-92 1 -120 -1q-49 -4 -98 -2q-34 1 -56 6q-31 6 -42 20q-15 20 -22 82q-6 52 -8 126q-2 123 4 217q1 9 9 13zM375 217q55 2 116 5q30 1 145 1q87 0 141 7q3 0 6 -1q5 110 3 175q-2 66 -27 82q-6 4 -28 7q-23 3 -62 4q-52 1 -174 -2
q-64 -1 -121 -4l-116 -5q-46 -2 -63 -2q-6 0 -60.5 3t-61.5 -1q-29 -4 -43 -17q-16 -14 -16 -42q0 -10 -9 -14q-5 -96 -3 -198v-4q122 0 373 6zM764 141q-3 -2 -7 -2q-40 0 -84 -1q-17 -1 -36 -1q-86 -3 -258 -12q-287 -15 -372 -15l2 -18q7 -55 17 -68q4 -5 23.5 -9
t51.5 -5q47 -2 95 2q29 2 123 1q14 -1 79.5 -2.5t101.5 -1.5q111 -2 172 1q37 2 59 6q22 3 27 7q2 1 5 14q5 15 8 40q4 27 7 64q-3 -2 -7 -2t-7 2zM646 420q-7 3 -17 5q-14 2 -29 -1v-17q33 5 46 13zM654 336q-3 1 -7 2q-9 3 -22 5h-4q-3 -1 -8 -1.5t-7 -0.5h-6v-12
q4 0 13 -0.5t13 -0.5q19 1 25 5q2 1 3 3zM532 335l2 -2q8 -8 10 -16q1 -6 -1 -11q3 -7 -2 -14q-2 -8 -10 -10q-31 -10 -56 -10q-8 -1 -13 -1q-6 0 -10 4q-16 3 -29 11q-39 23 -40 69q0 45 37 77.5t98 26.5q5 -1 9 -3q10 -3 11 -13q3 -29 -12 -46q-11 -11 -33 -17
q-4 -1 -15 -4q-9 -2 -13 -3l-8 -4q-1 -3 0 -4v-1h3h4q7 -1 14 -3q6 -1 10 -2q25 -4 36 -15q5 -4 8 -9zM576 464q45 8 73 4q23 -3 37 -14q18 -14 18 -39q0 -12 -2 -20q-4 -16 -17 -23l-4 -2q22 -18 19 -48q-4 -37 -57 -46q-19 -3 -67 -3q-6 0 -10 4q-9 4 -8 15q3 24 4 70
q1 21 1 30q-2 32 -2 52q0 6 4 10q3 8 11 10z" />
    <glyph glyph-name="D" unicode="D" horiz-adv-x="766" 
d="M613 211h5q0 -1 1 -1v1l-35 70q-9 20 -28.5 66.5t-27.5 84.5t-8 73q-25 -37 -31 -86.5t9 -93.5q13 -44 43 -74.5t72 -39.5zM486 507q4 8 9 16q-57 35 -119.5 36.5t-115.5 -24.5t-97 -73q-46 -50 -70.5 -112.5t-19.5 -131.5q5 -68 44 -128q41 -63 107 -94
q67 -30 135.5 -26t133.5 39.5t104 97.5q26 40 34 71q-3 0 -6 1q-16 -47 -52 -86t-82 -61q-81 -38 -144 -38q-152 0 -213 106q-26 46 -30 104.5t13 112.5q16 57 50 105.5t81 77.5q108 69 235 9q1 -1 3 -2zM550 515q-2 -33 5 -69t25.5 -81t29.5 -68l35 -72l2 -4q2 1 5 1
q6 0 10 -5t4 -11q-3 -52 -43 -115q-43 -68 -114.5 -107t-147 -44t-149.5 29t-121 105q-43 65 -48 142t21.5 144.5t76.5 121.5q51 55 114 84t138.5 22t143.5 -57q6 -1 9.5 -5.5t3.5 -10.5zM469 481q-111 54 -205 -6q-42 -26 -72 -70q-31 -44 -46 -96q-33 -112 14 -194
q52 -91 187 -91q55 0 132 36q39 18 71 52q31 33 45 72q-46 14 -78.5 49t-47.5 83q-26 85 4 164q-2 1 -4 1z" />
    <glyph glyph-name="E" unicode="E" horiz-adv-x="829" 
d="M464 458q-20 17 -34 20q-6 2 -16 -1q-22 -55 -24 -111q-2 -35 7 -57q6 -9 13 -16t14 -11q6 -1 13 -2q5 -1 9 -1q5 1 11 3q22 8 39 44l2 4q7 46 -15 96q-9 18 -19 32zM416 515q22 1 43 -13q14 -9 26 -23q9 -8 17 -17q35 -39 38 -71q3 -31 -13 -69q-5 -28 -20 -46
q-22 -27 -59 -27q-18 -2 -34 5q-26 9 -40 34q-3 -25 -18 -42q-18 -20 -47 -22t-62 15q-2 1 -4 3q-10 5 -8 16q2 6 7 9.5t11 2.5q60 -12 76 16q17 29 -16 83q-5 9 -10 14q-10 1 -34 -15q-15 -9 -22 -12q-1 -1 -3 -2q-18 -11 -35 -5q-5 1 -8 6q-1 1 -1 3l-2 4q0 2 -1 7
q-1 6 -3 20q-5 38 -6 41q-1 6 2.5 11.5t9.5 6.5q35 16 91 37q5 2 11 -0.5t8 -8t-0.5 -11.5t-8.5 -8q-47 -18 -76 -31q1 -22 4 -34q2 -6 4 -9l10 10q10 9 14 12q21 17 39 14q11 -1 21 -8q13 -4 24 -17q-2 25 2 47q7 50 37 65q10 5 19 7q8 7 17 2zM576 444q-4 -2 -8 -2
q-15 0 -15 15q0 39 18 59.5t43 14.5q24 -6 33 -29.5t-5 -53.5q-11 -22 -30 -24q-18 -2 -32 14zM699 344h-1q-12 -1 -22 -21q3 -5 7 -7q2 -1 3 0q5 2 9 11q6 12 4 17zM661 354q16 19 35 20q23 1 31 -19q7 -16 -4 -40q-10 -20 -24 -27q-16 -6 -31 2q-5 3 -9 6h-7q-6 2 -9 7.5
t-2 11.5q2 4 3 8q-2 9 -2 18q0 6 4.5 10t11.5 4q2 0 3 -1zM464 588q-1 2 -1 4q-1 6 3 11t10 6q14 1 23 -3q14 -7 12 -21q-2 -16 -20 -16q-10 1 -21 9q-5 4 -6 10zM421 92q-5 8 1 15q11 17 12 18l8 11q6 7 11 9q30 17 49 -5q15 -16 13 -45q-2 -28 -19 -45q-21 -22 -53 -15
q-21 5 -26 20q-1 4 -2 12q0 7 -1 10q-1 9 7 15zM591 120q-1 0 -7 -1q4 0 7 1zM593 1q-10 -2 -16 7q-8 12 5 21q10 6 17 9q9 4 17 2t11 -10q1 -5 0 -10t-4 -10q-2 -3 -5 -7q-1 -1 -2.5 -2t-2.5 -2q-4 -3 -8 -3q-7 0 -12 5zM30 251q13 7 55 33q37 23 59 32q6 2 12 -0.5t8 -8
t0 -11.5q2 -1 3 -4q7 -13 -6 -20l-27 -17q-20 -12 -31 -18q-39 -23 -65 -28q-6 -1 -11.5 2.5t-6.5 9.5q-1 7 3 12q-5 12 7 18zM596 499q-9 -24 7 -41q4 -4 6 -4q3 0 7 8q7 19 3.5 28.5t-12.5 11.5q-6 1 -11 -3zM725 523q-29 -51 -63 -128l-58 -132q-7 -14 -20.5 -7.5
t-7.5 19.5l58 132q36 79 65 130q7 13 20 6t6 -20zM47 616q43 -12 94 -24q6 -2 9 -7t1.5 -11.5t-6.5 -9.5t-12 -2q-51 13 -94 26q-6 1 -9 6.5t-1.5 11.5t7 9t11.5 1zM178 645q16 12 29 16q13 5 24 0q13 -5 18 -22q3 -13 -7 -33q-6 -12 -18 -30l-10 -14l17 5l28 10q18 7 20 8
q6 2 11 0q-2 8 -1 18q-4 0 -8 2q-13 8 -5 21q15 22 36 31t40 2q20 -8 26 -29q5 -21 -8 -47q-10 -20 -27.5 -27.5t-33.5 2.5q-6 4 -10 9q-2 -8 -10 -10q-2 -1 -19 -8q-18 -7 -30 -10q-19 -7 -32 -8q-21 -2 -31 8q-6 6 -5 14q1 2 2 5q1 1 2 4q2 2 6 8q13 18 17 24q11 15 16 25
l4 12v3q-1 -1 -3 -1q-8 -3 -20 -12t-21 3t3 21zM323 615q-10 -24 2 -32q9 -5 19 14q8 15 5 25q-2 7 -8 9q-8 3 -19 -2q4 -7 1 -14zM504 682q-10 -20 -21 -37.5t-32 -44.5l-24 -32q-9 -12 -21 -3t-3 21l31 41q-3 -1 -5 -1q-22 -3 -31 26q-3 8 0 18q1 2 1.5 4t0.5 3
q3 13 16 12q4 6 11 7q12 4 21.5 -1.5t11.5 -16.5q1 -6 0 -14q9 15 16 30q7 14 20.5 7.5t7.5 -19.5zM273 173q30 -22 67 -37q5 -2 7.5 -8t0.5 -11.5t-8 -8t-12 -0.5q-38 16 -73 41q-12 9 -3 21t21 3zM419 162q-4 -20 -17 -58l-18 -54q-1 -6 -6.5 -9t-11.5 -1.5t-9 7t-1 11.5
q2 10 18 56q11 33 15 54q2 6 7 9.5t11 2t9.5 -6.5t2.5 -11zM444 81q0 -4 1 -12v-3q2 -1 4 -1q16 -4 25.5 5.5t10.5 26.5q1 16 -5 23q-4 4 -13 -1l-2 -3q-3 -3 -7 -8q-1 -1 -12 -17q-1 -3 -4 -5q1 -2 2 -5zM661 95q-24 -13 -61.5 -44t-48.5 -39q-12 -9 -21 3t3 21l35 28
q24 19 34 28q-8 -3 -18 -3h-4h-6q-12 1 -18.5 8.5t-4.5 19.5q0 4 1 6v1q0 5 3 9q1 10 11 13q18 7 35.5 2t22.5 -20q4 -12 -2 -22q13 9 25 15q13 7 20 -6t-6 -20z" />
    <glyph glyph-name="F" unicode="F" horiz-adv-x="899" 
d="M721 391q0 -9 -8 -13l-34 -17q-3 -9 -12 -10q-6 -1 -11 3t-6 10q-4 30 -9 88q-5 61 -7 75q-26 -13 -49 -21q2 -42 10.5 -182t8.5 -216v-1q27 17 70 57q64 59 91 78q-1 14 -3 36q-5 50 -6 65q-2 36 -2 76.5t1 90t1 76.5v2q-17 -7 -38 -17q4 -88 4 -175q0 -3 -1 -5z
M141 532q-23 -2 -42 -3l-37 -20q73 1 221 10q181 11 242 11q4 0 8 -2q2 0 23 2h4q27 8 59 23q-83 0 -248 -10q-168 -10 -230 -11zM636 594h31q9 0 13 -8h3l58 29q-327 -11 -528 -24q-1 -8 -9 -12q32 0 67 1h4q24 2 347 21q9 1 14 -7zM68 271q18 18 38 34t50 38l40 29l-8 12
q-4 5 -5 7.5t-4 7.5l-2 5q-88 -65 -121 -104zM189 620q212 13 566 25q6 0 10.5 -4t4.5 -11q0 -2 -1 -4q14 3 18 -10q4 -12 -7 -18q6 -5 6 -12q0 -27 -1 -76t-1 -89.5t2 -75.5q0 -3 6 -64q2 -21 3 -35l2 -2q5 -9 -1 -17v-12q0 -15 -15 -15q-8 0 -13 7q-19 -15 -74 -65
q-65 -59 -107 -79q-10 -5 -18 4q-44 -7 -99 -10t-82.5 -3t-104.5 1.5t-88 1.5q-17 0 -50 -0.5t-61 -0.5t-52 3q-6 1 -10 6t-3 11q1 9 10 12q-3 51 -9 189t-11 213q-3 2 -5 5q-7 13 6 20l51 28q0 15 15 15h15q48 25 85 42q-1 2 -1 4q0 6 4 11t10 5zM201 425l6 -14l3 -5
q0 -1 3 -5l9 -14q3 -5 2 -11v-1q9 -12 -3 -21q-15 -12 -45.5 -34t-52 -39.5t-39.5 -36.5q-6 -7 -15 -4q-2 -1 -3 -2q-7 -3 -14 1q4 -96 8 -152q14 -2 66.5 -1t68.5 1q22 0 75.5 -1.5t81.5 -1.5t71.5 1t80.5 4.5t73 9.5q-3 4 -3 9q0 75 -8.5 214t-10.5 176q-2 0 -4 1
q-12 -1 -30 -1q-4 0 -7 2q-77 0 -229 -10q-167 -11 -242 -11h-4q5 -60 9 -144q30 32 127 104q12 9 21 -3q3 -4 3 -8q1 -1 2 -3z" />
    <glyph glyph-name="G" unicode="G" horiz-adv-x="1025" 
d="M409 238q-1 12 -1 23q-13 -7 -32 -14q-49 -17 -131 -12q-51 3 -76 14v-12q38 -24 104 -22q48 2 129 23h7zM503 495q-69 46 -147 118l-55 -31l-62 -36q-23 -12 -58.5 -25.5t-67.5 -18.5q32 -47 71.5 -81.5t94.5 -66.5q4 -2 6 -5h23q-1 7 5 12q43 41 61.5 57t51.5 37t77 40
zM619 430q-1 -5 -6 -8q-52 -34 -88.5 -66.5t-67.5 -76.5q40 -28 126 -60q36 -13 48 -17q29 -8 44 -7q11 1 35 24q21 19 53 57l33 42l38 46l-58 15q-56 14 -83 23q-38 12 -74 28zM83 440l52 -38q44 -31 80 -44q12 -4 10 -17q6 2 13 3q-76 47 -123 106q-17 -8 -32 -10zM66 398
q3 -3 16 -12t17 -12l15 -10q12 -7 18 -10t16 -8.5t19 -9.5t19 -8h1q5 2 11 4v1q-34 12 -80 45l-35 25q-3 -2 -6 -3zM893 264q-5 0 -11 1q-6 0 -19 1h-6h-2q-20 -32 -49.5 -61t-52.5 -46.5t-63 -44.5q-10 -8 -18 1q-9 1 -11 7h-1q-30 6 -61.5 17.5t-52 21t-54.5 27.5l-51 26
l1 -18q18 -8 42 -26q27 -21 36 -27q40 -22 168 -77l1 -1q49 29 97.5 72.5t75.5 86.5q4 6 11 7q13 19 19 31zM341 317q-48 3 -75 1q-29 -2 -58 -14q-26 -10 -34 -21l-2 -2q1 -1 3 -2q18 -11 72 -14q76 -5 119 10q32 11 38 20l1 1q-1 1 -3 2q-16 14 -59 19h-2zM185 135
q35 -30 104 -24q63 6 113 34q6 4 13 1q-1 15 -2 35q0 3 -2 28q-1 0 -1 -1q-85 -21 -136 -23q-61 -2 -103 17q0 -6 1 -13q26 -32 98 -28q59 3 117 25q5 2 11 -0.5t8 -8t-0.5 -11.5t-8.5 -8q-62 -24 -125 -27q-60 -3 -97 17l1 -9q5 0 9 -4zM183 78q24 -15 49.5 -19.5t56.5 2
t51 13t57 21.5q8 2 12 4q2 1 5 1q1 9 1 18q-55 -31 -123 -37q-69 -5 -113 21l2 -23q1 -1 2 -1zM125 205q-13 -4 -39.5 -21.5t-49.5 -39.5q-26 -25 -36 -46q-10 -19 -2 -30q6 -9 23 -9q18 0 45 10q24 10 46 24t31 23q2 2 5 4q0 1 -4 41q-3 31 -4 48l-6 -2q-3 -1 -6 -1
q-1 -1 -3 -1zM46 468q27 -2 50 6q-9 12 -16 25h-6q-15 0 -15 15t15 15q35 0 73.5 12t61.5 23.5t69.5 39t64.5 36.5q1 2 2 3q10 11 21 1q84 -78 164 -131t173 -83q25 -8 80 -22q52 -13 74 -20l1 1q12 10 21.5 -1.5t-1.5 -20.5l-4 -4q-2 -3 -5 -5q-7 -7 -17 -18l8 2
q6 2 11.5 -1t7.5 -8q1 -3 1 -5q11 -8 4 -20l-9 -13h9q12 -1 19 -2h7q2 -1 3.5 -1.5t3.5 -0.5q4 -3 7 -8q3 -8 1 -18q-2 -7 -6 -16q-7 -15 -21 -35q-20 -28 -41 -53q-4 -4 -10 -5q-68 -75 -153 -122q-12 -7 -20 5q-127 54 -168 78q-12 7 -41 29q-12 10 -21 15q2 -41 -1 -73
q-1 -11 -12 -13q2 -1 3 -3q9 -13 -3 -21q-57 -39 -144 -42t-146 32q-3 2 -5 5q-24 -15 -49 -25q-47 -19 -79 -13q-3 1 -5 2q-11 -2 -16 8l-6 12l-1 3q-1 1 -3 4l-8 10q-5 7 -2 15q-8 22 6 50q12 25 42 53q25 24 54.5 43.5t47.5 24.5q2 1 5 1q1 1 2 1l11 4q1 3 3 5q0 1 1 1
q0 12 1 23q0 4 3 7l-1 1q-2 14 8 26l6 6q-24 10 -45 23t-49 33q-26 18 -41 27q-8 5 -7 15q-1 5 3 10t10 6q7 1 12.5 1.5t8 1t3.5 0.5l-11 7q-6 4 -7 12q-3 5 -3 10q1 6 5.5 10t10.5 4zM442 247q22 -10 70 -35.5t81.5 -39t72.5 -20.5q7 -2 10 -7q2 0 5 -2q46 33 77 59
q32 26 57 59q0 6 4 10q8 9 15 18l4 6q2 4 5 6l4 6q-3 0 -9 1q-9 2 -10 2l-42 -53q-33 -40 -55 -60q-32 -30 -54 -32q-20 -2 -55 9q-14 4 -49 17q-91 34 -135 64q0 -3 1 -7q2 -1 3 -1z" />
    <glyph glyph-name="H" unicode="H" horiz-adv-x="672" 
d="M531 350q-227 0 -410 -10q-5 -66 -7 -139q-1 -69 1 -116q1 -25 4 -40q1 -6 3 -10q0 -1 1 -2q7 -6 37 -9q28 -4 74 -4q32 0 80.5 1t52.5 1q5 0 18.5 -0.5t33.5 -2t35 -2.5q32 -1 50 -1q10 1 16 1l2 8q2 16 3 43q4 52 6 126t1 127q0 17 -1 29zM472 411l-2 25q-3 30 -6 50
q-10 55 -35 77q-36 30 -107 14q-69 -17 -101 -57q-14 -18 -16 -55q-1 -24 4 -57q59 3 124 4q84 1 139 -1zM541 402q4 69 -7.5 120t-49.5 88q-25 26 -72 36.5t-100 4.5t-95.5 -27t-60.5 -52q-37 -64 -27 -170q19 2 50 4q-5 34 -4 60q2 47 22 72q18 23 50 41t68 27
q86 20 134 -21q33 -28 45 -94q3 -21 6 -53q0 -4 1 -14t1 -15q12 -1 20 -3q10 -1 17 -3q1 0 2 -1zM99 401q-10 114 31 185q22 40 71 64t108 31q58 6 111.5 -6t85.5 -43q12 -13 22 -28t17 -27.5t12 -32t8.5 -30t4.5 -34t2 -32t0 -34.5t-1.5 -31t-2.5 -32.5t-2 -29.5
q0 -5 -4 -9q1 -49 -1 -119q-2 -76 -6 -128q-2 -27 -4 -43q-1 -9 -2 -15l-2 -6q-2 -5 -6 -8q-5 -4 -17 -6q-7 0 -19 -1q-19 0 -52 1q-15 1 -35 2.5t-33 2t-18 0.5q-4 0 -52.5 -1t-81.5 -1q-46 0 -77 4q-40 5 -54 17q-5 4 -8 13q-3 7 -4 16q-3 16 -5 43q-3 46 -1 119
q3 103 10 172q-2 2 -2 5q-3 10 5 16v1q1 2 2 5zM297 261q-21 -31 -3 -48q8 -7 19.5 -7.5t21.5 7.5q10 9 11 21.5t-7 21.5q-15 19 -42 5zM351 109l-35 66q-5 0 -10 1q-4 -21 -15 -48q-2 -2 -5 -9t-4 -10q-2 -5 -3 -7q2 -1 5 -1q19 -1 67 8zM373 82q-2 0 -3 -1
q-63 -11 -87 -10q-16 1 -24 7q-11 8 -10 23q0 7 5 19q1 4 4 11l5 9q12 27 15 48q-2 1 -4 3q-29 26 -12 68q-5 11 5 18q5 4 10 7q5 6 12 6q46 19 73 -15q15 -17 13.5 -42t-20.5 -42q-5 -4 -10 -7q39 -72 43 -80q7 -13 -6 -20q-4 -3 -9 -2zM479 380q-4 0 -8 1q-54 2 -137 1
q-72 -1 -143 -5q-39 -2 -59 -5q0 -1 -1 -2q159 9 348 10z" />
    <glyph glyph-name="I" unicode="I" horiz-adv-x="926" 
d="M625 599q4 4 10 4q35 0 54 -19q17 -18 15 -45q-1 -24 -18.5 -44.5t-43.5 -24.5q-39 -6 -60 14q-20 18 -17 48q2 23 18 42t42 25zM456 614q-41 -26 -92.5 -53t-87.5 -44l-100 -45l-92 -42q-8 -3 -26 -9l-30 -10q-35 -12 -42 -22q-3 -3 -3 -6q1 -29 45 -116l37 -71
q20 -39 28 -59q2 -4 7 -21l8 -27q6 -14 11 -21l5 -6q33 -7 109 22q61 23 160 74q64 33 155 84q98 55 125 68h1v1q25 140 108 296q2 4 7 10q-228 0 -327 4q-2 -4 -6 -7zM458 651q99 -4 337 -4q1 0 6 1q15 3 22 -8q9 -14 -4 -32q-1 -2 -7 -9q-3 -4 -4 -6q-80 -151 -104 -288
q-2 -8 -10 -11q-1 -8 -9 -12q-26 -12 -123 -66l-155 -85q-96 -50 -163 -75q-86 -32 -126 -24q-14 3 -24 19q-7 10 -14 28q-3 10 -9 28q-5 16 -6 20q-7 18 -27 55l-36 71q-48 95 -49 130q0 14 9 26q14 15 56 30l31 10q16 6 23 9l92 41l99 45q36 16 86.5 43t90.5 53q1 1 3 1
q4 10 15 10zM643 571q-20 0 -33.5 -13t-14.5 -29q-2 -15 7 -23q11 -10 36 -6q15 2 25 14t11 27q1 13 -7 22q-6 7 -19 9q-2 -1 -5 -1z" />
    <glyph glyph-name="J" unicode="J" horiz-adv-x="1029" 
d="M892 75q0 277 -11 426h-2q-90 -9 -199 -13.5t-180 -5t-200 -0.5h-41q-18 0 -60 -2t-64 -2q-69 -1 -109 8q9 -148 9 -296q0 -5 1.5 -35.5t0 -51.5t-7.5 -38q-1 -6 -6 -9q40 -4 87 -4t105.5 2t90.5 2q31 0 141.5 -1t160 -0.5t133 5.5t151.5 15zM5 58q-7 6 -4 15
q4 16 5 33.5t0 45.5t-1 38q0 163 -11 328q0 6 4 11t10 5t11 -4t5 -10v-2q37 -11 111 -10q21 0 63.5 2t60.5 2h61h64h60q48 0 64 0.5t59 1t64 1.5t59 2.5t64 3.5l60 5q32 2 63 5h1v1q0 6 4 10.5t10 5t10.5 -3.5t5.5 -10q14 -160 14 -458q6 -4 7 -11q1 -9 -7 -15v-1
q0 -15 -15 -15q-11 0 -14 11q-69 -10 -153 -15t-134.5 -5.5t-160 0.5t-139.5 1q-29 0 -93 -2.5t-114.5 -2t-94.5 6.5q-6 1 -10 6t-3 11q2 12 14 13zM802 409q0 16 1 29q-89 -9 -222 -9q-1 -11 -1 -15v-13q8 -1 23 -2q25 0 71 2q23 1 50 2.5t50.5 3.5t27.5 2zM835 449
q-3 -14 -3 -66q0 -15 -15 -15q-11 0 -14 11q-126 -8 -128 -8q-46 -3 -73 -2q-17 1 -26 2q-6 1 -11 3q-8 2 -11.5 8.5t-3.5 17.5v16q0 5 1 15q1 8 1 10q0 6 4 10.5t10 4.5q4 3 9 3q146 0 240 10q7 1 12 -4q10 -5 8 -16zM99 206q97 -5 219 -4l16 34l11 20h-45q-14 0 -46 -0.5
t-51 -0.5t-47 1q-26 2 -50 6q-6 1 -9.5 6.5t-2.5 11.5t6.5 9.5t11.5 2.5q21 -4 46.5 -5.5t44.5 -1.5t50.5 0.5t46.5 0.5q30 0 61 1q36 64 59 89q10 11 21 1t1 -21q-18 -19 -46 -69q97 3 412 24q6 0 11 -4t5 -10t-4 -11t-10 -5q-326 -22 -431 -24l-18 -35l-10 -20q42 1 95 2
q291 8 349 8q6 0 10.5 -4.5t4.5 -10.5t-4.5 -10.5t-10.5 -4.5q-57 0 -348 -8q-62 -1 -110 -2q-29 -61 -42 -97q-2 -6 -7.5 -8.5t-11.5 -0.5t-8.5 7.5t-0.5 11.5q11 33 36 87q-114 -1 -206 4q-6 0 -10 5t-4 11t5 10t11 4z" />
    <glyph glyph-name="K" unicode="K" horiz-adv-x="779" 
d="M102 477q-3 -1 -6 -3q-9 -6 -29 -20l-42 -30l110 -178l73 -112q15 -23 25 -36l5 -6l6 6q12 10 30 31q34 36 49 56q96 124 171 205q13 14 44 43q32 30 38 35q48 46 64 74l-32 25q-16 13 -27 20q-5 3 -8 5q-5 -3 -12 -10q-14 -12 -37 -35l-104 -109l-103 -109
q-23 -24 -36 -36q-8 -8 -13 -11q-3 -3 -5 -4q-5 -3 -10 -3q-7 0 -14 6q-4 2 -8 8q-7 8 -18 24q-15 20 -47 69l-45 70q-11 15 -17 22zM3 445q2 1 8.5 6t18.5 13l20 15l30 20q7 5 12 7q10 4 17 3q5 -2 11 -7q3 -3 7 -9q7 -8 19 -24l46 -71q32 -50 45 -68q10 -14 16 -21l1 -1
l7 7q12 11 35 35l102 108l105 110l38 37q9 7 15 11q8 6 14.5 7t14.5 -4q5 -2 12 -7q12 -7 30 -21q31 -24 47 -39q11 -10 1 -21q-4 -5 -10 -5q-19 -32 -69 -80q-6 -6 -37 -34q-30 -29 -43 -42q-74 -80 -169 -203q-17 -21 -51 -58q-19 -22 -32 -34q-8 -7 -14 -11q-3 -2 -7 -4
q-7 -2 -13 0q-5 2 -11 8l-10 12l-26 38l-73 112q-84 132 -117 189q-6 12 4 20q2 4 6 6z" />
    <glyph glyph-name="L" unicode="L" horiz-adv-x="763" 
d="M55 514q27 6 80 43l43 31q29 21 41 29t21 -5q4 -6 1 -13q9 1 15 -7l84 -124q29 9 83 49q12 8 42.5 32t45.5 33q2 2 4 2q-1 9 6 14q12 9 21 -3q16 -21 40 -65q25 -45 37 -63q2 -2 18.5 -24t23.5 -35t-6 -20q-5 -3 -11 -1q-20 -25 -68 -60q-22 -16 -81 -55q4 -7 19 -32
l22 -35q7 -11 20 -28t25 -31q5 -6 4 -13q0 -1 1 -2q8 -12 -5 -21q-22 -14 -76 -55q-49 -38 -80 -56q-11 -6 -20 3q-5 2 -8 6l-91 119l-85 -71q-46 -38 -79 -61q-2 -5 -6 -8q-6 -4 -12 -3q-11 -2 -17 7q-3 6 -1 12l-47 70q-34 48 -62 69q-12 9 -3 21t21 3q32 -24 69 -76
l44 -67q30 20 73 56l88 73q-1 9 6 14q11 9 21 -3l102 -133q26 16 69 48q49 38 69 51q-19 21 -36 46t-36 57l-29 47q-9 12 4 20q10 8 19 -2q58 38 80 54q50 37 67 59q-4 6 -14 18.5t-16 22.5q-13 18 -39 64q-16 29 -26 45q-1 -1 -3 -2l-43 -34l-43 -32q-53 -39 -86 -51
q1 -9 -7 -14q-13 -8 -21 5q-17 27 -50 75l-47 69q-3 5 -2 11l-76 -54q-44 -31 -71 -42q0 -1 1 -2q14 -19 58 -86q35 -53 59 -80q10 -11 -1 -21t-21 1l-5 5q6 -11 -4 -19l-150 -112q-12 -9 -21 3t3 21l150 112q9 7 18 0q-20 24 -53 74q-43 66 -57 84q-5 6 -2 13q-9 2 -12 11
q-1 6 2 11.5t9 7.5z" />
    <glyph glyph-name="M" unicode="M" horiz-adv-x="797" 
d="M443 690q-114 19 -224 -34q-110 -52 -179 -150q-46 -65 -64 -136q-17 -71 1 -148q18 -76 76 -140q82 -91 215 -101q123 -10 221 60q99 70 147 184q30 74 32 148.5t-31 145.5t-100 119q-49 35 -94 52zM456 717q47 -18 99 -55q74 -54 109 -130q36 -78 34 -159t-35 -159
q-50 -122 -157 -197.5t-240 -65.5q-144 11 -235 111q-64 71 -83 154q-20 84 -1 161t68 146q53 74 130.5 126t164.5 68q-2 4 -2 8q0 15 15 15q69 0 127 -21h1q2 -1 5 -2zM320 161q9 7 18 0q28 -22 31 -47t-17 -44q-16 -16 -42.5 -21t-52.5 5q-35 14 -40 38q-4 22 18 42
q15 13 38.5 21t46.5 6zM219 209h-1q1 -3 1 -4v4zM219 247l-1 1h-1v-2zM358 324v2l-3 -2h3zM417 358l-1 -1zM382 297h1h-1zM348 281q1 0 1 -1l6 3zM419 437v-2l3 3l-2 -1h-1zM411 531q-1 0 -2 1q1 -1 1 -2zM107 483l17 16q6 6 9 8.5t10 7.5l19 13q46 45 112 61t120 -1
q71 -20 98 -78q31 -65 -7 -155q-22 -51 -66 -74q-6 -4 -31.5 -15.5t-40.5 -21.5q1 -1 1 -3q1 -7 -4 -12q2 -15 -5 -26q-3 -4 -8 -7l-6 -3q-6 -2 -15 -4q-16 -5 -39 -8.5t-39 -5.5q-10 -1 -16 0h-6q-6 1 -10 5q-9 8 -12 28q-2 15 -1 34t4 34q5 19 13 27q19 15 54 24q9 3 29 7
q17 4 27 6q28 8 42 21q17 16 21 46t-26 48q-46 29 -119 -12q-18 -10 -52 -33q-12 -9 -18 -12q-5 -3 -9 -4q-8 -3 -15 1q-8 4 -15 16q-4 8 -8 20t-9 32q-7 11 1 20z" />
    <glyph glyph-name="N" unicode="N" horiz-adv-x="797" 
d="M443 690q-114 19 -224 -34q-110 -52 -179 -150q-46 -65 -64 -136q-17 -71 1 -148q18 -76 76 -140q82 -91 215 -101q123 -10 221 60q99 70 147 184q30 74 32 148.5t-31 145.5t-100 119q-49 35 -94 52zM456 717q47 -18 99 -55q74 -54 109 -130q36 -78 34 -159t-35 -159
q-50 -122 -157 -197.5t-240 -65.5q-144 11 -235 111q-64 71 -83 154q-20 84 -1 161t68 146q53 74 130.5 126t164.5 68q-2 4 -2 8q0 15 15 15q69 0 127 -21h1q2 -1 5 -2zM341 208q25 -9 35 -31q9 -28 0.5 -47t-29.5 -31q-20 -11 -42.5 -12t-42.5 10q-14 9 -20 22q-4 5 -7 10
q-17 30 1 55q14 20 44 27q26 6 50 0h5q3 -1 6 -3zM242 595q3 2 12 5q7 2 17 4q22 6 46 10q28 6 45 7q12 0 18 -1t9 -2q8 -4 10 -11q1 -3 1 -7v-5q0 -4 -1 -12q-2 -13 -5 -36q-8 -57 -8 -60q-1 -7 -1.5 -24t-1 -43t-0.5 -45q-2 -42 -4 -67q-2 -15 -3 -25q-3 -13 -6 -19
q-7 -12 -28 -16q-13 -3 -34 -3q-11 -1 -25 0q-3 -4 -7 -5q-11 -4 -18 6h-5q-15 0 -15 15q0 11 11 14q-8 29 -12.5 57.5t-6.5 66.5t-2.5 55.5t0 66.5t0.5 56q0 11 10 14z" />
    <glyph glyph-name="O" unicode="O" horiz-adv-x="731" 
d="M419 318q51 55 63 129q7 43 -2 84t-34 76t-71 58.5t-108 29.5q-7 1 -11 6q-50 -3 -94 -26.5t-72.5 -59t-44 -81t-14 -91t22.5 -90.5t62 -78q39 -33 83 -36q127 -10 210 69q1 6 6 9q2 1 4 1zM159 627q-1 10 7 16q40 25 84 20t83 -29.5t65 -62.5q45 -62 35 -127
q-11 -75 -91 -124q-30 -18 -71 -23t-79 4q-42 9 -73.5 33t-42.5 63q-16 63 7.5 127.5t75.5 102.5zM487 178l-66 101q-26 -23 -56 -39q31 -33 74 -99q32 17 45 34q1 2 3 3zM531 -28q-4 2 -7 6l-11 18q-6 1 -10 5q-32 34 -85 116q-51 79 -83 110q-63 -24 -138 -18
q-54 4 -101 42q-45 38 -69.5 89.5t-25.5 103.5t17 103.5t51.5 91t83.5 65t109 27.5q8 0 12 -7q68 -7 118.5 -34t78.5 -66.5t38.5 -86t2.5 -95.5q-13 -81 -69 -142l52 -80l62 -92l53 -79q2 -3 3 -6q3 -3 3 -10q2 -1 3 -1q8 -3 11 -10q3 -8 -1 -15q-3 -6 -11 -12l-14 -9
q-29 -17 -53 -26q-5 -2 -11 0.5t-8 8.5q-1 1 -1 3zM231 630q-68 -19 -106 -87t-19 -138q15 -59 92 -75q35 -7 69.5 -3t58.5 19q69 41 78 102q7 53 -30 106q-26 36 -63 57.5t-74 21.5q-2 -3 -6 -3z" />
    <glyph glyph-name="P" unicode="P" horiz-adv-x="935" 
d="M451 227q0 -4 1 -10v-5q8 -5 7 -14q-11 -147 -92 -207q-83 -60 -222 -19q-39 11 -77.5 40.5t-55.5 65.5q-32 74 -19.5 147.5t60.5 129.5q33 37 74.5 58t92.5 22q49 1 103 -26l4 -2q15 12 42 37q35 34 54 49l107 81q82 62 125 98q5 3 11 3l62 43q32 20 52 29q12 6 21 8
q16 3 25 -5q2 -3 3 -6q1 -2 1 -3q1 -2 1 -5q1 -4 2 -12q2 -13 2 -17q2 -38 -5 -64q-13 -42 -48 -51q-3 -1 -21 -3q-6 -1 -9 -2q0 -2 -1 -5q0 -4 1 -22t0 -27q-3 -20 -17 -26q-10 -4 -24 0q-7 3 -18 9q-11 5 -13 6v-1q-2 -6 -6 -26q-5 -21 -8 -30q-2 -8 -5 -13q-4 -9 -11 -12
q-10 -6 -26 -4l-22 6q-12 4 -17 5h-3q-1 -2 -2 -6q-1 -5 -2 -18q-1 -17 -2 -22q-2 -14 -8 -22q-9 -14 -46 -39q-28 -18 -32 -30q-1 -3 3 -12q9 -21 2 -37q-12 -27 -29 -33q-7 -2 -15 -1zM128 229q-1 6 2.5 11t9.5 6q56 10 90 -9q33 -18 37 -54q3 -33 -21.5 -60.5
t-66.5 -31.5q-40 -4 -62 20q-20 20 -19 52q2 41 30 66zM422 213q-2 15 -2 23q0 10 3 16t8 9q5 2 11 1q4 0 10 -3l5 -2q4 2 10 16q2 4 -1 13q-9 20 -4 34q7 21 43 45q33 22 39 30q1 3 2 10q1 4 2 21q1 14 3 23q4 15 13 22q10 8 26 5q7 -1 21 -5q13 -4 18 -5q3 -1 6 0q1 3 3 8
q2 8 6 27q5 21 7 28.5t5 12.5q5 9 13 12q10 2 22 -4q4 -1 16 -8q9 -5 13 -6l2 -1v2q1 6 0 21q-1 19 0 26q1 19 12 28q4 3 12 5q5 1 12 2l16 1q19 6 27 31q6 22 4 54q0 3 -2 15v4q-5 -1 -11 -4q-18 -8 -47 -28l-33 -22l-32 -22q-13 -9 -15 -10q-3 -3 -7 -3q-39 -32 -114 -88
l-103 -78q-17 -13 -52 -46q-34 -33 -54 -48q-12 -9 -21 3l-2 4q-1 0 -3 1q-44 22 -88.5 21.5t-80.5 -18.5t-64 -51q-43 -50 -54 -115t18 -130q13 -28 46.5 -54t66.5 -36q125 -36 196 16q70 51 80 184v2q-6 4 -7 11zM349 342q23 14 58 45q42 37 60 50q12 9 21 -3t-3 -21
q-17 -12 -58 -48q-39 -34 -62 -49q-13 -8 -21 5t5 21zM168 214q-16 -1 -27.5 -16t-12.5 -36q0 -19 10 -30q13 -13 39 -11q30 3 46 21t14 38t-21 31q-15 8 -38 8q-4 -5 -10 -5z" />
    <glyph glyph-name="Q" unicode="Q" horiz-adv-x="914" 
d="M205 519q-73 -46 -107 -122.5t-22 -155.5q13 -85 75 -145t169 -71q84 -9 135 10q80 30 127 88.5t54.5 124t-25 134t-102.5 116.5q-119 82 -304 21zM215 554q186 54 312 -32q61 -42 97 -99.5t41.5 -118t-13 -118t-67.5 -105.5t-120 -74q-57 -21 -149 -12
q-116 12 -185.5 79t-84.5 162q-10 72 13.5 144t79.5 125q-2 2 -3 4q-2 6 0.5 12t7.5 8q24 10 48 18l11 6q6 4 12 1zM734 255q-2 2 -3 4v-2q1 -1 1 -3q1 0 2 1zM-22 217v-3l2 1zM-74 258q-1 3 -3 6q1 -9 3 -17q1 4 1 8q0 1 -1 3zM265 404v-13q0 6 4.5 10t11 4t10.5 -4.5
t4 -11.5q-1 -37 -8 -52q-7 -13 -19 -14q-10 0 -18 10q-9 11 -13 33t-2 42q1 6 5.5 10t11 3t10.5 -5.5t3 -11.5zM435 394q0 -20 4 -34q5 11 8 31q1 6 6.5 9.5t11.5 2.5t9.5 -6.5t2.5 -11.5q-6 -30 -15 -45q-13 -22 -32 -15q-13 5 -20 27q-5 17 -5 42q0 15 15 15t15 -15z
M230 179q43 -39 125 -31q65 6 135 38q14 6 20 -8t-8 -20q-74 -33 -145 -40q-95 -9 -147 39q-11 10 -1 21t21 1zM46 442q-13 -37 -27 -122q-1 -6 -1 -56q0 -22 -1 -34q0 -8 -1 -14q-1 -8 -4 -12q-2 -3 -5 -6q-1 -1 -4 -3l-10 -7q-15 -11 -18 -12q-21 -9 -40 2q-16 9 -27 30
q-19 39 -17 97q2 62 28 104q33 52 91 52q21 58 76 105q57 50 129 77.5t145 30t144 -26.5t125 -88q41 -46 55 -82q44 11 77 -14.5t46 -68.5q15 -39 4.5 -85.5t-46.5 -70.5q-12 -9 -21 -12q-21 -7 -35 8q-3 3 -5 9q-1 4 -2 9q-1 8 -3 22q-1 7 -3 29t-3 35q-5 42 -11 68
q-4 20 -10 33q-9 2 -12 11q-9 40 -53 89q-64 71 -155.5 93.5t-182.5 -2t-163 -86.5q-45 -39 -65 -85q9 -7 5 -17zM1 402q-1 2 -1 3q0 -1 -1 -1z" />
    <glyph glyph-name="R" unicode="R" horiz-adv-x="966" 
d="M26 171q3 -71 3 -89q14 -1 22 -2q12 -1 19 0h6q5 4 8 8t4 8l4 11l6 14q8 17 23 27q18 11 49 13q53 4 75 -39l10 -28q2 -7 3 -9q3 0 6 -1h24q10 0 22 1q-9 47 -14 110l-36 -3q-24 -2 -119 -12q-71 -9 -115 -9zM118 207l20 2q92 11 120 13l36 3q-1 17 -3 44q-2 4 -2 8
q0 3 1 6q-1 28 -2 43v7q0 6 -0.5 17.5t-0.5 19.5q-3 3 -4 8q0 5 -2 24q-13 -1 -35 -4l-53 -5q1 -6 2.5 -18t2.5 -17l1 -14q1 -10 1 -14.5t0.5 -12t0 -12t-1.5 -10t-2 -10t-3 -8.5q-5 -12 -16.5 -23.5t-23.5 -19.5zM833 215q-1 8 -2 20q-4 -9 -14 -9q-57 0 -128.5 -3.5
t-110.5 -6t-136 -10.5t-116 -9q5 -63 14 -110q8 1 18 1l74 8q43 4 45 4q5 0 44 -2q26 -2 32 1q5 3 9 13l5 13q3 11 4 16q8 21 21 32q18 14 47 14q64 0 90 -54q5 -9 13 -35q3 -8 4 -12q3 0 9 1q10 0 31 3q7 1 46 6q3 34 1 119zM823 581l4 2q13 8 24 0q3 -2 5 -7q1 -1 1.5 -3
t0.5 -5v-11q1 -12 0 -37q0 -14 -0.5 -52.5t-0.5 -60.5q0 -76 1 -122q1 -12 1 -23q4 -4 4 -10v-12v-23q1 -4 2 -7q2 -7 -1 -13q1 -72 -3 -111q-1 -5 -5 -9q-3 -9 -12 -10q-3 0 -22.5 -2.5t-31.5 -4.5q-21 -3 -33 -3q-8 -1 -13 -1q-3 0 -5 1q-5 0 -8 3q-10 6 -18 29
q-7 24 -11 31q-18 37 -63 37q-19 0 -28 -8q-7 -5 -11 -18q-2 -4 -5 -14t-5 -16q-8 -20 -23 -28q-14 -8 -48 -5q-37 2 -40 2q-1 0 -44.5 -4.5t-74.5 -6.5q-44 -4 -71 -5h-27q-14 1 -20 6q-9 6 -15 24.5t-9 23.5q-12 25 -46 23q-24 -2 -35 -9q-7 -4 -12 -13q0 -2 -3 -10.5
t-5.5 -14.5t-8.5 -14.5t-14 -13.5q-8 -6 -23 -6q-9 -1 -23 0q-8 1 -22 3h-8h-5q-4 0 -7 2q-10 4 -9 15q0 4 2 7q0 12 -1 35l-2 60l-3 60q-2 63 -1 98q1 21 3 34q1 8 3 13q3 9 9 13q30 19 88 26q2 0 88 6q2 0 10.5 1t23.5 2.5t26 2.5q22 2 35 4l-3 36q-2 35 -4 55
q-1 12 -1 19v6v2v2q1 3 2 5q8 14 30 18q15 3 37 2q14 -1 37 -3q20 -2 24 -2q22 0 81 -2t92 -2.5t82 0t90 3.5t78 10zM828 287q-86 0 -257 -12q-172 -12 -249 -13q1 -21 2 -35q18 1 116.5 9t137 10.5t110.5 6t129 3.5q8 0 13 -7q-1 15 -2 35v3zM300 544v-1q0 -6 1 -18
q1 -20 4 -54l4 -41l2 -2l4 -7v-2q0 -2 1 -4v-11q1 -10 1 -30q0 -9 0.5 -20.5t0.5 -17.5v-8q1 -15 2 -36q83 1 248 12q195 13 259 13v90q0 23 0.5 61t0.5 52q1 20 0 31q-38 -6 -80 -9.5t-92 -4t-84 0t-92.5 2.5t-79.5 2q-6 0 -27.5 2.5t-34.5 2.5q-19 1 -30 -1q-5 -1 -8 -2z
M171 73q-1 0 -2 -1q-13 -4 -21 -24q-2 -5 -8 -8q1 0 1 -1q5 -6 24 -6h9h7q2 0 5.5 0.5t5 1t4 2t4.5 3.5q7 7 5 14q-3 10 -14 16q-7 3 -14 4q-3 -1 -6 -1zM174 104q16 0 31 -8q22 -12 29 -33q7 -26 -14 -45q-6 -5 -12 -8.5t-11.5 -4.5t-11 -1.5t-10.5 -0.5h-10q-34 -1 -48 18
q-13 18 -4 42q7 20 25 32q18 13 36 9zM641 99q-4 -5 -6 -13q-3 -12 1 -23q2 -9 9 -11q17 -5 26.5 0.5t10 14.5t-8.5 19t-32 13zM679 119q36 -20 32 -55q-2 -25 -24 -37.5t-52 -2.5q-20 6 -28 30q-6 18 -1 39q6 23 21 34q20 13 44 1q6 -3 8 -9zM30 219q35 -5 55 2q1 0 2 1
l35 25l20 15q13 10 17.5 15.5t6.5 11.5q5 17 4.5 30.5t-5.5 57.5q-1 8 -2 12v2q-21 -1 -30 -2q13 -20 11 -41t-15 -31q-10 -8 -21 -5q-11 4 -16 17q-6 18 0 56q-44 -6 -66 -19l-2 -6q-1 -11 -2 -31q-1 -34 1 -96q0 -7 1 -15q3 1 6 1z" />
    <glyph glyph-name="S" unicode="S" horiz-adv-x="617" 
d="M479 715h-3q-46 0 -130 -3q-83 -4 -117 -5q-31 -1 -56 -1q-25 1 -56 0.5t-55 -2.5q0 -298 11 -528q0 -4 0.5 -19.5t1 -35t1.5 -36.5q2 -32 6 -51q1 -10 3 -16q1 0 1 -1q24 -10 77 -9q45 0 119 7l72 9q47 5 80 8.5t55 4.5q0 60 -2 122t-7 156q-6 93 -7 122q-2 54 1 138
q4 113 4 136q0 2 1 4zM412 496q2 104 0 120q-156 -16 -288 -2q-1 -5 -1 -11q-3 -20 -5 -47q-2 -28 -3 -46q0 -8 -1 -12q3 0 5 -1q11 -1 35 -2q41 -2 104 -2q86 1 154 3zM342 315q-4 7 -3 14t7.5 11t16.5 5q8 0 17 -1q22 -3 33 -14q9 -9 7 -21q-2 -11 -13 -20q-7 -5 -18 -4
q-3 1 -4 1h-1q-32 0 -53 2q-6 1 -9.5 5.5t-3 10t5 9t9.5 3.5q4 0 9 -1zM379 316v-2h5h2q-4 1 -7 2zM334 416q-2 12 10 15q29 9 46 5q10 -2 16 -7q8 -9 5 -20q-5 -15 -26 -20q-20 -5 -46 1q-6 2 -9 7t-2 10q2 6 6 9zM225 397q-4 1 -7 5q-11 11 -12 21q0 8 5 14q4 5 11 6
q13 4 37 -3q9 -3 17 -7q10 -6 13 -13q5 -9 -1 -17q-3 -5 -10 -7q-9 -3 -25 -3l-20 1q-4 0 -8 3zM107 419q1 12 11 19q12 8 29 3q18 -5 21 -19q5 -19 -19 -31q-15 -7 -24 -5q-3 1 -9 4q-5 3 -7 4q-13 7 -7 19q2 4 5 6zM211 322q-2 3 -2 7q0 10 9 14q3 2 8 2q4 1 16 1
q24 1 35 -8q8 -6 8 -16q-1 -9 -8 -15q-18 -16 -46 -5q-2 1 -3 2q-6 3 -11.5 7t-5.5 11zM139 335h1h-1zM140 306q-4 -5 -11 -5q-23 0 -32 4q-12 5 -10 17q1 8 8 13t18 8t19 3q17 -1 25 -6q9 -7 6 -18q-2 -6 -8 -11q-6 -3 -15 -5zM115 242l2 1q21 20 41 17q9 -2 16 -8.5
t8 -15.5q1 -10 -4.5 -18t-15.5 -11q-8 -2 -19 -1h-3q-10 -1 -15.5 -1t-9.5 2q-9 4 -10 13q-1 5 1 10q0 3 1 5q3 5 8 7zM223 243q1 1 1 2q4 7 13 9q5 2 11 2q14 1 25 -2q7 -2 12 -6q9 -8 7 -18q-3 -16 -18 -20q-9 -2 -21 0q-11 2 -27 9q-12 6 -7 19q2 3 4 5zM120 143
q-6 7 -1 16t15 7q6 5 14 2q5 3 9 4q12 3 21 -3q10 -6 12 -21q2 -12 -9 -17q-3 -2 -7 -2q-3 -7 -10 -10q-6 -3 -14 -3q-17 1 -26 11q-6 7 -4 16zM263 129q-4 -3 -9 -2q-8 1 -12 3q-8 2 -12 6q-4 5 -4 11q1 6 4 10q3 3 9 6q16 7 30 6q8 -1 14 -2q7 -2 11 -5q5 -5 5 -11t-4 -11
q-3 -4 -9 -6q-9 -4 -23 -5zM124 72l1 1q11 15 31 16q8 0 14 -1q9 -1 13 -6q5 -6 4 -14q-1 -4 -5 -8q-3 -3 -9 -6q-4 -2 -9 -4q-3 -11 -15 -10q-14 1 -21 6q-13 3 -11 16q1 7 7 10zM247 80h2q6 3 7 3q15 4 25 2q6 -2 9 -6.5t1.5 -10.5t-6 -9t-10.5 -2q-4 1 -11 -1q-1 0 -7 -2
t-9 -2q-14 0 -14 14q0 13 13 14zM44 730q27 3 62 4t62.5 0.5t60.5 0.5q32 1 116.5 4.5t130.5 3.5q14 0 14 -14q0 -2 -1 -4h3q14 0 14 -14q0 -25 -4 -137q-3 -83 -1 -135q1 -30 7 -123q5 -96 7 -158t2 -123q0 -4 -2 -7q1 -2 1 -5q0 -14 -14 -14q-20 0 -53 -3t-84.5 -9.5
t-79.5 -9.5q-76 -7 -122 -7q-62 -1 -91 12q-8 4 -13 17q-3 8 -5 20q-3 20 -6 54q-1 17 -1.5 37t-1 35.5t-0.5 18.5q-11 232 -11 531v3l-2 6q-1 6 3 10.5t9 5.5zM117 643q62 -7 143.5 -6.5t148.5 7.5q1 11 12 13q5 1 10 -2.5t6 -9.5v-3q4 -3 5 -8t-2 -10q2 -19 2 -40t-1 -52
t-1 -38q5 -4 5 -10t-3.5 -10.5t-9.5 -4.5q-48 -3 -174 -4q-63 0 -106 2q-24 1 -36 3q-8 1 -13 2q-8 2 -12 7q-3 3 -4 7v3q-1 2 -1 6q0 6 1 16q1 19 3 48q3 27 5 47q1 12 2 17q0 4 1 6q0 4 1 6q4 9 15 8h3zM367 244q29 -5 59 -2q4 8 12 8q11 0 14 -10q4 -3 5 -8q1 -6 -3 -11
q2 -38 3 -61q1 -27 0 -44q0 -11 -1 -18q-2 -10 -5 -15q-4 -5 -8 -8v-3q0 -14 -14 -14h-14q-2 0 -9 -1q-10 0 -13 -1h-14q-10 1 -15 4q-8 4 -12 16q-3 7 -4 19q-3 17 -4 49q-4 82 -5 83q-1 6 2.5 11t8.5 6t9 -1q4 2 8 1z" />
    <glyph glyph-name="T" unicode="T" horiz-adv-x="971" 
d="M50 -21h-15q7 -2 15 0zM407 -29q-3 2 -5 5h-3q5 -5 7 -5h1zM390 101h-5q-14 0 -39 -1q-40 -1 -120 -4q-184 -8 -194 -8q-8 0 -12 7v-88q2 0 195 -5q116 -3 192 3q-1 6 -2 24q0 22 -1 32q-2 18 -5 29q-1 4 -2 7q-4 1 -7 4zM18 104v-1v1zM810 408q-34 -8 -77 -56
q-25 -28 -62 -83q-2 -2 -13 -25q-10 -22 -22 -30q-17 -12 -52 -24q-38 -12 -49 -17q-20 -11 -62 -38l-50 -29q2 -4 3 -8q4 -14 6 -34q1 -12 1 -34q1 -19 2 -24v-2q57 21 160 82q116 69 178 118q8 6 16 1l13 7q33 21 39 34q4 7 2 34q-1 30 -7 61q-7 35 -17 54q-4 9 -8 12z
M661 444q-23 -1 -44 -24q21 15 44 24zM375 403q-51 -53 -64 -84q-1 -2 -7 -28q-6 -24 -18 -33t-37 -18q-26 -9 -33 -12q-90 -47 -181 -112q13 0 190 8q80 3 120 4q25 1 39 1h12h4h2q1 0 3 -1q18 10 53 31q43 27 65 38q12 7 52 20q32 10 45 19q6 5 13 19q12 26 14 30
q39 57 65 86q30 33 56 49l-18 4q-32 6 -51 2q-29 -5 -58.5 -24.5t-44.5 -42.5v-8q0 -17 -8 -25q-2 -2 -5 -3q-1 -1 -2 -1h-3q-2 -1 -5 -1q-6 -1 -17 -2q-23 -2 -50 -4q-31 -3 -53 -4q-26 -2 -31 -1q-16 2 -24 10.5t-8 22.5q1 16 16 42l22 32q-6 -1 -14 -2q-16 -4 -28 -8
l-9 -3zM625 462q-15 0 -33 -1q-30 -1 -55 -3t-29 -3q-14 -4 -32 -21q-17 -17 -21 -30q-2 -7 -9 -9q-10 -15 -16 -25q-11 -19 -12 -28v-2q4 -2 6 -2q4 0 27 1t52 4q31 2 50 4h1q7 43 32 79q17 24 39 36zM648 645q1 -4 1 -8q3 -28 0 -52q-7 -64 -48 -96q27 1 45 1h19
q5 -1 8 -1q6 -1 9 -5q8 -6 10 -20l2 -10l18 2q1 5 5 9q32 28 45 64q8 24 11 74q1 26 -2 42q-1 6 -2.5 9t-1.5 4l-1 1q-3 1 -13 -1q-8 -1 -22 -4q-42 -10 -46 -10q-1 0 -29 1h-8zM562 499q52 22 59 89q3 21 0 46q-1 7 -2 15l-1 4v2v1v3q1 4 3 7q4 4 11 6q3 1 8 1h17
q5 0 11.5 -0.5t9.5 -0.5h5q2 0 41 9q16 4 26 5q15 2 24 -1q19 -5 25 -35q4 -19 2 -48q-3 -55 -13 -83q-13 -37 -42 -66q4 -1 9 -1q39 -8 52 -8q10 0 13 -10q5 -2 10 -6q8 -7 14 -21q11 -22 19 -60q7 -34 8 -66q2 -34 -4 -47q-5 -9 -15 -19q12 -3 10 -15q-2 -16 -11 -27.5
t-21 -14.5q-7 -1 -13 1q-8 4 -11 13q-1 5 0 10l-19 -11q-16 -10 -23 -14q-5 -4 -11 -3q-65 -45 -144 -92q-111 -66 -171 -87q1 0 2 -1q7 -12 -4 -20q-21 -14 -36 -10q-12 2 -29 20q-4 5 -4 10q-63 -2 -153 0q-19 1 -58.5 2t-59.5 2q-15 -25 -47 -27.5t-51 15.5q-11 9 -2 20
q-4 4 -4 10v88q-10 -5 -17 4q-9 12 2 20q114 87 227 144q8 5 36 15q21 7 30 13q4 3 7 18q7 28 8 31q15 37 70 94q3 3 11 6q5 3 12 5q13 4 30 8t30 5q7 1 11 1h2l6 6q22 22 43 27q7 2 35 5q8 0 18 1q1 9 9 12zM658 543q22 1 66 9q5 1 10 -2.5t6 -9t-2.5 -10.5t-9.5 -6
q-45 -8 -68 -9q-6 0 -10.5 3.5t-4.5 9.5t3.5 10.5t9.5 4.5zM676 597l43 7q6 1 10.5 -2.5t5.5 -9.5t-2.5 -10.5t-9.5 -5.5l-43 -7q-5 -1 -10 2.5t-6 9t2.5 10.5t9.5 6zM333 297q113 -6 245 -6q14 0 14 -14q0 -11 -10 -13q0 -5 -3 -8q1 -9 -8 -14q-7 -3 -22 -5q-11 -1 -30 -2
q-35 -2 -79 0q-43 1 -76 5q-18 2 -27 4q-6 2 -10 3q-7 3 -10 8q-6 7 -3 18q0 3 1 4v1q0 5 3 8q3 12 15 11zM280 224l17 1q6 0 10.5 -3.5t4.5 -9.5t-3.5 -10.5t-9.5 -4.5l-17 -1q-6 0 -10.5 3.5t-4.5 9.5t3.5 10.5t9.5 4.5zM410 216h30q14 0 14 -14t-14 -14h-30q-14 0 -14 14
t14 14zM202 188l18 -2q5 -1 9 -5.5t3 -10t-5.5 -9.5t-10.5 -3l-18 2q-5 1 -9 5.5t-3 10t5.5 9.5t10.5 3zM281 185h37q14 0 14 -14t-14 -14h-37q-14 0 -14 14t14 14zM370 183l14 -3q6 -2 9 -6.5t1.5 -10.5t-6 -9t-10.5 -2l-14 3q-6 2 -9 6.5t-1.5 10.5t6 9t10.5 2zM374 207
q0 -14 -14 -14t-14 14t14 14t14 -14z" />
    <glyph glyph-name="U" unicode="U" horiz-adv-x="765" 
d="M315 351q0 1 -1 2q-4 7 -18 26q-10 13 -14 20l-4 -6l-1 -1q0 -2 -1 -4q-1 -6 -6 -18q0 -1 -5 -9l-8 -16l-3 -5q9 1 21 3q15 2 29 5q6 2 11 3zM325 386q8 -11 13 -19q1 -1 1 -2q12 9 28 23t27 24l29 28l24 24q29 27 82 68l62 47q-6 3 -10 6q-21 -21 -47.5 -42t-61 -45
t-48.5 -35q-10 -7 -22 -19l-22 -21q-29 -26 -53 -37h-2zM590 647q-4 -26 2 -35q5 -7 25 -11q16 16 20 32.5t-2 21.5q-5 8 -16 8q-13 0 -29 -12v-4zM49 741q67 -13 173 -12t173 14q8 1 59 9q35 5 56 11l5 3q5 2 9 3q9 1 16 -6q7 -8 4 -21q0 -3 -1 -7q-1 -3 -1 -4
q-10 -57 -10 -87l27 19q2 2 5 3l2 2q28 22 53 23q27 0 40 -21q12 -20 4 -47t-34 -49q-20 -17 -83 -65l-18 -13v-3q0 -61 3.5 -184t3.5 -184q0 -3 -1 -5q7 -4 8 -11q1 -6 -2.5 -10.5t-9.5 -5.5q-217 -31 -429 -12q-4 -7 -12 -7q-14 0 -14 14v4v4v269q-1 42 -9 151
q-6 84 -7 123q-8 4 -8 13v19q1 6 1 7l-5 13q-5 13 8 18q3 1 6 1q-10 2 -18 3q-6 2 -9 6.5t-1.5 10.5t6 9t10.5 2zM125 596q55 -10 141 -8.5t141 12.5q6 1 11 -2.5t6 -9t-2.5 -10.5t-8.5 -6q-58 -11 -147 -12q-87 -2 -145 8q-6 1 -9.5 6t-2.5 10.5t6 9t10 2.5zM148 402
q57 8 92 8q7 0 12 -6q0 1 3 5l9 14q3 5 8 6q21 24 49 50q-24 0 -79.5 -1.5t-85.5 -1.5q-14 0 -14 14t14 14q31 0 91.5 1.5t91.5 1.5q5 0 9 -3q55 47 163 125q-7 4 -7 12q0 33 10 94q-22 -6 -56 -11q-53 -8 -57 -9q-65 -11 -164.5 -13.5t-173.5 8.5q8 -2 10 -9q6 -16 6 -20
q8 -3 8 -12q0 -55 7 -151q8 -106 9 -153q1 -35 0 -256q201 -18 406 9q-2 4 -2 7q0 61 -3.5 177.5t-3.5 170.5q-19 -15 -33 -29l-28 -28l-38 -36q-12 -11 -33 -28t-37 -24q-5 -3 -21 -7l-31 -6q-19 -3 -31 -3q-8 -1 -14 1q-11 2 -15 10l-1 9q0 1 1 2q0 1 1 2l1 2l2 5l9 15
l9 16l3 6l1 3q-2 -1 -5 -1q-33 0 -88 -8q-6 -1 -10.5 2.5t-5.5 9.5t2.5 10.5t9.5 5.5zM154 283q54 -3 152 5q111 9 154 9q6 0 10 -4t4 -10t-4 -10t-10 -4q-42 0 -152 -9q-98 -8 -156 -5q-6 0 -9.5 4.5t-3.5 10.5t4.5 9.5t10.5 3.5zM315 412q21 9 46 32l21 20q14 13 24 21
q17 13 52 37t60.5 44t44.5 41q-3 10 -3 23l-28 -20l-32 -24l-29 -21q-22 -16 -31 -23l-29 -23l-31 -25l-27 -24l-27 -25q-13 -12 -24 -24q4 -7 8 -13q2 2 5 4z" />
    <glyph glyph-name="V" unicode="V" horiz-adv-x="821" 
d="M182 29q-1 3 -1 6q0 28 -4 87t-4 89q0 15 2 51t3 45q2 62 -5 89q-1 5 -5 7q-1 1 -15 1q-12 1 -35 -1q-6 -1 -37 -4q-16 -2 -24 -2q0 -61 3.5 -187t3.5 -190q45 8 118 9zM427 54q-12 -7 -44 -33q30 1 51 2q-2 3 -3 7q-1 11 -4 24zM413 132q-49 -34 -129 -97q-4 -3 -9 -3
q0 -6 1 -10q6 -1 16 -1q22 -1 56 0q-1 7 5 12q4 3 19 15.5t26.5 20.5t22.5 14v3q-6 28 -8 46zM413 239q-72 -61 -128 -93q-6 -3 -12 -1q1 -9 1 -60l1 -21q82 64 137 101q0 25 1 74zM415 277l3 74q-23 -21 -70.5 -55.5t-62.5 -46.5q-7 -5 -15 -2q1 -40 3 -76q59 35 142 106z
M420 392q2 41 3 68q-28 -20 -77 -64t-66 -58q-5 -4 -10 -3q-1 -35 0 -62q9 8 67 50t83 69zM324 595q-12 0 -57 -1l2 -46q42 35 55 47zM53 425q6 0 25 2q32 3 38 4q23 2 38 1q21 0 30 -5q12 -8 17 -25q7 -30 5 -96q-1 -9 -3 -44.5t-2 -50.5q0 -28 4 -87t4 -89q0 -4 -2 -8
q7 -4 7 -12q0 -14 -14 -14q-92 0 -140 -11q-6 -1 -10.5 2t-6.5 9v2q-7 4 -7 12q0 66 -3.5 198t-3.5 198q0 14 14 14q3 0 5 -1q2 1 5 1zM260 622q3 0 20.5 0.5t33.5 0.5h40q36 -1 57 -3q13 -2 21 -4q13 -4 18 -13q2 -4 2 -12q1 -6 1 -16q1 -18 0 -48q0 -13 -1 -28l2 -2
q6 -9 -2 -17q-2 -35 -4 -92l-5 -103q1 0 2 -1q9 -10 -2 -20h-1q-2 -65 -2 -95l1 -1q5 -9 -1 -17v-4q1 -21 8 -56q10 -50 11 -57t-4 -12q6 -3 7 -11q0 -6 -3.5 -10t-9.5 -5q-27 -2 -99 -3q-36 -1 -59 0q-13 1 -21 2q-5 0 -8 1q-6 2 -10 5l-3 6q-1 1 -1 2v1v2v5q-1 6 -1 17
q0 16 -1 50q-1 77 -1 81q-3 55 -3 217q0 145 -3 214q0 9 7 13q1 13 14 13zM528 719q-10 -90 -11 -191q-1 -104 3.5 -185t13.5 -193q4 -48 -2 -110q0 -2 -5 -19q6 -1 17 -2q22 -2 56 -3q42 -2 89 -2q-3 5 -2 10q6 28 6.5 62.5t-2 62t-7 67t-5.5 63.5q-5 89 2 325v75
q0 30 1 51q-24 0 -78 2q-43 1 -71 1q-2 -4 -7 -5q3 -4 2 -9zM712 753q-3 -29 -3 -74v-75q-7 -235 -2 -323q1 -22 5.5 -61.5t7 -68.5t2 -66.5t-6.5 -66.5q-2 -7 -9 -10q3 -4 3 -8q0 -6 -4 -10t-10 -4q-47 0 -96 2q-36 1 -57 3q-13 1 -21 2l-8 2q-6 2 -9 7q-8 10 -4 26l2 6
q1 3 1.5 5t0.5 3q6 62 2 106q-9 112 -13.5 193.5t-3.5 187t11 194.5q1 9 8 11q-1 3 -1 7v1q-1 2 -1 5q0 14 14 14q29 0 84 -1.5t81 -1.5q3 11 14 10q6 -1 10 -5.5t3 -9.5zM355 586q-11 -11 -24 -22.5t-31 -26.5l-26 -21l-4 -2v-66l2 4q17 24 60 68t76 72h-1q-18 2 -48 3
q-1 -5 -4 -9zM270 440v-59v-15l46 41l58 50q26 22 50 38q1 18 1 33q1 26 0 42q-31 -27 -72.5 -69.5t-56.5 -64.5q-8 -11 -20 -4q-4 4 -6 8z" />
    <glyph glyph-name="W" unicode="W" horiz-adv-x="970" 
d="M502 -5q-43 -14 -88 -19q45 4 88 19zM362 284q-9 -38 -23 -135q-15 -102 -24 -144q98 -13 196 23q77 28 129 82q52 53 63 124q1 8 9 11q3 18 3 38q-1 7 -1 13q-1 6 -2 8q-1 0 -2 1h-12q-15 1 -44 -1q-36 -2 -128 -10q-102 -8 -128 -9q-21 -1 -36 -1zM334 287q-1 1 -3 1
q-2 -7 -10 -9l-27 -5q-23 -5 -30 -6l-27 -6q-20 -5 -29 -6l-28 -5q-19 -3 -31 -4.5t-28 -3t-30.5 -2.5t-28.5 -1q11 -51 45 -100q51 -76 109 -106q33 -16 72 -24q8 41 23 143q14 94 23 134zM318 307v4q1 5 3 13q4 14 12 39l40 115q59 171 64 191q-61 1 -109.5 -12t-98.5 -47
q-95 -62 -134 -155q-45 -109 -38 -187q15 0 28.5 0.5t30 2.5t27.5 3t29.5 4.5t27 4.5t30 5.5t27.5 5.5t30 6.5t28 6.5h3zM516 414q-19 21 -27 37l-2 -5q-10 -25 -13 -34l-2 -4h1q13 1 38 5zM567 423q-10 14 -24 40q-18 35 -28 48l-14 -32q7 -2 10 -9q6 -15 37 -50zM798 643
q14 -35 41 -82q-9 48 -41 82zM679 711q22 -44 57 -104l79 -132q2 -4 2 -8q14 4 17 7q6 5 8 18v13q-4 2 -6 6q-63 105 -78 164q-9 6 -19 12q-27 15 -60 24zM447 387q-4 4 -5 10q-1 4 1 12q2 5 4 12q5 14 14 36l44 100l48 105q24 53 29 67q4 13 18 8q1 0 1 -1q3 11 14 11
q13 0 27 -1q1 1 3 2q11 5 18 -5q48 -9 90 -32q60 -34 89 -78q28 -45 28 -112v-32q-3 -25 -18 -37l-4 -2q1 -1 1 -2q1 -6 -2.5 -10.5t-9.5 -5.5q-20 -3 -49 -9l-76 -16l-69 -15q-140 -30 -185 -24q-6 1 -9.5 5.5t-2.5 10.5q0 2 1 3zM467 672q-4 -23 -67 -203l-40 -115
q-8 -24 -12 -37l-1 -4h7q16 -1 43 0q25 1 127 9q98 8 128 10t46 1q8 0 15 -1q2 9 13 9q9 0 12 -6q8 1 13 -6q3 -2 5 -5q5 -11 7 -22q8 -5 7 -14q-12 -86 -55 -156t-104 -113t-136.5 -61t-148.5 -7.5t-142.5 55t-117.5 118.5q-7 12 4 20h1q-31 51 -39 105.5t2 104.5t35 111
q42 101 144 169q58 38 113.5 51.5t127.5 10.5q5 0 9 -4.5t4 -10.5q0 -1 -1 -3q1 -3 1 -6zM528 539q16 -17 40 -63q17 -34 30 -47q2 0 54 8q-2 1 -4 3q-56 50 -101 141l-16 -35l-3 -6v-1zM566 606q43 -94 100 -146q11 -9 1 -19q-1 -2 -2 -2q27 3 48 7l-33 50l-36 54
q-14 21 -31.5 51t-30.5 57l-3 -7l-18 -39q3 -3 5 -6zM602 683q16 -37 36.5 -72t56.5 -88l46 -68l2 -4q28 5 48 9v1l-79 132q-43 72 -68 124q-15 2 -29 2q-3 0 -6 2q-1 -1 -1 -2q-3 -8 -12 -30q4 -2 6 -6z" />
    <glyph glyph-name="X" unicode="X" horiz-adv-x="1046" 
d="M429 171q-1 6 -4 14l-15 46l-14 44q-3 10 -5 15q-1 4 -1 6v3q0 6 3.5 10t10.5 6q4 1 9 1q8 1 24 2q11 1 37 1.5t33 1.5q48 1 75 4q34 3 43 8q4 2 8 14q6 13 9 35q6 43 6 108q-1 100 -12 169q-102 12 -276 4q-4 0 -30.5 -1t-67 -2t-75.5 -2q-69 -3 -108 -5l-36 -3
q-5 -1 -8 -1q-3 -5 -5 -16q-4 -16 -6 -40q-4 -50 -2 -113q3 -65 12 -111q4 -24 10 -38q5 -13 9 -15q8 -6 39 -7q23 -1 70 1q55 3 74 3q39 0 55 -7q6 -3 17 -13l21 -19l50 -53l48 -49zM614 218q-30 0 -77 -4q-80 -7 -83 -7q-4 0 -7 1l5 -14q7 -24 8 -31q0 -1 1 -3q1 -5 1 -7
q3 -17 -10 -23q-7 -3 -15 0q-4 2 -9 6q-8 5 -20 16q-9 9 -49 50l-50 52q-12 12 -19.5 18.5t-10.5 7.5q-10 5 -44 5q-18 0 -71 -3q-49 -2 -73 -1q-39 1 -54 11q-11 8 -19 29q-7 17 -12 43q-9 48 -12 115q-2 64 2 116q2 27 7 45q4 21 12 30q3 4 8 5q2 1 5 1q4 1 12 2
q13 1 37 3q40 2 109 5q35 1 75.5 2t66.5 2t30 1q174 8 276 -3q3 4 8 6q6 1 11 -2t7 -8q0 -3 1 -7q1 -2 1 -4q4 -23 8 -61q3 5 9 6q68 9 129 10q43 1 73 -4q38 -6 54 -21q5 -4 7 -12q2 -6 3 -14q1 -15 1 -38q0 -44 -5 -107q-5 -60 -11 -107q-4 -24 -7 -40q-4 -18 -8 -25
q-14 -20 -45 -28q-20 -6 -55 -6h-28q-19 0 -26 -1q-25 0 -34 -5q-8 -4 -21 -21q-7 -9 -27 -40q-17 -28 -28 -41q-19 -22 -37 -25q-7 -1 -12 3q-6 5 -6 12q0 4 2 9l3 6v1l5 28q7 39 8 66zM642 230q0 -35 -8 -82l-2 -8q9 11 24 34q20 32 27 42q17 23 31.5 30t45.5 7q9 1 26 1
h28q32 0 49 5q21 5 28 17q2 2 5 15q3 15 6 38q7 46 11 105q5 62 5 105q0 22 -1 35q-1 6 -2 9v1q-11 8 -39 13q-26 4 -68 3q-59 -1 -125 -10q-7 -1 -12 4q5 -53 5 -104q0 -68 -6 -112q-4 -25 -10 -41q-8 -21 -21 -28q-14 -8 -55 -12q-27 -3 -76 -4q-7 -1 -32.5 -1.5
t-36.5 -1.5q-12 0 -18 -1l1 -6l15 -43l4 -13q3 8 11 8q15 1 82 7q51 4 84 4q4 0 8 -2h2q14 0 14 -14z" />
    <glyph glyph-name="Y" unicode="Y" horiz-adv-x="856" 
d="M576 586q-3 -5 -7 -6q-88 -31 -154 -38q-52 -6 -85 3q-38 10 -54 37q-19 -42 -20 -91q-3 -78 38 -133q42 -56 124 -59q46 -2 83 15q4 4 10 5h1q42 22 65 65t24 94q1 59 -25 108zM524 649q0 -12 -12 -14q-110 -14 -190 10h-1q-6 -5 -11 -10q58 -22 119.5 -25t117.5 18
q-11 11 -23 21zM503 267v7l2 4q-2 3 -3 6q-38 -15 -84 -13q-25 1 -46 6q-2 -4 -4 -7q34 -50 48 -61q5 -5 11 -7l10 2q7 1 12 -4q8 3 16 12q27 27 32 39q6 15 6 16zM438 170q-5 0 -11 2q-7 -3 -16 -9q-14 -8 -39 -26l-36 -25q-9 -5 -15 -7q-12 -4 -21 2q-9 7 -7 22q1 3 2 5v2
v73q-49 -24 -64 -39q-23 -23 -35.5 -46t-15.5 -37.5t-6 -48.5t-6 -55q-1 -6 -5.5 -9.5t-10.5 -2.5t-9.5 5.5t-2.5 10.5q3 18 6 53.5t6.5 52t18 44t40.5 53.5q8 8 20 16t20.5 12.5t23 11.5t19.5 10l2 1q0 2 2.5 8.5t3.5 9.5q4 14 17 9q5 -1 8 -6q12 10 18 24q-60 24 -90 81
t-27 125q1 53 21.5 100.5t61 80t92.5 32.5q14 0 14 -14t-14 -14q-27 0 -51 -11q67 -14 152 -4q-34 19 -75 24q-5 1 -9 5.5t-3 10t5.5 9.5t10.5 3q63 -8 109.5 -44.5t67 -86.5t19.5 -105q-2 -57 -27.5 -106t-72.5 -76q2 0 4 -1q10 -7 5 -18q8 -12 24 -22q3 4 8 5q6 1 10.5 -2
t6.5 -9q0 -4 2 -8q4 -2 42 -19q32 -13 48 -25q41 -28 59 -85t18 -116q0 -14 -14 -14t-14 14q0 55 -15.5 105t-49.5 74q-14 9 -43 22l-21 9q2 -8 4 -15q11 -45 3 -66q-3 -9 -12 -11q-4 0 -9 1q-2 0 -5 1h-2q-42 2 -73 14.5t-67 39.5zM323 137l32 23q26 18 41 27l1 1
q-18 15 -46 58q-11 -12 -28 -22v-8v-79zM581 144q0 16 -6 40q-2 11 -8 32l-2 5q-24 13 -39 27l-3 -7q-7 -18 -38 -49q-7 -7 -14 -11q49 -34 109 -37h1zM297 602q9 -22 40 -30q29 -8 74 -2q34 3 74 14q-94 -11 -190 27q-2 1 -3 1l-2 -3q5 -2 7 -7zM384 497l-2 -16
q-1 -5 -5.5 -9t-10 -3t-9.5 5.5t-3 10.5l2 16q1 5 5.5 9t10 3t9.5 -5.5t3 -10.5zM493 508l-2 -12q-1 -3 -1 -4v-13q0 -14 -14 -14t-14 14v16q0 2 1 6q1 6 2 11q1 6 6 9.5t10.5 2.5t9 -6t2.5 -10zM389 388q22 -6 61 -6q14 0 14 -14t-14 -14q-42 0 -69 8q-5 1 -8 6t-1.5 10.5
t6.5 8.5t11 1zM185 -14q57 -16 121.5 -21t139 2t124.5 14t132 21q5 1 10 -2.5t6 -9t-2.5 -10.5t-9.5 -6q-88 -15 -132 -21q-50 -7 -126.5 -14t-143.5 -2t-127 21q-5 2 -8 7t-1.5 10.5t6.5 8.5t11 2zM451 88q0 -14 -14 -14t-14 14t14 14t14 -14zM460 11q0 -14 -14 -14t-14 14
t14 14t14 -14z" />
    <glyph glyph-name="Z" unicode="Z" horiz-adv-x="895" 
d="M576 462q-57 -10 -119 21q-81 40 -138 124l-14 22q-9 -15 -16 -31q-19 -43 -21 -86q-3 -43 13.5 -80.5t50.5 -58.5q62 -37 129 -14q1 3 1 5q2 6 6.5 9t10.5 2q4 -1 7 -5q31 16 56 43q20 23 34 49zM596 516q-81 -29 -151 31q-56 47 -94 139q-16 -13 -29 -31q2 -4 21 -32
q52 -79 126 -115q65 -32 121 -14zM598 579q-4 26 -17 49q-16 29 -39.5 48t-62.5 41q-17 5 -34 5q12 -59 55 -101.5t98 -41.5zM569 553q14 -4 30 -6h1v4q-16 -1 -31 2zM175 390q31 -13 44 -16q29 -6 63 4q-25 28 -35 68q-18 -36 -48 -49q-11 -5 -24 -7zM371 89q-1 0 -2 1
q-73 41 -82 47q-31 21 -32 40q-1 16 22 44l23 27l-5 -3l-35 -10q-24 -7 -40 -13.5t-30 -16.5q-40 -29 -48 -100q-7 -54 6 -124q1 -4 -1 -7q69 -19 175 -23q11 55 49 138zM413 179q33 77 33 126q0 14 14 14h2q-1 5 -2 11q-40 -12 -80 -5q-8 -21 -20 -37q18 -55 52 -106
q0 -1 1 -3zM342 254l-16 -20l-16 -18q-8 -10 -12 -13q-15 -19 -15 -24.5t19 -17.5q9 -6 81 -47l5 11l17 36q-11 -4 -17 5q-27 43 -46 88zM506 213q1 -4 8 -9q8 -6 24 -13q4 -1 13 -5t13 -6q7 -4 11 -6q9 -7 9 -15q0 -11 -10 -20q-1 -1 -5 -3q-2 -2 -3 -2q-10 -10 -31 -23
q-21 -12 -28 -18q-50 -39 -83.5 -71.5t-59.5 -71.5q29 0 59 2q189 7 301 46q4 2 8 1q0 8 1 25t1 20q1 37 0 61q-5 69 -37 98q-19 16 -63 28q-13 4 -41 10t-41 10q-8 2 -16 5l-15 -20q-8 -10 -12 -17q-2 -3 -3 -6zM549 156q-3 1 -11 4l-11 6q-19 8 -29 15q-17 13 -20 28
q-1 10 6 24q5 8 15 20l10 14q-16 8 -27 19q-5 4 -8 9q-2 -28 -12 -62.5t-20 -56.5l-29 -63q-37 -79 -50 -117q42 52 126 119q9 7 32 20q18 11 27 19q0 1 1 2zM478 28v1q0 14 14 14h6h4h3h1h1h2l4 -2q8 -4 7 -13q-1 -7 -7 -11q-1 -1 -2 -1q-1 -1 -2 -1h-2h-3l-10 -2
q-6 -1 -10.5 2.5t-5.5 9.5v3zM375 702q36 -90 88 -134q36 -30 75 -33q-86 39 -145 175v2q-10 -4 -18 -9v-1zM598 412q14 -43 51 -51q15 -3 35 0q-31 9 -50 53q-11 25 -18 60l-4 -2q-11 -26 -28 -50q11 0 14 -10zM554 353q16 -28 52 -25q16 1 34 7q-51 12 -68 69q-1 0 -1 1
q-4 -6 -9 -11q-33 -35 -74 -54q0 -21 13 -34q10 -10 27 -17q7 4 14 0q5 -3 6 -8q6 -1 12 -3q13 -4 40 -10t42 -10q50 -14 73 -35q41 -36 47 -116q1 -25 0 -64q-2 -51 -2 -57q0 -14 -14 -14q-4 0 -8 2l-4 -2q-116 -41 -310 -48q-40 -2 -78 -1v-3q-1 -6 -5 -9.5t-10 -3
t-9.5 4.5t-3.5 10v1q-129 5 -205 32q-13 5 -8 18q3 10 14 9q-12 70 -5 126q10 84 60 119q16 12 35 20t44 15t32 10q25 9 41.5 22.5t26.5 37.5q-18 7 -35 17l-12 8q-52 -19 -93 -10q-15 4 -52 19q25 -27 65 -33.5t96 -2.5q6 0 10.5 -3.5t4.5 -9.5t-3.5 -10.5t-9.5 -4.5
q-27 -4 -59 -2t-60 8.5t-53 27t-39 52.5q-2 6 0 11q-8 6 -5 15q4 13 17 9q38 -11 63 -1q21 9 33 36q21 42 21 133q0 14 14 14q3 0 5 -1l2 5q11 25 26 48q-7 17 -8 36q0 6 3.5 10.5t9.5 4.5t10.5 -3.5t4.5 -9.5q0 -5 1 -10q71 80 160 63q6 2 12 -1q32 -17 48 -27.5
t38.5 -31.5t36.5 -46q6 -11 11 -22q3 1 6 1q6 0 9.5 -4.5t3.5 -10.5q-3 -43 3 -94q4 -2 6 -5q6 -10 -2 -18q6 -38 17 -63q17 -38 39 -40q29 -3 72 47q10 11 20.5 1.5t1.5 -19.5q-25 -28 -47 -42q3 -3 5 -7q5 -13 -8 -18q-23 -10 -44 -14q-2 -6 -8 -9q-47 -23 -82 -25
q-53 -4 -78 39q-7 12 5 19t19 -5zM360 452q17 -18 43.5 -19t49.5 14q12 7 19 -5t-5 -19q-27 -19 -65 -17.5t-62 28.5q-10 10 0.5 19.5t19.5 -1.5zM364 527q0 -14 -14 -14t-14 14t14 14t14 -14z" />
    <glyph glyph-name="bracketleft" unicode="[" horiz-adv-x="823" 
d="M120 370l-35 2v-52q11 12 35 50zM692 286q-4 -4 -10 -4q-58 0 -146 -4l-152 -6q-66 -2 -148 -0.5t-150 9.5q0 -33 2 -142t2 -168q53 -3 82.5 -2.5t83.5 2.5t85 2q57 0 169.5 -3.5t168.5 -3.5q1 25 1 82q-1 63 2 99q7 84 10 139zM33 451l11 -15q19 -25 28 -38q2 5 8 6
q23 7 49 17q-17 4 -45 14q-36 12 -51 16zM435 628l-84 -36q13 -6 30 -15q35 -20 45 -24q7 -4 8 -12l106 42q-46 23 -102 44q-2 1 -3 1zM293 567l-76 -33q10 -4 25 -11q37 -18 42 -20q10 -4 9 -15l86 33q-14 4 -33 14l-45 23q-7 3 -8 9zM153 504q-51 -23 -82 -35l22 -8
q34 -11 52 -15q12 -3 11 -15l26 11l57 25l-33 11q-35 12 -53 26zM215 504q-13 6 -18 7q7 -3 18 -7zM564 597q1 -2 1 -4q37 15 69 30q-23 54 -31 78q-33 -8 -107 -44l28 -13q30 -15 47 -20q5 -1 8 -6t1 -11q-3 -12 -16 -10zM189 301q1 4 3 7q36 42 46 60q-46 0 -87 1
q0 -3 -2 -6q-31 -48 -39 -57q38 -3 79 -5zM326 299l2 4q19 23 44 65q-44 -1 -81 -1q-6 -7 -29 -44q-8 -15 -16 -24h80zM647 310v1l17 37q7 14 10 23q-42 0 -97 -1q0 -1 -1 -3q-4 -5 -11 -17.5t-14 -23t-15 -19.5q65 2 111 3zM692 305h1v1zM484 102l2 1l-1 1l-2 1q1 -1 1 -3z
M349 51v-4l2 1q-1 1 -2 3zM52 376q-8 15 -30 43l-24 32q-4 3 -6 9v2l-1 2q-7 13 5 19q11 6 18 -4q21 6 46 15.5t42 17.5l48 22l42 20q42 19 130 56t132 58q10 4 36 17t42.5 20.5t40 15.5t43.5 12q5 1 10 -2.5t6 -9t-3 -10.5q7 -20 35 -86q2 -6 0 -11q-1 -8 -8 -12
q-53 -24 -110 -47l-139 -53l-112 -43q-3 -1 -102 -43q-26 -11 -47 -18q26 -5 274.5 -2t274.5 3v8q0 14 14 14t14 -14q0 -99 -13 -262q-3 -37 -2 -97q0 -68 -2 -99q0 -6 -4.5 -9.5t-10.5 -3.5q-3 0 -6 2h-2q-57 0 -171 3.5t-171 3.5q-28 0 -82 -2t-85 -2.5t-84 2.5
q0 -6 -4 -10t-10 -4q-14 0 -14 14q0 72 -2.5 214.5t-2.5 213.5q-3 2 -5 5zM427 365q-9 -16 -29 -41l-17 -23q32 1 106 4q-2 5 0 11q6 12 20 35q7 12 11 18q-68 -1 -90 -1q0 -2 -1 -3zM342 227q11 -7 157 -99q8 -5 7 -13q11 5 18 -5q7 -12 -4 -20q-33 -21 -95 -44
q-67 -25 -80 -31q-4 -5 -11 -5l-3 -2q-12 -6 -18.5 6.5t6.5 19.5h1q5 116 5 170q-10 8 -3 19q8 11 20 4z" />
    <glyph glyph-name="backslash" unicode="\" horiz-adv-x="906" 
d="M776 387q-1 7 -3 14q-1 5 2 10q-7 81 -64 140.5t-140.5 87.5t-180.5 25q-75 -1 -142 -22t-120 -59t-83 -98t-27 -134q3 -71 45 -133.5t102.5 -103t130.5 -61.5q77 -22 108 -14q16 4 24.5 15.5t16.5 34.5q1 1 2 5q6 16 10 25.5t15 22t26 18.5q32 13 85 -10q47 -19 70 -14
q33 7 59 36q27 28 44 71q30 75 20 142v2zM804 389q10 -75 -22 -156q-19 -48 -50 -81.5t-73 -43.5q-9 -2 -20 -1.5t-17.5 1t-18.5 5t-15 5.5t-15 6q-43 18 -65 10q-13 -5 -20 -17t-17 -38q-6 -17 -11 -27.5t-18.5 -23t-31.5 -17.5q-38 -9 -116 14q-4 1 -6 2q-54 15 -105 44.5
t-93.5 69.5t-69.5 94.5t-30 113.5q-3 67 18.5 123t60 95.5t91 67.5t110.5 42t120 15q61 2 120 -9t112 -35.5t93.5 -60t64.5 -86.5t24 -112zM607 320q-54 10 -96 4q-29 -4 -39 -15t0 -34q11 -25 51 -40q77 -28 115 -14q20 7 29 32q9 23 -4 37q-5 5 -11 9t-10.5 6t-15 6
t-14.5 6q-3 1 -5 3zM632 339q37 -14 51 -29q25 -27 10 -67q-13 -36 -45 -48q-48 -18 -135 14q-51 18 -67 54q-17 40 5 65q18 18 57 24q56 8 115 -6q6 -2 9 -7zM111 381q0 5 2 9l2 2q-9 -5 -15 -9q2 0 5 -1zM336 426l-1 -2l-4 -6l-13 -18q13 13 18 23v3zM123 349h-2
q-3 2 -9 3l-13 3q-9 2 -14 3q-9 3 -13 8q-10 9 -5 21q3 8 13 15q8 7 22 15q5 3 11 2q-7 51 3 77q17 45 79 48q32 1 42 -20q5 -9 4 -26q-1 -4 -2 -12.5t-1 -10.5q-2 -10 -1 -14q0 -1 1 -1q6 -2 21 0q5 1 16 3t15 3q22 3 35 2q21 -2 32 -15q14 -17 5 -40q-7 -16 -24 -33
q-33 -33 -59 -40q-7 -1 -33 0h-16q0 -1 -1 -2l-8 -6l-6 -9q-14 -22 -22 -32q-16 -21 -31 -26q-24 -9 -42 14q-8 10 -6 26q1 6 5 20q6 19 4 24zM397 615q-4 3 -4 8q0 6 3.5 10.5t9.5 4.5q49 3 86 -18t53 -56q16 -34 2 -70.5t-56 -56.5q-31 -14 -47 1q-12 10 -12 37q0 1 2 38
q1 17 -1 21q-3 5 -13 10q-3 1 -12 5t-13 7q-19 11 -16 29q2 13 18 30zM465 507q-2 1 -3 2q0 -2 -1 -5q2 1 3 3h1zM455 558l-2 -4q3 -3 4 -6q3 -5 4 -11l2 2q5 7 7 9v1q-8 1 -13 6q-1 1 -2 3zM425 587q-3 1 -8 1q-3 0 -6 1q-4 -5 -4 -8q1 0 2 -1q3 -2 8 -4q0 6 5 9q1 2 3 2z
M456 593q1 2 3 4q4 3 10 3q-11 5 -23 7l4 -4q2 -3 3.5 -6t2.5 -4zM499 570q4 2 8 2q-11 13 -27 22zM198 474q5 -1 8 -4q2 -2 3 -4q0 5 1 13q0 3 1 6zM139 454q-1 0 -1 1v-2zM192 506l5 4q8 6 16 1v1q-3 5 -16 4h-1q0 -6 -4 -10zM152 330q-1 0 -2 1l-2 -8zM251 374l-6 -6h2
q2 0 8 -1q-3 3 -4 7zM300 431q4 4 9 7l2 2q-7 -1 -16 -2l-4 -1q5 -3 9 -6zM643 495q23 2 32 -17q6 -14 -2 -27q-5 -8 -16.5 -13.5t-29.5 -8.5q-5 -1 -10 2.5t-6 9.5v3q-8 2 -12 8v1q-3 2 -5 5q-2 5 0 11q0 1 1 3l2 2q0 1 3 3q0 2 1 4q4 8 13 8l4 2q1 0 6 2q3 2 5 2q7 4 14 0
zM217 261h1q7 -1 11 -8q3 -5 3 -11t-4 -13q-7 -12 -18 -22q-5 -6 -10 -8q-11 -6 -20 -1q-12 7 -10 24q1 5 3 10q0 7 5 12q7 13 14 22q8 12 19 3q5 -3 6 -8z" />
    <glyph glyph-name="bracketright" unicode="]" horiz-adv-x="920" 
d="M630 624h-2q-17 2 -41 -1t-33 1q-17 6 -18 32q-2 17 2 57q-26 0 -78.5 -2.5t-79.5 -2.5q3 -12 4 -18q5 -27 -5 -43q-6 -9 -12.5 -15.5t-14 -10t-12 -5t-12.5 -2.5l-8 -1q-6 -1 -8 -5q-5 -9 -5 -36q0 -1 -2 -17q-1 -2 -1 -3q2 -1 6 -2q6 -2 17 -2q8 0 20 1q14 1 17 1
q61 0 142 1q54 1 86 2q18 1 28 2h6v2q1 4 1 13q0 3 -1 16q-1 11 0 16v2q1 3 2 7t1.5 7.5t0.5 5.5zM646 533v2l-2 -2h2zM671 526q2 -3 2 -7q0 -14 -14 -14q-13 0 -184 -6q-114 -4 -186 2q-6 1 -9.5 5t-3.5 10q1 11 12 13q-3 2 -6 5q-8 9 -5 25q0 2 1 4q-73 -1 -97 2
q0 -67 9 -284q8 -189 3 -300q-2 -34 -10 -92q-9 -57 -11 -78q26 -3 69.5 -2t69.5 3t70 6q42 4 71 6q27 2 76 4t57 2q79 3 131 11h2q9 76 13 190q0 22 1.5 61.5t2.5 71.5l2 61q14 274 14 355h-1q-48 0 -73 -2q-1 -24 -3 -44q-1 -5 -3 -8zM361 602q28 3 70 2q8 0 22 -0.5
t25.5 -1t21.5 -0.5q14 0 14 -14t-14 -14l-69 2q-41 1 -68 -2q-5 -1 -9.5 3t-5.5 9.5t3 10t10 5.5zM779 596q0 -88 -14 -373q-1 -28 -2 -60.5t-2.5 -71.5t-1.5 -61q-4 -116 -13 -194q-2 -12 -14 -12q-2 -9 -12 -11q-53 -7 -134 -11q-8 0 -57 -2t-75 -4q-19 -1 -93 -7.5
t-115 -7.5q0 -2 -1 -5l-3 -12q149 2 291 15q33 3 108 3q67 0 105 6q6 1 10.5 -2.5t5.5 -9.5t-2.5 -10.5t-9.5 -5.5q-40 -6 -109 -6q-74 0 -106 -3q-159 -15 -328 -15q-6 0 -10 4t-4 10t4 10t10 4h3h3l5 17q-36 0 -67 4q-5 1 -9 5.5t-3 10.5q1 5 5 9q2 23 11 83q9 61 10 90
q5 105 -3 297q-9 226 -9 299q0 14 14 14q3 0 6 -1q3 1 7 1q22 -3 100 -2q1 19 7 30q9 15 27 19q3 1 9 2l9 2q3 0 7.5 2.5t8 6.5t7.5 10t1 22q0 1 -3 15t-3 20t3.5 10.5t9.5 4.5h4q3 1 6 1q29 0 86 2.5t86 2.5q10 0 13 -9q10 -4 9 -14q-5 -44 -4 -60q1 -6 2 -9q3 0 18 2
q27 3 47 1q8 -1 12 -2q8 -2 13 -8q4 4 9 4q14 0 14 -14v-26q25 2 72 2q3 0 6 -1q4 3 9 3q6 0 10 -4t4 -10zM820 565v-55v-57v-54q0 -42 -0.5 -58.5t-1 -54.5t-1.5 -58.5t-2 -54t-2.5 -58t-3.5 -53.5t-5 -56q-1 -12 -2 -46q-1 -44 -2 -58q-3 -34 -8 -57q-8 -30 -22 -44
q-10 -10 -20 0t0 20q9 9 14 31q5 20 8 52q1 17 2 57q1 35 2 47q3 30 5.5 60t4.5 65l2 59q1 24 2 65t1.5 59t0.5 65v59v65v60q0 14 14 14t14 -14zM312 389q33 4 73.5 6t68.5 2t75.5 -0.5t68.5 -0.5q14 0 14 -14t-14 -14q-22 0 -69.5 0.5t-75 0.5t-66.5 -2t-71 -6
q-6 -1 -10.5 2.5t-5.5 9.5t2.5 10.5t9.5 5.5zM309 321q39 -5 83 -5.5t101.5 1.5t85.5 2q14 0 14 -14t-14 -14q-26 0 -84 -2t-104 -1.5t-86 5.5q-5 1 -9 5.5t-3 10t5.5 9.5t10.5 3zM306 229q38 8 84.5 8t102.5 -4t82 -4q14 0 14 -14t-14 -14q-27 0 -67 3l-68 4
q-29 2 -64.5 0.5t-63.5 -7.5q-6 -1 -10.5 2t-6 9t1.5 10.5t9 6.5zM312 136q46 0 139 -0.5t139 -0.5q14 0 14 -14t-14 -14q-46 0 -139 0.5t-139 0.5q-14 0 -14 14t14 14z" />
    <glyph glyph-name="asciicircum" unicode="^" horiz-adv-x="877" 
d="M319 524l-1 -1q1 0 1 1zM385 409q-1 -9 -7 -17q-11 -15 -31 -23q-10 -5 -18 -5q-11 -1 -19 5q12 -10 31 -8q25 2 37 15t10 26q-1 3 -3 7zM308 421q2 4 5 6h-4q-11 -12 -11 -30q0 -14 7 -23q-5 7 -5 19q1 12 8 28zM352 457q27 -3 43.5 -16.5t19.5 -33.5q5 -28 -15.5 -49.5
t-56.5 -24.5q-34 -3 -53.5 16.5t-19.5 47.5q-1 27 18 48t51 21q10 0 13 -9zM339 396q8 4 13 9q-5 2 -6 1q-4 -3 -7 -10zM327 427l3 3q-3 -1 -7 -1q2 0 4 -1v-1zM310 550q34 13 76 15q53 3 98 -13q46 -17 63 -53q10 -23 10 -84q0 -32 -13 -61q-13 -30 -38 -49
q-22 -17 -63 -23q-6 -1 -17.5 -2.5t-15.5 -2.5q-11 -4 -23 -6q-11 -2 -22 -3q2 -1 3 -2q22 -30 64 -38q41 -9 86 2q46 11 86 34q40 24 60 52q28 40 37.5 78.5t5.5 89.5q-4 52 -15 72q-36 65 -79 92q-36 22 -89.5 24.5t-102.5 -14.5q-43 -16 -73 -43.5t-38 -64.5zM529 415
q-3 -3 -8 -5q-8 -2 -16 -3q-5 -1 -6 -2q-1 0 -13 -6q-1 -12 -3 -24l11 2q6 1 10.5 -2.5t5.5 -9.5t-2.5 -10.5t-9.5 -5.5l-20 -3h-4q-7 -19 -19 -33q22 4 35 14q18 14 28.5 38t10.5 50zM526 472q-1 0 -2 -1q-23 -6 -45 -13q4 -13 6 -28q4 1 6 2t8 2l16 4q9 2 14 -5
q0 25 -3 39zM515 498q-10 12 -27 21q-3 -6 -9 -8q-9 -2 -17 -4q-6 -2 -8 -2q-2 -1 -3 -1q9 -9 16 -21q23 9 48 15zM698 110v-1q1 -23 20 -40q7 -7 14 -7t15 8q6 8 -1 26q-6 18 -16 20q-3 1 -13 0q-8 -2 -19 -6zM525 112q-33 -8 -59 2q-3 -2 -13 -5q-12 -4 -53 -13t-63 -16
q-34 -10 -51 -24q-18 -13 -18 -31q0 -9 2 -17q2 -9 4 -10q16 -11 27 -9q8 1 16 11q6 7 13 21q4 9 4 10q2 3 3 4q3 5 7 7q11 5 34 5q2 0 17 1h13l4 1q5 0 9 1q7 1 12 0h6q8 -3 11 -10q4 -10 -4 -21l-2 -3q-3 -23 -3 -32q1 -8 2 -11q2 -2 8 -2q10 -2 31 0q4 0 21 -3h1v1
q0 5 -3 15q-3 15 -3 20q-2 13 1 21q4 8 16 18q9 9 24 19q29 19 69 40t73 32l3 1q-22 0 -53 -7q-13 -3 -35 -9.5t-24 -6.5q-15 -4 -23 -5q-14 -2 -22 4q-1 0 -2 1zM340 497q-53 -2 -79.5 -36t-20.5 -77q5 -41 39.5 -67.5t93.5 -19.5q2 2 4 2q10 3 24 6q31 13 46 48t10 74
q-6 45 -36 66q-27 20 -70 12q-3 -8 -11 -8zM432 532h16q1 0 2 1q-29 6 -62 4q-14 -1 -27 -3q33 3 59 -8q4 6 12 6zM550 203q7 -21 7 -51q0 -9 -8 -12q-1 -3 -4 -5h1q6 0 19 4q2 0 24 7q22 6 35 9q94 22 131 -19q3 -3 4 -7q9 -10 14 -24q12 -34 -6 -53q-16 -18 -36 -18
q-17 0 -32 14q-23 21 -28 52q-24 -10 -51 -23q-37 -20 -65 -38q-14 -10 -22 -17q-6 -5 -8 -8v-1v-5q1 -4 4 -18q3 -13 3 -20q1 -15 -7 -23q-9 -10 -27 -6l-14 2q-24 -2 -36 0q-18 2 -27 13q-7 10 -8 28q0 11 3 37l-3 -1h-3h-15q-14 0 -16 -1q-14 0 -20 -2q-1 -1 -1 -2l-2 -3
q-1 -2 -1 -3q-8 -17 -17 -27q-14 -18 -32 -21q-23 -4 -48 13q-11 8 -16 28q-2 11 -2 23q0 31 29 54q21 16 60 28q23 7 65 16q39 9 49 12t10 4q1 1 2 6q1 6 0 17q0 6 -1 18t-1 16v1q-71 4 -107 51q-8 11 2 20q-58 0 -94 32.5t-42 80.5q-6 50 22 91q-5 6 -2 13q11 31 47 51
q5 53 41.5 91t91.5 57q52 19 112.5 16.5t102.5 -28.5q51 -32 89 -102q14 -26 19 -84q5 -55 -6 -98q-11 -44 -43 -88q-20 -29 -57.5 -53t-80.5 -38v-1q2 -2 2 -5z" />
    <glyph glyph-name="underscore" unicode="_" horiz-adv-x="867" 
d="M565 650q-41 -31 -121 -84l-113 -77q-17 -13 -50 -33.5t-57.5 -38t-42.5 -36.5q-9 -9 -24 -47q-14 -37 -28 -86q-14 -50 -18 -82q-2 -17 -1 -26v-4q2 -1 6 -1q9 -1 24 -2q27 -1 66 1q37 1 68 4q30 3 36 5q24 9 59 38l29 25q17 15 29 23l175 129q5 4 41 28q30 21 49 36
q26 21 38 39q12 19 9 33q-7 34 -43 77q-37 44 -64 37q-4 -1 -22 -12l-50 -30l-136 -91l-134 -95l-45 -35q-9 -8 -13 -12l-5 -5q-25 -48 -15 -87q5 -18 18 -25q16 -9 45 -3q17 3 43 20q8 5 23 15.5t21 15.5q23 14 115 79l183 125q11 9 19.5 -2.5t-3.5 -19.5l-183 -125
q-92 -66 -115 -81q-7 -4 -22 -14l-22 -16q-31 -20 -53 -25q-39 -8 -65 6q-23 13 -31 43q-13 50 18 108q2 4 9 11l15 13q17 14 46 36l135 96l137 92l51 31q22 13 30 15q43 10 91 -47q41 -48 50 -89q5 -26 -14 -55q-14 -21 -43 -45q-20 -16 -52 -37q-36 -25 -40 -27l-175 -129
q-10 -8 -27 -22l-29 -25q-39 -33 -67 -43q-10 -4 -43 -7t-69 -4q-41 -2 -69 -1q-16 1 -26 2q-13 1 -19 5q-11 7 -12 26q-1 12 1 32q5 35 19 86q14 48 29 88q17 44 30 57q19 20 45.5 39t59.5 40l49 31q33 24 113 77l121 84q11 9 19.5 -2.5t-3.5 -19.5z" />
    <glyph glyph-name="grave" unicode="`" horiz-adv-x="937" 
d="M315 125q4 -8 6 -17q13 -67 -53 -128q-38 -36 -93 -61q7 1 14 3q57 19 103 70q51 56 37 106q-4 13 -14 27zM402 183q3 25 -14.5 43t-39.5 13h-1q-1 -3 -3 -5q-19 -19 -43 -51q38 -39 50 -65q8 12 23 30zM808 558q-8 4 -7 14q5 38 -12.5 63.5t-51.5 25.5h-9h-7h-5
q-2 0 -4 -1t-4 -3q-24 -15 -53 -58l-23 -35q-17 -25 -25 -36l-208 -274q16 -13 25 -33q33 27 93 86q71 70 106 99q22 18 61 47t69.5 54.5t54.5 50.5zM269 175q-27 4 -46 -15.5t-35 -60.5q-3 -8 -25 -75q-14 -45 -27 -62q-6 -8 -13 -15q48 27 80 70q12 21 28 60q5 19 8 28
q5 18 11 28q4 9 9 18q6 12 19 5q2 -1 3 -3q11 -3 19 -9l-23 23q-3 3 -4 8h-4zM342 267q16 3 31 -1l212 278q8 11 24 36t23 35q32 47 60 66q6 4 13 6t11 2.5t12 0t9 -0.5q49 0 73.5 -36.5t18.5 -84.5q0 -1 -1 -2q3 -1 5 -3q10 -9 0 -20q-25 -26 -57.5 -53.5t-73.5 -58
t-61 -47.5q-35 -29 -105 -97q-72 -70 -106 -97q1 -2 1 -4q3 -8 -2 -15l-2 -6q-2 -9 -11 -10l-20 -24q-19 -24 -30 -41q-3 -3 -7 -5q4 -56 -46 -112q-51 -57 -116 -77q-40 -11 -81 -8.5t-78 15.5q-27 9 -48 19q-9 3 -18 8h-1l-1 1l-4 4q-4 7 0 15q4 6 11 7l5 -1h1q2 -1 5 -2
q7 -3 11 -5l2 -1q29 -11 62 -2.5t51 32.5q10 14 23 54q21 68 25 77q39 104 111 94q4 -1 6 -3q25 34 45 54q3 3 8 4q3 7 10 9z" />
    <glyph glyph-name="a" unicode="a" horiz-adv-x="931" 
d="M234 744v-79q0 -44 2 -54q4 -23 15 -23q14 0 21 1q9 1 12 5q2 2 4 12q2 11 3 28q1 37 -5 71q-8 37 -20 49q-5 4 -10 3q-8 -1 -19 -10q-1 -2 -3 -3zM210 596l-2 -8q-3 -13 6 -21q20 -19 44.5 -24t44 1.5t33.5 19.5q19 18 15 30t-34 14l-2 -8q-3 -16 -9 -24
q-10 -12 -29 -15q-10 -1 -26 -1q-31 1 -41 36zM483 591q-16 -25 -9 -38q9 -19 48 -19q42 0 67 20q11 9 14 20q2 11 -6 26q-1 2 -2 3v-10q-1 -14 -3 -19q-8 -15 -28 -21q-9 -3 -26 -4q-26 -2 -41 13q-10 11 -14 29zM746 4q0 202 4 453q0 20 3 63t4 62q1 50 -4 83l-2 -69
q-2 -69 -6 -104q-11 -106 -49 -206.5t-100 -212.5q-4 -7 -12 -7q-5 -4 -12 -3l-15 3l-4 2q-3 -3 -8 -3q-41 0 -85.5 2t-102 5.5t-85.5 4.5q-13 2 -90 1t-94 -1q0 -5 1 -13q0 -3 2 -37q1 -23 2 -34q0 -4 1 -7q5 -1 12 -1q17 -1 46 0l50 3q29 1 32 1q25 1 77 1.5t92.5 2
t77.5 3.5q31 2 113 0q72 -2 110 3h5q5 7 13 6q11 -1 24 -1zM113 456l-2 1l-1 -3q1 1 3 2zM174 209q-28 -1 -46 -1q-59 1 -94 14q-25 -50 -61 -110q55 -8 144 -7h1l11 12q-3 8 3 13q13 15 34 61zM219 334q-13 0 -30 1t-33 0t-37 0t-36 5q-15 -45 -37 -93q30 -10 82 -11
q20 0 57 1l7 19q-1 6 3 11l2 2l8 22zM479 366q140 6 206 6q5 0 8 -3q13 47 20 93q-4 -4 -9 -4q-105 -7 -206 -8q-6 -36 -19 -84zM439 233q73 -1 127 3q8 1 39 4q25 3 41 3h3q22 52 37 101h-1q-65 0 -213 -6q-11 -40 -23 -76zM400 206h-3q-150 4 -169 4h-24q-6 -17 -13 -31
q-22 -49 -39 -67q1 -3 1 -6q81 1 121 -1q27 -1 72 -4v1q25 30 54 104zM450 365q13 48 20 85q-102 -1 -199 3q1 -23 -9 -66q-3 -12 -7 -26q71 -1 182 3zM217 238q0 1 -1 2l-1 -2h2zM245 314q-2 1 -3 2l-1 -5zM410 99l-3 -1l5 -1zM532 190h-4v-1v-1zM306 314h1h-1zM112 364h1
h-1zM99 389v5l-2 -6zM517 771q0 -21 -2.5 -61.5t-2.5 -45.5v-3q-1 -6 -1.5 -16t-0.5 -12q1 -4 -1 -8q-1 -15 1 -25q2 -13 7 -18q6 -6 19 -5q14 1 20 3q8 2 10 6l1 8v22h-1q-6 1 -9.5 6t-2.5 10q2 10 11 12q-1 20 -4 42q-5 40 -10 67q-4 14 -7 22l-2 4h-6q-17 -2 -18 -2h-2
q1 -3 1 -6zM772 708q15 -47 13 -127q-1 -19 -4 -61.5t-3 -62.5q-4 -252 -4 -455q7 -4 7 -12t-7 -12v-10q0 -14 -14 -14t-14 14v8q-15 0 -26 1h-2q-4 -5 -10 -6q-40 -5 -114 -3q-81 2 -111 0q-37 -2 -78 -3.5t-93 -2t-78 -1.5q-3 0 -32 -1l-49 -3q-30 -1 -48 0q-11 0 -18 2
q-4 0 -7 1q-6 2 -9 5l-4 7v2q0 2 -1 4q0 5 -1 12q-1 12 -2 36q-2 33 -2 37q-1 10 -1 15q-81 2 -138 15q-6 2 -9 7t-1.5 10.5t6.5 8.5t10 2q10 -3 19 -4q-1 5 2 9q65 107 101 202q35 93 39 198q1 20 -2 62q-3 45 -3 64q0 14 14 14q4 0 7 -2q4 4 10 4q41 0 71 3q5 1 9.5 -3
t5.5 -9.5t-3 -10t-10 -5.5q-30 -3 -73 -3h-3q1 -13 3 -50q3 -41 2 -66q-1 -19 -3 -39q21 -7 60 -6q6 0 12 0.5t13.5 1t12.5 0.5q23 2 37 1q214 -11 453 4q9 1 13 -7q1 8 2 15q4 35 6 103q1 47 2 71q-18 -2 -35 0q-2 -2 -4 -2q-11 -4 -24.5 -5t-23.5 -1t-25 0.5t-21 0.5
l2 -23q18 -8 27 -24q14 -24 9 -47q-4 -20 -24 -35q-33 -26 -84 -26q-57 0 -73 34q-19 38 33 95q0 5 1 11q-19 -3 -42.5 -4.5t-36.5 -1.5h-44h-37q-2 0 -4 1v-5q48 -4 58 -33q11 -30 -22 -60q-19 -17 -44.5 -25.5t-57.5 -2t-59 31.5q-19 18 -14 46q4 20 19 39q2 4 7 5v17v11
v98q0 14 14 14q4 0 8 -2q13 9 25 10q18 2 31 -11q20 -18 29 -63q4 -21 5 -44q3 1 5 1h39h46q12 0 35 1.5t41 5.5q5 86 5 96q0 14 14 14h2q-1 3 -1 6q0 14 14 14h4q2 0 5 0.5t6 1.5q14 1 23 -3q9 -5 14 -19q4 -10 8 -26q6 -28 11 -70h1q8 0 29.5 -1t34 0t24.5 4q2 1 3 1
q5 4 11 3q15 -2 36 1v4q1 6 5.5 10t9.5 3q3 0 5 -1q3 3 7 4q13 5 17 -9zM121 -59q47 0 150 -1.5t164 -1.5t147 4.5t156 14.5q6 1 10.5 -2.5t5.5 -9.5t-2.5 -10.5t-9.5 -5.5q-71 -10 -158 -14.5t-148.5 -4.5t-165 1.5t-149.5 1.5q-14 0 -14 14t14 14zM824 -40v-45
q0 -6 -4 -10t-9 -4q-4 -7 -11 -8q-122 -17 -319 -19q-262 -3 -318 -6q-6 0 -10.5 3.5t-4.5 9.5t3.5 10.5t9.5 4.5q55 3 319 6q190 2 307 18q-1 3 -1 7l2 11q1 2 1 3v2v3v9v1q-3 4 -2 9q4 25 3 73q-1 56 0 76q11 164 11 365q0 18 1 51.5t1 50t-2 50.5q-1 5 3 9.5t9.5 5.5
t10 -3t5.5 -10q2 -23 2 -49t-1 -57.5t-1 -47.5q0 -201 -11 -367q-1 -19 0 -74q1 -43 -2 -65q8 -4 8 -13z" />
    <glyph glyph-name="b" unicode="b" horiz-adv-x="1057" 
d="M952 531q6 -5 5 -13q-6 -27 -24 -72q-25 -63 -27 -68q-12 -40 -30.5 -114.5t-22.5 -92.5l-13 -40q-9 -30 -13 -49.5t-4 -38.5q0 -14 -14 -14q-9 0 -13 8q-3 -10 -12 -15q-2 -1 -5 -1h-4q-3 -1 -8 -1q-10 0 -26 1q-28 1 -75 4q-80 4 -122 7q-12 1 -37 1.5t-61 0.5
q-34 1 -62 2q-60 2 -92 5q-45 4 -60 12q-11 6 -26 28q-13 18 -30 49q-30 55 -69 141q-80 177 -100 244q-4 13 8 17q3 11 14 11q14 0 27.5 2t38.5 7t31 6q67 12 107 -2q25 -9 42 -41q15 -28 21 -34q5 20 11 39q6 18 12 29q3 7 7 11q5 8 11 10q4 2 14 2q8 0 21 1q24 0 68 -1
q37 0 198 -6q116 -4 200 -8q44 -3 70 -5q30 -2 36 -5q12 -4 8 -17zM348 544q-2 -3 -4 -7q-5 -10 -10 -26q-6 -17 -10 -35q22 -1 60 0q24 0 61.5 1.5t44.5 1.5q6 0 38 2q38 3 64 4q41 2 62 1q15 0 24 -2q14 -2 19 -9q5 -5 11 -22q4 -14 9 -36q8 -36 21 -101l20 -105
q10 -52 14 -66q1 -2 8 -22q8 -21 12 -35q3 -11 5 -20q2 18 7 36.5t12 41.5t9 33q5 17 23.5 92.5t31.5 114.5q5 16 27 71q17 41 22 66q-9 1 -24 2q-25 2 -69 5q-83 4 -199 8q-161 6 -198 6q-42 1 -67 1q-12 0 -20 -1h-4zM456 166h-3q-16 0 -44 1.5t-39 1.5q5 -55 33 -105
q16 -1 78 -2l-10 23q-10 25 -15 44q-1 5 0 29v8zM356 197q16 0 48.5 -1.5t48.5 -1.5q1 0 5 1q13 3 20 -7q5 -5 5 -16q1 -5 1 -15q-1 -19 0 -22q4 -16 13 -39q13 -32 14 -35q24 0 35 -1q41 -3 121 -7q47 -3 75 -4q16 -1 25 -1h2h2v4q-1 11 -6 29l-11 32l-8 24q-5 15 -15 69
l-21 105q-12 65 -20 100q-5 21 -9 33q-2 8 -4 12q-2 0 -4 1q-7 1 -20 1q-21 1 -60 -1q-25 -1 -63 -4q-33 -2 -40 -2t-44 -1.5t-61 -1.5q-39 -1 -62 0q-15 1 -23 3q-13 2 -19 6q-12 10 -31 45q-11 22 -27 28q-33 11 -92 0q-80 -14 -95 -15q24 -71 97 -233q40 -89 68 -138
q16 -30 28 -47q11 -17 17 -20q9 -5 49 -8q29 -3 76 -5q-25 53 -29 109q0 3 1 6q-1 2 -1 4q0 6 4 10t10 4z" />
    <glyph glyph-name="c" unicode="c" horiz-adv-x="922" 
d="M667 488q-16 -19 -30 -34v-2v-11q11 20 30 47zM791 560q4 6 3 9q-2 4 -10 8q-25 10 -44 0q-3 -1 -6 -1q-1 -3 -3 -6l-7 -8q10 4 16 -4q3 -4 3 -8q3 0 7 1q15 1 29 4q6 2 10 4q1 0 2 1zM233 11q-40 -1 -71 -2q0 -8 3 -13q4 -10 19 -10q18 0 34 12q10 6 15 13zM180 37
q25 1 56 2q-6 13 -22 15q-25 4 -34 -17zM536 8q5 4 8 10q-13 0 -31 0.5t-20 0.5h-1h-1q6 -10 23 -12q3 -1 13 0q4 0 8 1h1zM525 67q-2 -1 -4 -1q-20 0 -30 -19h2q2 0 20.5 -0.5t32.5 -0.5q-2 5 -6 10q-7 8 -15 11zM118 343q-1 21 -3 38q-41 -1 -71 4q-3 -27 -3 -37l-1 -3
q31 -3 78 -2zM119 315q-49 -1 -81 2q-1 -33 3 -47l2 -2q5 -3 13 -6q15 -7 43 -14q9 -2 19 -5q0 11 0.5 35t0.5 37zM248 222h-38l38 -9v9zM247 343l2 42h-34q-12 0 -71 -3q1 -18 2 -38h57q20 0 44 -1zM247 315q-24 1 -44 1q-19 0 -56 -1q0 -13 -0.5 -36.5t-0.5 -29.5q2 1 5 1
h97q-1 48 -1 65zM435 338h22q13 0 45.5 1t57.5 0.5t47 -3.5q1 28 1 49h-169v-1q-3 -21 -4 -46zM431 250q96 -1 172 -6q1 13 3 64h-2q-21 3 -44.5 3.5t-55.5 -0.5t-47 -1h-24q-1 -27 -2 -60zM431 222v-39q0 -5 -3 -9q88 -18 173 -33q0 33 1 75q-76 5 -171 6zM407 338
q1 25 4 47h-134q-1 -20 -2 -43q97 -3 132 -4zM403 250q1 33 2 60q-35 1 -130 4q0 -17 1 -64q78 1 127 0zM403 222q-49 1 -127 1v-13v-3l128 -28q-1 2 -1 4v39zM610 467q21 21 50 58l49 63q5 5 11 5q2 7 8 10q14 6 32.5 6t33.5 -6q20 -8 26 -23q7 -19 -8 -39q-4 -4 -12 -8
q-6 -2 -14 -5q-17 -4 -34 -5q-18 -2 -27 1q-1 -1 -1 -2q-6 -8 -23 -32.5t-27 -40.5t-18 -33q-7 -13 -19 -7q-1 -33 -5 -129q-3 -93 -3 -144l19 -3q6 -1 9.5 -6t2.5 -10.5t-6 -9t-10 -2.5l-13 2q2 -12 3 -21q2 -16 1 -28q-1 -15 -6 -24q-4 -7 -15 -11q-6 -2 -16 -3t-24 -2
q-5 -19 -22 -33q-5 -3 -13 -5q-4 -1 -11 -1q-12 -1 -18 0q-41 6 -49 40q-51 -1 -197 -7q-6 -22 -30 -37.5t-50 -16.5q-32 0 -44 25q-6 11 -6 25h-38q-14 0 -14 14t14 14h43q2 8 5 16q5 12 17 8q21 28 58 22q16 -3 29 -14t17 -28q145 6 196 7q3 11 10 21q1 4 4 8q21 22 47 20
q23 -2 39 -22q10 -12 14 -28q12 1 20 2q7 1 11 2q1 4 1 10q0 9 -1 23q-1 12 -4 29q-210 37 -429 90q-1 1 -31.5 7.5t-50.5 11.5q-29 8 -46 15q-11 5 -18 9q-10 7 -12 16q-8 24 -2 90q1 10 2.5 27.5t1.5 21.5q3 26 3 38q0 14 14 14h2q3 2 6 2q65 5 144 7t134.5 1.5t148.5 -1
t138 -0.5q1 3 3 6zM303 670q4 -25 9 -77q0 -5 1 -9q26 53 67 103q60 71 109 76q5 1 9.5 -3t5.5 -9.5t-3 -10t-10 -5.5q-37 -4 -89 -66q-44 -52 -68 -105l2 1q14 3 77 22q13 5 17.5 -8.5t-9.5 -17.5q-64 -20 -79 -24q-33 -6 -46 8q-9 11 -12 45q-5 52 -9 76q-1 5 2.5 10t9 6
t10.5 -2.5t6 -9.5z" />
    <glyph glyph-name="d" unicode="d" horiz-adv-x="922" 
d="M667 488q-16 -19 -30 -34v-2v-11q11 20 30 47zM791 560q4 6 3 9q-2 4 -10 8q-25 10 -44 0q-3 -1 -6 -1q-1 -3 -3 -6l-7 -8q10 4 16 -4q3 -4 3 -8q3 0 7 1q15 1 29 4q6 2 10 4q1 0 2 1zM233 11q-40 -1 -71 -2q0 -8 3 -13q4 -10 19 -10q18 0 34 12q10 6 15 13zM180 37
q25 1 56 2q-6 13 -22 15q-25 4 -34 -17zM536 8q5 4 8 10q-13 0 -31 0.5t-20 0.5h-1h-1q6 -10 23 -12q3 -1 13 0q4 0 8 1h1zM525 67q-2 -1 -4 -1q-20 0 -30 -19h2q2 0 20.5 -0.5t32.5 -0.5q-2 5 -6 10q-7 8 -15 11zM118 343q-1 21 -3 38q-41 -1 -71 4q-3 -27 -3 -37l-1 -3
q31 -3 78 -2zM119 315q-49 -1 -81 2q-1 -33 3 -47l2 -2q5 -3 13 -6q15 -7 43 -14q9 -2 19 -5q0 11 0.5 35t0.5 37zM248 222h-38l38 -9v9zM247 343l2 42h-34q-12 0 -71 -3q1 -18 2 -38h57q20 0 44 -1zM247 315q-24 1 -44 1q-19 0 -56 -1q0 -13 -0.5 -36.5t-0.5 -29.5q2 1 5 1
h97q-1 48 -1 65zM435 338h22q13 0 45.5 1t57.5 0.5t47 -3.5q1 28 1 49h-169v-1q-3 -21 -4 -46zM431 250q96 -1 172 -6q1 13 3 64h-2q-21 3 -44.5 3.5t-55.5 -0.5t-47 -1h-24q-1 -27 -2 -60zM431 222v-39q0 -5 -3 -9q88 -18 173 -33q0 33 1 75q-76 5 -171 6zM407 338
q1 25 4 47h-134q-1 -20 -2 -43q97 -3 132 -4zM403 250q1 33 2 60q-35 1 -130 4q0 -17 1 -64q78 1 127 0zM403 222q-49 1 -127 1v-13v-3l128 -28q-1 2 -1 4v39zM610 467q21 21 50 58l49 63q5 5 11 5q2 7 8 10q14 6 32.5 6t33.5 -6q20 -8 26 -23q7 -19 -8 -39q-4 -4 -12 -8
q-6 -2 -14 -5q-17 -4 -34 -5q-18 -2 -27 1q-1 -1 -1 -2q-6 -8 -23 -32.5t-27 -40.5t-18 -33q-7 -13 -19 -7q-1 -33 -5 -129q-3 -93 -3 -144l19 -3q6 -1 9.5 -6t2.5 -10.5t-6 -9t-10 -2.5l-13 2q2 -12 3 -21q2 -16 1 -28q-1 -15 -6 -24q-4 -7 -15 -11q-6 -2 -16 -3t-24 -2
q-5 -19 -22 -33q-5 -3 -13 -5q-4 -1 -11 -1q-12 -1 -18 0q-41 6 -49 40q-51 -1 -197 -7q-6 -22 -30 -37.5t-50 -16.5q-32 0 -44 25q-6 11 -6 25h-38q-14 0 -14 14t14 14h43q2 8 5 16q5 12 17 8q21 28 58 22q16 -3 29 -14t17 -28q145 6 196 7q3 11 10 21q1 4 4 8q21 22 47 20
q23 -2 39 -22q10 -12 14 -28q12 1 20 2q7 1 11 2q1 4 1 10q0 9 -1 23q-1 12 -4 29q-210 37 -429 90q-1 1 -31.5 7.5t-50.5 11.5q-29 8 -46 15q-11 5 -18 9q-10 7 -12 16q-8 24 -2 90q1 10 2.5 27.5t1.5 21.5q3 26 3 38q0 14 14 14h2q3 2 6 2q65 5 144 7t134.5 1.5t148.5 -1
t138 -0.5q1 3 3 6zM187 702q67 0 115 -59q12 -14 23.5 -32.5t24 -41t18.5 -32.5q7 -11 -4.5 -18.5t-19.5 4.5l-20 33l-22 39q-11 17 -22 30q-39 49 -93 49q-14 0 -14 14t14 14zM194 603q-2 3 -36 46q-14 18 -20 28q-5 7 -7 13q-4 8 -3 15q6 22 35 34q22 8 55 12q61 6 100 -2
q6 -2 9 -6.5t1.5 -10.5t-6 -9t-10.5 -2q-34 8 -91 2q-30 -3 -47 -10q-14 -6 -18 -12q2 -3 5 -9q6 -9 19 -26q36 -45 38 -49q7 -12 -5 -19t-19 5z" />
    <glyph glyph-name="e" unicode="e" 
d="M458 345q7 9 13 19v4zM377 298h2q12 5 27 22q24 28 49 79l15 29q1 14 4 26q-28 17 -63 -1q-31 -16 -49 -50q-27 -62 15 -105zM753 58l-1 -1h4zM175 287q-66 50 -170 113l-4 -66q-6 -105 -1 -170q18 17 49 36q8 4 25 13.5t28 16.5l21 14zM751 417q-9 4 -9 13q0 12 1.5 37
t1.5 35q2 44 -5 66q-2 6 -25 11q-22 5 -64 6q-34 1 -99 -2q25 -17 57 -55q33 -41 39.5 -84t-7.5 -74t-41 -52q-34 -26 -68 -24q-16 -3 -30 5q-15 9 -23 28q-44 -54 -96 -57q-1 0 -2 -1q-22 -5 -40 9q-4 1 -9 4q-37 19 -27 77q7 48 41 92q37 48 80 53q13 2 25 -1q18 1 36 -5
q39 -13 37 -64v-2q-2 -35 -24 -74q5 -29 25 -35q3 -1 6 -1q10 2 23 12q27 21 42.5 59t4.5 71q-9 26 -53 61q-33 26 -70.5 33t-72 -3t-66.5 -34q-48 -36 -75 -92q-26 -56 -18 -112q6 -45 63 -91q55 -44 118.5 -49t120.5 22q54 26 107 79l20 20q39 43 63 88q3 7 11 7
q-1 4 -1 8l2 14q0 1 1 2zM529 610q3 0 48 2t74 1q44 -1 70 -7q39 -8 45 -30q9 -26 7 -75q0 -11 -1.5 -31.5t-1.5 -29.5q6 4 13 2q13 -3 9 -17q-9 -31 -25 -58.5t-31 -44.5t-41 -44q-46 -50 -100 -85q20 -21 43 -39.5t58 -43.5l49 -36q0 40 6 120q5 81 5 121q0 14 14 14
t14 -14q0 -41 -6 -123q-5 -81 -5 -121q0 -6 -4 -10t-10 -4h5h3q14 0 14 -14t-14 -14q-98 0 -294.5 3t-294.5 3q-1 0 -38 -1t-62 0q-37 0 -58 3q-14 2 -22 5q-14 5 -17 15t-3 29t-1 23q-12 84 -4 227q9 165 6 223q-1 12 11 15q3 9 14 9q141 -6 373 21q10 1 14 -7q62 21 124 3
q3 10 14 10zM215 283q-13 -10 -38 -31t-38 -30q-10 -8 -22 -15.5t-29.5 -17t-23.5 -13.5q-44 -26 -61 -50l2 -14q1 -6 1 -26q0 -12 1 -18q6 -2 16 -3q20 -3 55 -3q25 -1 62 0t38 1q97 0 279.5 -3t263.5 -3l-37 27l-41 30l-36 30q-21 17 -37 34l-3 -2q-45 -23 -88.5 -32.5
t-91.5 -1t-89 39.5q-63 45 -77 97q-1 4 -2 7q-2 -2 -4 -3zM214 310q-7 55 12 110q19 58 58 103q25 29 56 48q-200 -22 -333 -16q3 -52 -1 -123l1 -1q115 -69 186 -122q3 4 11 4q7 0 10 -3z" />
    <glyph glyph-name="f" unicode="f" horiz-adv-x="869" 
d="M474 265q64 -31 143 -87q82 -59 125 -108q-1 22 -5 63.5t-5 61.5q-1 22 -3 168q-1 91 -7 146q-16 -21 -37 -41.5t-53 -46.5l-41 -34q-35 -32 -83 -84zM298 226q-18 -3 -47 -19q-31 -18 -76 -52l-75 -59q-43 -35 -61 -47q-2 -1 -4 -1v-6q1 -15 3 -23l1 -1q6 -2 16 -3
q19 -3 53 -3h38q21 0 37 0.5t20 0.5q48 0 136 -1.5t159.5 -1.5t135.5 3q11 1 28 1t27 0.5t23 2.5t25 7q1 1 3 1v2q-32 51 -140 128q-84 60 -145 89l-27 -30q-16 -17 -17 -17q-16 -16 -29 -17q-5 0 -13 3l-12 5q-13 7 -32 20zM269 247l-32 23l-142 107q-12 10 -40 39
q-17 18 -30 28q-2 -81 -1 -183t9 -181q12 9 49 38l76 60q47 35 79 53q18 10 32 16zM13 547q20 -4 46 -4.5t45.5 1t50.5 4.5q30 3 47 4q185 12 387 12q9 0 44 1t58.5 0t45.5 -4q6 -1 9.5 -5.5t2.5 -10.5q-1 -4 -4 -8q2 -3 3 -6q8 -62 9 -168q2 -145 3 -166q1 -17 4.5 -55.5
t4.5 -59t-1 -57.5q-1 -10 -12 -12q2 -11 -9 -15q-13 -5 -29 -8t-27 -3.5t-29 -1t-26 -0.5q-64 -3 -136.5 -3t-160.5 1.5t-136 1.5q-4 0 -20 -0.5t-37 -0.5h-38q-36 0 -57 3q-13 2 -21 5q-13 4 -17 14q-5 12 -6 35l-1 31q-7 68 -9 136t-0.5 178t1.5 135q0 2 1 4q-4 5 -3 11
q1 5 6 8.5t11 2.5zM33 473q18 -12 43 -38q26 -27 37 -36l140 -107l53 -37h1q11 0 13 -10l20 -13q19 -13 30 -19q6 -3 10 -4q0 -1 1 -1q4 2 11 9l6 6q3 3 6 6.5t4 4.5l20 22q-7 6 -4 15q5 13 18 8l5 -2l41 45q49 54 85 85q11 11 42 36.5t50.5 44.5t35.5 39q8 11 19 3q0 3 1 5
q-19 2 -40 2t-50 -0.5t-42 -0.5q-208 0 -385 -12l-56 -5q-46 -4 -61.5 -4.5t-60.5 1.5v-41q3 0 7 -2z" />
    <glyph glyph-name="g" unicode="g" horiz-adv-x="901" 
d="M599 197q1 -5 1 -10q-2 -74 -62 -122t-161 -32q-70 12 -100 66t-18 118l4 16q-8 -6 -25.5 -17t-19.5 -13q-40 -26 -56 -60t-23 -93q0 -2 -2 -10q-3 -10 -4 -15q-1 -6 -2 -11h7q13 -1 35 -2q12 0 26 0.5t25 0.5h13q62 0 187 -1.5t188 -1.5q3 0 27.5 -1.5t41.5 -1.5h17v3
q1 5 5.5 9t10.5 3q10 -1 12 -12q2 1 4 1q6 18 6 85q0 45 -14 62q-10 12 -33 15q-4 1 -19 2t-24.5 2.5t-23 6.5t-23.5 13zM152 -15q6 -6 15 -6q4 1 10 5h-4q-11 1 -21 1zM445 320q-4 -2 -9 -1q-10 2 -20 3q-16 -1 -32 -3q-39 -8 -64 -37q-25 -30 -33 -71q-11 -54 13.5 -97.5
t80.5 -52.5q89 -15 139 25q51 41 52 102q0 48 -32.5 86.5t-94.5 45.5zM385 259q1 -3 2 -5q3 -9 -3 -16q-5 -6 -13 -5q-14 0 -18 14v1q-2 3 -2 7q-3 7 2 13q4 7 13 6q7 3 14 -2q6 -5 5 -13zM245 266q0 -13 -12 -15q-96 -14 -105 -14l-10 -2q-23 -4 -36 1q-5 1 -8 4
q-16 11 -18 39q-1 22 6 54q6 28 17 54q10 26 20 36q62 64 244 91q75 11 148.5 11t118.5 -12q69 -19 128 -80t61 -131q0 -2 1 -6q1 -8 1 -9q2 -15 -4 -25q-4 -7 -15 -11q-7 -3 -18 -6q-18 -5 -47 -9q-28 -4 -48 -5q-11 -1 -19 0q-4 0 -7 1q-6 1 -9.5 4.5t-4.5 8.5q-1 2 -2 6
q-1 5 -2 15q0 5 -1 19l-3 23q-3 27 -6 44q-4 21 -9 28q-19 26 -47 33q-10 3 -34 5q33 -25 49 -86q3 -9 8 -28l6 -29q3 -10 8 -23t12 -22q6 -10 16.5 -16t17.5 -7.5t25 -3t26 -2.5q34 -5 50 -25q21 -25 21 -80q0 -75 -9 -97q-4 -9 -15 -14q-6 -2 -17 -4h-3q-8 -24 -23 -32
q-31 -15 -58 32h-1q-24 1 -26 1q-63 0 -188 1.5t-187 1.5h-23q-19 -28 -41 -33q-28 -7 -50 25q-4 5 -3 11q-3 1 -5 2q-5 2 -8 5q-3 5 -4 11v8q1 7 3 17l3 15q2 7 2 8q8 63 26.5 102.5t64.5 70.5q7 4 21.5 13t20 13.5t14.5 13t15 18.5q4 6 30 63q11 25 18 37q11 20 19 26l8 4
q-24 -3 -30 -7q-14 -10 -35 -60q-32 -74 -34 -78q-1 -3 -4 -4zM771 285q0 -6 -5 -10l6 2h1q1 2 0 6v2h-2zM684 -26q2 1 5 5h-8h-6q5 -5 9 -5zM501 397q-13 -1 -38 0q-32 2 -41 2q-47 0 -66 -12q-3 -1 -10 -15q-7 -12 -17 -35l-7 -16q41 32 96 29q84 0 135 -48l-6 23
q-14 54 -42 73q-2 -1 -4 -1zM500 111h-16q-14 0 -14 14t14 14h16q14 0 14 -14t-14 -14zM662 307q41 -8 106 6h2q-7 56 -58 106.5t-110 65.5q-41 12 -110.5 12t-144.5 -11q-78 -12 -139 -33t-89 -50q-6 -6 -14 -27q-10 -23 -16 -49q-3 -16 -4 -29q18 0 27.5 -1t28.5 2l29 5
q10 1 30 4.5t30 5.5q4 1 8 -1l19 46q25 57 45 71q13 10 53 14q32 4 78 4q98 1 132 -7q39 -10 63 -45q9 -12 14 -39q4 -18 7 -47l1 -6q5 4 12 3zM348 171q0 -14 -14 -14t-14 14t14 14t14 -14zM395 110q0 -14 -14 -14t-14 14t14 14t14 -14zM542 208q0 -14 -14 -14t-14 14
t14 14t14 -14zM482 260q0 -14 -14 -14t-14 14t14 14t14 -14z" />
    <glyph glyph-name="h" unicode="h" horiz-adv-x="685" 
d="M531 489q-18 30 -95 57q-20 7 -65 20q-26 7 -39 12q-8 -12 -20 -28q-37 -45 -39 -48l-119 -180q-64 -96 -72 -110q-45 -78 -43 -114q0 -3 5 -9q6 -8 18 -18q24 -20 59.5 -39.5t64.5 -28.5q14 -5 23 -6h8q20 15 44 60l20 39q11 23 19 36q31 48 94 132l84 115q4 6 21 27
q15 19 23 30q12 20 13 34l-2 2q-7 8 -2 17zM242 -19q23 -2 44 21q9 10 23 32q18 27 25 36q38 48 86 130q14 24 73 96q48 59 61 94q8 21 0 46l-9 -15q-8 -13 -24 -33l-21 -25l-83 -115q-62 -84 -93 -132q-7 -11 -18 -33l-20 -39q-23 -44 -44 -63zM328 623l3 3q12 15 20 24
q13 14 23 22q16 13 28 11q26 -4 29 -24q3 -13 -7 -31q-9 -17 -30 -40q32 -9 51 -16q87 -30 110 -69q7 -11 8 -23q35 -50 17 -100q-15 -40 -65 -102q-58 -70 -71 -92q-50 -85 -88 -134q-5 -5 -23 -33q-16 -24 -27 -36q-37 -41 -85 -25q-9 2 -10 11h-4q-13 1 -30 7
q-31 10 -69 31t-64 43q-14 11 -22 22q-10 13 -11 24q-3 45 47 130q9 16 72 112q104 157 121 180q2 3 39 49q11 14 17 24q-2 6 0 11q3 8 11 9q1 0 1 1l1 1l1 3q2 4 7 7zM404 653q-2 2 -6 2q-3 -2 -7 -5q-8 -6 -19 -19l-20 -23l-5 -6l21 -6q0 5 4 9q20 23 28 36q4 9 4 12z
M357 316q25 12 50 42q22 27 51 77l-135 61l-51 -67q-26 -36 -30 -54q-3 -18 15 -29q26 -18 96 -28q2 0 4 -2zM181 301q12 9 20.5 -2.5t-2.5 -19.5l-14 -11l-3 -2h-1v-1h-1l-1 -1q-2 -1 -4 -1q-4 0 -7 1q-8 3 -9 11l2 10l1 1l1 1l1 1h1l2 2l11 9q1 1 3 2zM254 271q0 -5 -4 -9
q-2 -3 -4 -7l-2 -2l-1 -1l-15 -16q-9 -10 -20 0q-3 3 -4 7q0 2 -1 3q-3 7 0 14q3 5 10 11q7 5 20 13q7 5 15 0q11 1 6 -13zM141 203q0 -1 -1 -2l-10 -12l-3 -3q-1 -2 -3 -3q-1 0 -2 -0.5t-4.5 -1t-5.5 1.5q-9 4 -9 14l2 5q0 1 1 1q2 4 11 16l13 17l2 2q2 1 3 2q9 4 16 -3
q3 -3 4 -6t1 -5l-1 -2q0 -1 -1 -3q0 -1 -1 -2q-2 -3 -7 -12q-2 -2 -5 -4zM487 429q-34 -61 -58 -89q-46 -55 -94 -58q-6 0 -10.5 3.5t-4.5 9.5q-53 11 -79 27q-34 22 -26 59q5 24 35 64l26 33l30 41q6 9 17 5q4 0 8 -1l148 -66q8 -4 8 -14q4 -7 0 -14zM301 229l-15 -11
q-11 -9 -19.5 2.5t3.5 19.5l15 11q11 9 19.5 -2.5t-3.5 -19.5zM202 189q-1 -1 -6 -7l-8 -11q-2 -3 -3 -4t-1 -2q-3 -2 -6 -3q-9 -3 -15 4q-3 4 -3 9v5q1 3 9 17q2 5 8 6q4 5 7 8q11 9 20 -2t-2 -20zM258 167q-14 -13 -22 -24q-9 -11 -20 -2t-2 20l24 26q10 10 20 0t0 -20z
M94 148q87 -35 96 -38q13 -5 8 -18t-18 -8q-9 3 -96 38q-13 5 -8 18t18 8z" />
    <glyph glyph-name="i" unicode="i" horiz-adv-x="641" 
d="M502 711q-30 0 -108 5t-104 6q-135 7 -188 -9q-8 -102 -6.5 -164.5t8 -171.5t6.5 -169q0 -8 -1.5 -42.5t-2.5 -54.5q-1 -34 0 -55t4 -27q0 -1 1 -1q5 -2 12 -4q16 -4 44 -7q52 -5 129 -5q74 0 130 5q28 2 44 5q8 2 13 3q1 1 2 1q3 6 7 24q3 19 5 52q3 45 3 92
q0 159 3 246q1 25 6 87t4 103t-11 81zM90 739q58 18 201 11q26 -1 104 -6t108 -5q10 0 13 -9q10 -1 13 -10q11 -44 12.5 -88t-4 -108.5t-6.5 -83.5q-3 -87 -3 -246q0 -47 -3 -94q-2 -34 -6 -54q-5 -29 -14 -39q-4 -5 -13 -8q-7 -2 -16 -4q-18 -4 -48 -6q-57 -5 -132 -5
q-78 0 -132 5q-30 3 -48 8q-10 2 -17 6q-9 4 -13 11q-6 11 -8 41q-1 22 0 57q1 20 2.5 54t1.5 42q0 50 -4 125.5t-7.5 134.5t-3 131t7.5 128q2 13 15 12zM439 618q-1 0 -2 1q-4 0 -10 1q-12 0 -33 1q-36 0 -99 -1q-36 0 -93 -1.5t-68 -1.5q3 -36 1 -94q-2 -82 -1 -108
q6 -125 22 -222q1 -6 -1 -26q0 -9 1 -12q2 -1 7 -2q10 -3 28 -5q32 -3 85 -4q106 -1 145 4q9 1 23 15v1v14q1 18 2 52q1 61 3 156q1 88 2 156v51v14v1q-4 6 -12 10zM125 645h1q9 0 35 0.5t65 1.5t69 1q63 1 99 1q22 -1 35 -2q7 0 12 -1q7 -1 10 -2q17 -9 26 -24l2 -5v-1v-2
v-4v-15v-52q-1 -67 -2 -156q-2 -94 -3 -156q-1 -34 -2 -52v-15q-1 -3 -1 -5v-2v-1q-1 -3 -3 -5q-17 -25 -43 -29q-42 -5 -149 -4q-55 1 -88 4q-20 2 -32 5q-7 2 -12 5q-8 3 -11 9q-7 11 -5 30q1 17 0 20q-16 95 -22 224q-1 27 1 111q2 71 -3 107q-1 6 2.5 10.5t9.5 5.5
q5 1 9 -2zM306 92q9 0 16 -2q15 -4 18 -17q2 -10 -5 -20q-5 -7 -12.5 -12.5t-15.5 -7.5q-12 -4 -21 3q-10 7 -8 23q1 6 4 15v1q-1 12 10 15q6 5 14 2zM164 413q6 38 41.5 59.5t78.5 22.5q45 2 82 -18.5t48 -62.5q1 -5 -2 -10t-9 -7h-1q-3 -3 -7 -4q-29 -6 -45 9q-6 6 -16 28
q-6 14 -14 19q-13 8 -41 5q-21 -2 -42 -12q-5 -2 -8 -4l2 -2q5 -4 7 -6q10 -12 8 -25q-2 -14 -19 -19q-9 -2 -22 -2q-17 1 -33 4q-6 2 -9 6.5t-2 10.5q1 3 3 6v2zM268 704q10 0 30 -1t28 -1q14 0 14 -14t-14 -14q-10 0 -30 1t-28 1q-14 0 -14 14t14 14z" />
    <glyph glyph-name="j" unicode="j" horiz-adv-x="1031" 
d="M379 535q-9 18 -13 35q-56 15 -99 36q-4 2 -10 6t-14 10t-12 8q-11 8 -18 11l-8 3q-8 -1 -15 -23l-5 -23q0 -2 -1.5 -10t-2 -11t-14.5 -43q-5 -14 -6 -22q-1 -5 -2 -8h3q1 -1 10 0t24 3q20 3 68 11q90 15 115 17zM174 476q8 -13 17 -24q10 -14 19 -21l9 -6q1 0 7 4t15 13
q27 25 30 27q27 17 53 30l-55 -9q-49 -8 -69 -11q-16 -2 -26 -3zM430 635h-129q-9 0 -29 1q5 -3 7 -4q35 -17 78 -30q-2 10 8 15q26 11 65 18zM619 728q-6 0 -18 -9q-17 -11 -39 -35q-25 -28 -44 -54q4 -3 6 -6q13 -14 14 -36h1q7 0 31 -3q44 -4 45 -4q28 -3 42 -4h7
q-1 6 -3 14q-5 27 -14 58q-9 35 -18 57q-4 12 -8 19q-1 2 -2 3zM663 494q1 3 1 6q1 8 1 20q-3 -4 -11 -4q-14 0 -14 14t14 14q8 0 11 -4v9h-9q-15 1 -43 4q-2 0 -46 5q-22 2 -28 2h-3q-2 -5 -4 -11q37 -19 69 -33q30 -13 48 -19q9 -3 14 -3zM405 380q17 46 26 91
q-37 -101 -88 -164q-40 -48 -87 -72l10 -1q48 -8 64 -10q5 14 16 31q15 23 17 28q21 42 37 84v1q0 7 5 12zM501 459q0 -8 -1 -16q13 -53 20 -78q30 -105 76 -141q8 -7 37 -4q5 1 11 2l-21 22v1q-4 -4 -11 -4q-14 0 -14 14q0 8 5 12q-9 10 -15 18l-11 17q-3 -1 -6 -1
q-14 0 -14 14q0 8 5 12q-35 60 -61 132zM491 489l-5 16l-1 -1l4 -15h2zM398 0q-5 4 -5 11q0 43 6 180q2 65 2 106l-12 -26q-4 -7 -20 -31q-10 -16 -14 -28q-2 -9 -11 -10q-5 -6 -12 -6q-11 0 -70 10q-26 4 -42 7l-15 3q-3 1 -5 2q-2 0 -3 1q-4 2 -7 7q-3 7 -1 13.5t9 9.5
q5 2 13 3h5h6q4 1 5 1q51 19 94 72q51 63 90 173h-5q-2 0 -3 -1q-56 -11 -116 -52q-1 0 -27 -24q-10 -10 -18 -15q-11 -8 -21 -9q-13 -1 -29 12q-11 10 -23 26q-23 29 -32 49v1q-3 4 -4 8q-3 10 0 25q2 10 8 25l3 10q-2 -1 -5 -1q-85 0 -97 1q0 -88 3 -271t3 -277
q0 -4 -2 -7q71 -5 109.5 -4.5t111 3.5t111.5 3h20zM784 -24v1l1 1q-4 4 -4 10q0 35 -1 109t0 131q0 53 2 109q1 30 10 103q8 75 7 114q-11 -8 -20 2q-2 3 -3 6q-5 0 -33 -2q-31 -3 -50 -2v-16v-19q0 -16 -1 -26q-2 -16 -8 -24q-7 -8 -22 -7q-8 0 -21 4q-21 6 -51 20l-71 35
q-4 -4 -7 -8q35 -120 100 -216q10 -15 31 -37l32 -35l3 1q6 1 11 -2t6.5 -8.5t-1.5 -10.5t-8 -7q-29 -7 -50 -9q-40 -5 -58 9q-44 35 -73 117q1 -11 6 -52t7 -64q4 -41 3 -101q0 -14 -0.5 -48t-0.5 -52q0 -3 -1 -6q200 -8 251 -8q12 0 14 -12zM148 625q-1 -4 -4 -7
q-23 -19 -64 -39q10 0 30 0.5t29 0.5q8 0 12 -7q3 6 3 10q1 3 2 10t2 10q2 13 4 22q-3 -1 -7 -1zM842 635h-162l9 -38q1 -6 2 -11q18 -1 50 1q39 4 54 4h1q1 11 12 13h3l18 18zM881 80q-3 5 -2 10q4 27 4 41q-8 4 -8 13q0 299 26 491h-17q-14 -12 -35 -32l-24 -24
q4 -47 -5 -137t-10 -107q-2 -49 -2.5 -100t0.5 -127.5t1 -101.5q34 39 72 74zM429 340l20 15l23 18q-2 37 0 68l-2 7l-8 34q-11 -58 -34 -120q1 -11 1 -22zM428 245l1 1l5 6q5 4 6 5.5t5 5.5t6 5t6 4.5t7 5.5l7 3q4 2 9 4h1q-4 33 -6 55l-9 -7q-21 -17 -30 -23q-3 -2 -7 -2
q0 -29 -1 -63zM424 80q-1 -1 -2 -1q-1 -35 -1 -64q13 6 35 14q35 12 36 13q1 53 1 60v7q-29 -17 -50 -32q-11 -8 -19 3zM475 162q6 8 12 15q2 3 5 4l-2 20q-1 14 -3 32q-42 -35 -57 -43l-4 -2l-2 -61l24 18q15 11 27 17zM432 224q-2 1 -2.5 2t-1.5 1v-6zM392 583
q4 -22 20 -52q2 -3 2 -5h6l6 16q4 14 17 9q9 -2 10 -11l4 2q13 5 18 -8l1 -3q8 2 15 6q5 3 10 10q0 2 0.5 3t1.5 2q4 8 6 17q5 25 -5 37h-1q-6 -4 -13 -1q-5 2 -8 7q-14 1 -36 -3q-34 -5 -63 -15l1 -1q6 -3 8 -10zM910 152q2 -22 -1 -49q9 4 16 -4q9 -11 -2 -20
q-65 -55 -117 -120q-9 -11 -20 -2q-4 3 -5 9q-4 -6 -11 -6q-66 0 -196 6t-196 6q-37 0 -113 -3.5t-116.5 -3.5t-115.5 6q-5 1 -9 5.5t-3 10.5q1 4 4 8q-5 4 -5 10q0 94 -3 277.5t-3 272.5q-5 3 -7 7q-5 13 7 19q84 36 111 58v3q1 5 5.5 9t10.5 3l18 -2q7 -1 10 -7
q12 23 32 27q10 1 24 -5l2 -2q2 2 4 3q4 2 13 3t14 -6q25 -2 43 -2h177q14 0 14 -14q0 -6 -4 -10h3q20 31 50 64q24 26 44 39q28 20 47 12q7 -3 14 -16q4 -8 10 -22q7 -21 16 -53h202l8 6q12 7 20 -4q0 -1 1 -2h14h1h1q12 -2 12 -14v-2q-27 -191 -28 -485q6 -3 7 -10z
M253 561q0 -14 -14 -14q-6 0 -10 4t-4 10t4 10t10 4q14 0 14 -14zM459 583q0 -14 -14 -14t-14 14t14 14t14 -14zM618 665q0 -6 -4 -10t-10 -4t-10 4t-4 10q0 14 14 14t14 -14zM610 615q0 -14 -14 -14t-14 14t14 14t14 -14zM324 565q0 -14 -14 -14t-14 14t14 14t14 -14z
M339 266q0 -14 -14 -14t-14 14t14 14t14 -14z" />
    <glyph glyph-name="k" unicode="k" horiz-adv-x="916" 
d="M458 773q27 -4 49 -14q2 -1 4 -3q55 -22 101.5 -50t88.5 -65.5t71 -87.5t40 -107q20 -105 -35 -225l-5 -10l17 9q13 7 19.5 -5.5t-5.5 -18.5q-27 -14 -54 -26q-68 -107 -180 -157l-9 -16q-7 -12 -19 -5q-5 3 -6 7q-122 -41 -249 0q-6 -3 -12 -1q-15 5 -27 15
q-84 36 -137.5 100t-72 137.5t-7.5 152.5q16 124 99 224.5t213 135.5q42 11 77 12q6 4 13 1l1 -1q7 0 14 -1q6 2 11 -1zM187 134l-6 24q-4 17 -6 24q-13 53 -15 111q-66 9 -105 29q7 -104 68 -182q3 1 7 1q29 -4 57 -7zM195 105q-22 2 -45 5q27 -26 60 -46q-4 8 -7 16
q-5 11 -8 25zM188 478q-65 6 -103 22h-1q-20 -49 -27 -100q-3 -23 -3 -45q33 -24 106 -34q3 79 28 157zM352 124q-20 76 -24 163q-75 -4 -137 2h-3q2 -52 15 -101q2 -8 6.5 -27.5t6.5 -29.5q70 -7 136 -7zM340 504q7 43 16 85q1 5 6.5 29.5t8.5 35.5l9 30q6 20 14.5 35
t19.5 28q-30 -2 -64 -12q-87 -23 -152 -78.5t-102 -130.5q37 -16 102 -21q53 137 161 225q11 9 20 -2t-2 -20q-100 -79 -150 -205q53 -3 113 1zM336 476q-64 -4 -119 -1q-27 -77 -29 -158h5q61 -6 134 -2q-2 78 9 161zM590 549q73 24 110 53q-79 84 -221 136q5 -5 30 -40
q49 -65 81 -149zM627 157q54 14 103 35q11 20 21 41q52 111 33 207q-15 78 -66 141q-40 -33 -119 -58q25 -75 34 -155q92 31 127 68q9 11 19.5 1.5t0.5 -19.5q-41 -45 -144 -79q6 -78 -4 -153q-2 -14 -5 -29zM619 126q-11 -35 -28 -71q64 37 110 96q-40 -14 -82 -25z
M596 150q5 20 8 40q9 68 5 141q-90 -26 -197 -38q-28 -3 -56 -5q4 -87 25 -164q115 3 215 26zM587 119q-93 -19 -198 -22q12 -36 28 -69q6 -13 -7 -19t-19 7q-18 39 -31 80q-65 0 -135 6l4 -12q14 -35 33 -53l8 -3q143 -56 280 1q22 42 37 84zM563 541q-30 79 -76 141
q-33 44 -45 54q-9 -9 -16.5 -21t-12 -21.5t-9.5 -27.5l-8 -26q-2 -8 -6.5 -29t-5.5 -28q-9 -38 -15 -76q19 1 37 4q86 10 157 30zM572 514q-72 -20 -162 -31q-25 -3 -45 -5q-12 -83 -10 -162q27 2 54 5q108 12 197 38q-8 81 -34 155z" />
    <glyph glyph-name="l" unicode="l" horiz-adv-x="728" 
d="M325 39q13 30 25 105q14 88 36 126q12 22 50 38q45 21 48 23q66 43 97 113.5t12 142.5q-18 64 -65.5 106.5t-109 59t-129.5 9.5q-105 -11 -179.5 -72.5t-80.5 -158.5q-5 -82 34 -137q35 -48 114 -89q10 -4 37.5 -13t40.5 -17q18 -11 31 -50q9 -27 18 -74
q4 -16 10.5 -56.5t10.5 -55.5zM314 597q-21 -2 -40 -16.5t-30 -36.5q-12 -24 -8 -43.5t25 -27.5q32 -11 59 -1.5t39 32.5t2 46q-11 27 -47 47zM340 614q34 -23 47 -52q16 -37 -3 -72q-18 -32 -55 -45t-78 2q-35 14 -42 48q-6 29 10 61q12 24 33 42.5t47 24.5q6 10 17 5l5 -3
h6q10 -1 13 -11zM304 11q-4 12 -8.5 32.5t-10 54t-8.5 48.5q-9 45 -17 70q-10 29 -19 35q-10 6 -35 14q-30 10 -41 16q-86 43 -125 97q-45 63 -39 155q4 74 47 131.5t104.5 88t134 37.5t139 -10.5t120.5 -65t73 -119.5q23 -83 -11.5 -161.5t-107.5 -126.5q-2 -1 -53 -24
q-29 -13 -37 -27q-20 -35 -33 -116q-13 -88 -33 -125q-5 -9 -15 -7q-3 -4 -7 -5q-13 -5 -18 8z" />
    <glyph glyph-name="m" unicode="m" horiz-adv-x="812" 
d="M443 658q3 -12 4 -20q8 -34 15 -43q14 -18 48 -35.5t70 -25.5q84 -18 102 31q9 26 -15 55t-71 51q-45 21 -88 26q-41 5 -56 -8q-2 -1 -3 -3.5t-1.5 -4.5t-1 -8t-1.5 -10q-1 -3 -2 -5zM179 106q12 10 34.5 27t25.5 19q46 37 64 65q3 6 10 7l-3 2q-22 16 -41 35
q-47 -88 -90 -155zM260 441q-16 -13 -20 -49.5t20.5 -75.5t65.5 -67q40 -28 77 -34q36 -6 54 14q5 5 7 20q2 7 3 18t1 12q1 5 4 8l-1 8q-20 -19 -50 -17q-36 2 -72 34q-35 31 -47 68q-12 41 11 70q-15 13 -50 -4q-1 -3 -3 -5zM498 317q1 -16 3 -36q1 -8 -6 -12
q-2 -18 -3 -25q-4 -24 -15 -35q-28 -29 -79 -22q-33 6 -70 27q2 -6 -1 -11q-20 -33 -71 -73q-66 -52 -75 -60q-4 -4 -9 -10l-12 -16q-8 -9 -13 -16q-27 -33 -49 -38q-9 -2 -15 4q-8 7 -3 17q1 4 7 11q2 3 5.5 6.5t5 5.5t2.5 4l48 72q46 70 97 166q2 4 6 6q-44 57 -39 112
q5 48 30 69q1 1 3 1q2 4 6 7q50 25 78 2q17 35 48 120q10 29 21 55q6 14 10 22q3 5 5 7.5t4 4.5l2 2q4 17 15 27q24 20 78 14q47 -6 96 -29q53 -25 80 -58q35 -41 20 -83q-8 -22 -25 -35q9 -10 0 -19q-14 -14 -44.5 -36.5t-31.5 -23.5q-52 -41 -113 -115q4 -4 4 -9zM457 325
q72 90 132 138q10 8 28 21l27 20q-31 -6 -70 3q-40 8 -78 28t-56 42q-11 14 -19 52l-18 -46q-37 -102 -62 -146q-3 -5 -8 -6q-12 -17 -4 -43q9 -30 38 -55t56 -27q19 -2 31 11q0 4 3 8z" />
    <glyph glyph-name="n" unicode="n" horiz-adv-x="1057" 
d="M699 128q27 42 60 80.5t93 100t69 71.5q-6 4 -6 10q0 3 -0.5 13.5t-0.5 18.5q-1 24 -3 42q-3 22 -8 33l-5 6v-1q-18 -3 -48 -40q-28 -34 -61 -91q-55 -95 -84 -168q-2 -5 -3 -23q-1 -7 -1.5 -21t-1.5 -17v-14zM767 529q-155 9 -260 6q-31 -1 -93 -7t-88 -8l-44 -48
q-25 -28 -38 -47q-6 -8 -9 -14q4 -1 10 -1q5 -1 10.5 -1.5t10.5 -0.5h6q90 -7 183 -7q62 0 103 3q47 4 61 12q8 5 20 18q19 20 23 23q49 44 105 72zM286 519q-37 -1 -67 2q-19 -24 -58 -62q-46 -45 -60 -61q-48 -55 -60 -82q-10 -22 -11 -87q-1 -31 3 -52q4 -18 8 -21
q16 -9 63 -9q5 0 17 -1q16 -1 19 -2q22 -1 28 1q1 1 2 3q0 4 -2 17q-2 17 -2 25q2 18 16 26q6 4 22 5h33q34 0 90 -2q81 -4 153 -9q28 -2 38 -19q7 -12 5 -31q6 -5 5 -12q-1 -15 -6 -31q6 -1 17 -3q18 -3 51 -6q31 -3 52 -4h24q1 2 2 7q2 10 4 33q0 3 0.5 17t1.5 21
q1 22 5 31q28 73 86 172q34 58 63 94q26 32 47 44l-91 5q2 -1 4 -4q6 -12 -7 -19q-53 -26 -101 -68q-3 -3 -20 -22q-15 -17 -27 -23q-19 -11 -72 -16q-42 -3 -106 -3q-94 0 -185 7q-1 0 -6 0.5t-11 0.5t-12 1q-11 1 -19 4q-13 4 -17 14q-2 6 0 13q1 4 4 9q4 8 12 20
q14 19 40 48zM397 -12q72 62 94 125q-2 8 -1 18q1 6 3 16t2 13q2 12 -1 16q-3 5 -16 6q-71 5 -152 9q-56 2 -89 2h-11q2 0 4 -1q13 -6 8 -19q-26 -58 -70 -105.5t-100 -75.5q59 -10 167.5 -12.5t161.5 8.5zM388 693v-4q2 -18 1 -23q-14 -77 -27 -115q123 11 145 12
q98 3 237 -4q0 1 1 3q5 7 8 31q4 24 4 54q0 31 -4 52q-3 14 -6 21h-7q-11 -1 -31 -2q-33 -3 -92 -9q-28 -2 -65 -6l-58 -7q-22 -2 -28 -2h-21q-22 1 -25 1q-15 1 -23 0q-6 -1 -9 -2zM587 216q-9 -7 -17 0q-11 9 -2 20q12 14 25 16q16 2 23 -11q3 -7 0 -15t-11 -11
q-7 -2 -18 1zM221 549q41 -4 92 -2q15 16 21 21l4 2q11 33 23 102l-1 15q-1 19 11 28q7 6 23 8q10 1 26 0q4 0 26 -1h18q5 0 28 2l58 7q36 4 64 6q60 6 93 9q20 1 32 2h10q3 0 5 -1q4 0 7 -2q14 -10 19 -41q5 -24 5 -57q0 -32 -4 -58q-3 -20 -7 -32q25 -1 72 -4t56 -4
q6 0 9.5 -4.5t3.5 -10.5q0 -4 -3 -7q10 -6 16 -18q7 -15 11 -42q2 -18 3 -44q0 -4 1 -26q5 0 9 -4q11 -9 1 -19q-16 -18 -82 -86t-104 -114q-36 -44 -66 -95q-7 -12 -19 -5q-3 1 -4 4q-1 0 -1 -1q-8 -2 -36 -1q-23 1 -54 4q-32 3 -53 6q-11 2 -19 4q-1 0 -2 1
q-20 -46 -59.5 -87.5t-83.5 -72.5q-12 -7 -20 4q-7 10 3 18q-70 -4 -158.5 0t-135.5 12q-2 1 -8 1q-9 0 -13 1q-9 1 -14 5q-11 7 -10 19q1 17 22 21q4 1 7 1.5t4.5 0.5t2.5 1q73 34 123 102q-11 -2 -35 -1q-4 1 -20 2q-10 1 -14 1q-55 0 -77 13q-16 9 -21 40q-5 23 -4 57
q1 71 13 99q14 31 64 88q10 12 63 63q38 37 57 62q5 7 13 6q5 2 9 2zM205 63q19 -3 43.5 -4t39.5 -1h46h42q14 0 14 -14t-14 -14h-42h-47q-15 0 -40 1t-46 4q-6 1 -9.5 5.5t-2.5 10.5t5.5 9.5t10.5 2.5zM256 124q101 0 190 11q6 1 10.5 -3t5.5 -9.5t-3 -10t-9 -5.5
q-91 -11 -194 -11q-14 0 -14 14t14 14zM453 633q34 0 70 3t88.5 9.5t71.5 8.5q5 1 9.5 -3t5.5 -9.5t-3 -10t-10 -5.5l-70 -8q-53 -7 -90 -10t-72 -3q-14 0 -14 14t14 14zM587 174l15 -2q6 -1 9.5 -5.5t2.5 -10.5t-5.5 -9.5t-10.5 -2.5l-15 2q-6 1 -9.5 5.5t-2.5 10.5
t5.5 9.5t10.5 2.5zM221 193h-15l-10 -1q-1 -1 -2 -4q0 -5 2 -19q1 -9 2 -14q8 15 14 30q3 7 9 8z" />
    <glyph glyph-name="o" unicode="o" horiz-adv-x="1057" 
d="M875 523q-253 16 -368 12q-14 0 -123.5 -10t-164.5 -4q-19 -24 -58 -62q-46 -45 -60 -61q-48 -55 -60 -82q-6 -12 -9 -50q10 -5 6 -16q-2 -8 -8 -15v-6q-1 -31 3 -52q4 -18 8 -21q1 0 2 -1q5 0 9 -3q17 -5 52 -5q5 0 17 -1q16 -1 19 -2q22 -1 28 1q1 1 2 3q0 4 -2 17
q-2 17 -2 25q2 18 16 26q6 4 22 5h33q34 0 90 -2q81 -4 153 -9q28 -2 38 -19q7 -12 5 -31q6 -5 5 -12q-1 -15 -6 -31q6 -1 17 -3q18 -3 51 -6q31 -3 52 -4h24q1 2 2 7q2 10 4 33q0 3 0.5 17t1.5 21q1 22 5 31q28 73 86 172q34 58 63 94q26 32 47 44zM699 128q27 42 60 80.5
t93 100t69 71.5q-6 4 -6 10q0 3 -0.5 13.5t-0.5 18.5q-1 24 -3 42q-3 22 -8 33l-5 6v-1q-18 -3 -48 -40q-27 -34 -61 -91q-55 -94 -84 -168q-2 -5 -3 -23q-1 -7 -1.5 -21t-1.5 -17v-14zM397 -12q72 62 94 125q-2 8 -1 18q1 6 3 16t2 13q2 12 -1 16q-3 5 -16 6q-71 5 -152 9
q-56 2 -89 2h-11q2 0 4 -1q13 -6 8 -19q-26 -58 -70 -105.5t-100 -75.5q59 -10 167.5 -12.5t161.5 8.5zM388 693v-4q2 -18 1 -23q-14 -77 -27 -115q123 11 145 12q98 3 237 -4q0 1 1 3q5 7 8 31q4 24 4 54q0 31 -4 52q-3 14 -6 21h-7q-11 -1 -31 -2q-33 -3 -92 -9
q-28 -2 -65 -6l-58 -7q-22 -2 -28 -2h-21q-22 1 -25 1q-15 1 -23 0q-6 -1 -9 -2zM587 216q-9 -7 -17 0q-11 9 -2 20q12 14 25 16q16 2 23 -11q3 -7 0 -15t-11 -11q-7 -2 -18 1zM79 515q-57 -39 -119 -114q-39 -48 -56 -85q-18 -40 -7 -59q6 -10 22.5 -16t38.5 -5q22 0 37 7
q4 2 7 4q3 59 13 81q14 31 64 88q15 17 63 63q21 21 35 37h-1q-9 -4 -16 5q-9 12 -29 8q-4 0 -46 -13q-3 -1 -6 -1zM-72 144q-2 -3 -3 -7l-2 -10q1 -3 9 -5q10 -4 25 -4q32 -1 46 5q5 3 12 12l4 4q-9 11 -13 33q-4 18 -4 44q-19 -8 -43 -8q-10 -1 -20 0q-10 -13 -13 -22
q8 6 16 9q21 7 34 -9q9 -12 5 -24q-3 -10 -15 -15q-17 -8 -37 -3h-1zM328 455q0 -1 -1 -2l-6 -6q3 1 6 3q5 2 10 5h-9zM313 476q4 7 12 7q22 0 33 -4q8 -4 12 -9q5 -8 3 -16q-3 -10 -15 -19q-8 -6 -19.5 -11t-21.5 -7q-14 -3 -23 2q-8 4 -9 13q-2 7 2 15q5 10 20 26q3 2 6 3
zM435 457q-5 -7 -7 -12h1q7 2 9 7q1 1 -3 5zM430 481q9 9 19 1q23 -18 15 -41q-7 -17 -27 -22q-25 -8 -34 11q-10 17 10 46q7 9 17 5zM539 474h5q9 -2 15 -7q8 -7 8 -18q0 -7 -6 -13q-2 -3 -7 -6q-7 -4 -17 -8q-11 -4 -20 -5q-15 -2 -22 8q-9 12 -4 25q4 8 14 15q5 3 12 6
q4 3 9 3h1q4 1 6 1q3 0 6 -1zM240 382q4 2 9 3q8 8 18 2q16 -11 17 -23q1 -15 -15 -20q-8 -3 -17 -2q-4 -1 -7 -1q-6 -1 -10 0q-11 3 -13 14q-1 8 5 15l10 10q1 1 3 2zM424 359q-1 -5 -5 -9q-4 -3 -8 -8q-6 -5 -11 -7h-8q-10 -2 -17 7v1h-2q-8 -1 -14 6q-7 12 4 20q3 2 7 3
q4 12 15 16q15 6 36 -7q12 -7 5 -19q-1 -2 -2 -3zM524 355q1 -7 -5 -13q-4 -4 -10 -6t-11 -2q-8 1 -13 7q-4 4 -5 8q-1 3 -1 6q0 8 7 12q3 3 6 5q11 7 22 8q6 0 10.5 -3.5t4.5 -9.5q0 -7 -5 -12zM205 63q19 -3 43.5 -4t39.5 -1h46h42q14 0 14 -14t-14 -14h-42h-47
q-15 0 -40 1t-46 4q-6 1 -9.5 5.5t-2.5 10.5t5.5 9.5t10.5 2.5zM256 124q101 0 190 11q6 1 10.5 -3t5.5 -9.5t-3 -10t-9 -5.5q-91 -11 -194 -11q-14 0 -14 14t14 14zM333 554q14 39 28 118l-1 15q-1 19 11 28q7 6 23 8q10 1 26 0q4 0 26 -1h18q5 0 28 2l58 7q36 4 64 6
q60 6 93 9q20 1 32 2h10q3 0 5 -1q4 0 7 -2q14 -10 19 -41q5 -24 5 -57q0 -32 -4 -58q-3 -20 -7 -32q25 -1 72 -4t56 -4q6 0 9.5 -4.5t3.5 -10.5q0 -4 -3 -7q10 -6 16 -18q7 -15 11 -42q2 -18 3 -44q0 -4 1 -26q5 0 9 -4q11 -9 1 -19q-16 -18 -82 -86t-104 -114
q-36 -44 -66 -95q-7 -12 -19 -5q-3 1 -4 4q-1 0 -1 -1q-8 -2 -36 -1q-23 1 -54 4q-32 3 -53 6q-11 2 -19 4q-1 0 -2 1q-20 -46 -59.5 -87.5t-83.5 -72.5q-12 -7 -20 4q-7 10 3 18q-70 -4 -158.5 0t-135.5 12q-2 1 -8 1q-9 0 -13 1q-9 1 -14 5q-11 7 -10 19q1 17 22 21
q4 1 7 1.5t4.5 0.5t2.5 1q73 34 123 102q-11 -2 -35 -1q-4 1 -20 2q-10 1 -14 1q-38 0 -60 6q-2 -2 -8 -9q-11 -12 -21 -17q-19 -11 -59 -9q-19 0 -33 5q-19 6 -26 20q-6 13 2 32q2 6 5 12q-5 7 -6 15q-3 18 11 41q-26 9 -36 28q-18 32 5 84q19 41 60 91q36 44 77 81t66 50
q6 3 13 -1q20 7 32 9q33 5 51 -14h5q10 0 13 -7l4 5q5 7 13 6q5 2 9 2q47 -5 111 0q0 2 1 5zM453 633q34 0 70 3t88.5 9.5t71.5 8.5q5 1 9.5 -3t5.5 -9.5t-3 -10t-10 -5.5l-70 -8q-53 -7 -90 -10t-72 -3q-14 0 -14 14t14 14zM587 174l15 -2q6 -1 9.5 -5.5t2.5 -10.5
t-5.5 -9.5t-10.5 -2.5l-15 2q-6 1 -9.5 5.5t-2.5 10.5t5.5 9.5t10.5 2.5zM221 193h-15l-10 -1q-1 -1 -2 -4q0 -5 2 -19q1 -9 2 -14q8 15 14 30q3 7 9 8z" />
    <glyph glyph-name="p" unicode="p" horiz-adv-x="787" 
d="M59 459q14 -4 42 -15t44 -15q65 -17 147.5 -22t168.5 7q85 11 138 41q7 4 14 0l32 108q-11 -7 -26 -13q-34 -14 -99 -26q-93 -17 -233 -17q-159 0 -233 26q-11 4 -20 9q11 -30 23 -76zM184 312q-6 42 -10 82q-19 3 -35 7q-15 4 -48 17l-23 9q10 -40 18 -65l4 -11
q35 -26 94 -39zM203 198q-8 45 -14 84q-49 10 -85 28l34 -94q4 0 8 -1q21 -10 57 -17zM209 168q-34 6 -58 15l29 -73q5 1 9 -2q16 -9 34 -17zM276 299q-1 43 0 82q-38 3 -74 8q5 -40 12 -83q29 -5 62 -7zM284 187q-5 41 -7 84q-31 2 -59 6q6 -38 15 -84q24 -4 51 -6z
M288 159q-26 2 -50 5l16 -83q24 -8 50 -11q-10 40 -16 89zM379 302q1 39 3 77q-39 -2 -78 0q-1 -38 0 -81h12q32 1 63 4zM377 185l2 89q-32 -3 -63 -4h-6h-5q3 -43 7 -84q21 -1 43 -1h22zM377 157h-23h-38q7 -50 17 -90q22 -2 43 0q0 46 1 90zM487 195q41 8 64 20l23 89
l6 26q-29 -17 -70 -31q-13 -48 -23 -104zM482 166q-6 -38 -10 -78q30 13 54 31l16 62q-25 -9 -60 -15zM488 322q10 34 22 65q2 5 5 8q-47 -11 -105 -15v-1l-2 -74q42 6 80 17zM458 191q9 52 21 99q-34 -8 -72 -13l-2 -91q28 1 53 5zM453 162q-23 -3 -48 -4q-1 -43 -1 -88
q20 3 39 8q4 43 10 84zM575 654q-210 40 -390 -10q-59 -17 -107 -42q-32 -17 -37 -28q-1 -1 1 -3q5 -6 22 -12q68 -24 223 -24q136 0 229 17q62 11 93 24q19 8 30 17t13 14.5t1 9.5q-2 9 -17 19t-41 15q-5 1 -8 6q-5 -4 -12 -3zM686 600q-36 -110 -85 -303l-21 -83
q5 -10 -5 -17q-21 -85 -38 -143q6 -2 9 -7q7 -11 -5 -19q-6 -4 -13 -8l-8 -25q2 -1 3 -3q5 -13 -7 -19q-16 -7 -56 -12q-4 -2 -9 -3q-43 -13 -94 -15q-53 -3 -94 7q-48 11 -65 36q-3 5 -2 10v1q-1 7 4 11q-7 2 -10 8q-67 148 -124 318q-6 5 -11 10q-10 10 0 20q1 0 1 1
q-5 15 -26 94q-17 64 -33 100q-5 13 7 19q5 2 9 1l2 6q9 20 50 42q51 26 112 43q187 52 404 12q5 -1 8 -6q6 4 12 3q69 -15 79 -55q1 -4 1 -9q8 -6 5 -15zM220 29q42 -40 149 -27q75 9 135 38l11 38q-21 -12 -46 -21q0 -8 -1 -15q0 -6 -4.5 -9.5t-10.5 -3.5t-9.5 4.5
t-3.5 10.5v4q-17 -4 -36 -7q-2 -12 -14 -12q-10 0 -13 10q-18 -1 -35 -1q3 -12 -10 -16q-13 -5 -17 9l-3 10q-27 3 -52 9q1 -6 -2.5 -11t-9 -6t-10.5 2.5t-6 8.5l-3 15q-17 6 -33 14l18 -40q3 -1 6 -4zM523 396q2 0 5 -1q13 -5 8 -18q-8 -21 -16 -45q30 12 51 26q8 5 16 -1
l19 70q-36 -19 -83 -31z" />
    <glyph glyph-name="q" unicode="q" horiz-adv-x="704" 
d="M270 419q0 2 1 4q1 7 1 19q0 21 -1 57q-1 17 -2 39.5t-1.5 37.5t-0.5 20t3 8q-2 3 -2 7q0 14 14 14q23 0 42 2q1 0 4 0.5t7 1t8 1.5q16 2 28 2q17 1 29 -1q18 -4 26 -15q4 -7 4 -18q1 -8 0 -20q-1 -18 -5 -51q-11 -82 -11 -89v-14v-4h8h34q24 1 36 -2q25 -5 28 -23
q1 -5 -2 -10q-1 -2 -3 -4l-6 -6q-5 -5 -17 -16q-26 -25 -30 -30q-3 -3 -37.5 -49t-55.5 -66l-2 -2l-4 -4q-7 -7 -14 -9q-7 -1 -14 3q-5 2 -11 6q-9 7 -23 20q-26 24 -59 60q-31 36 -53 64q-11 15 -17 25q-3 5 -5 9q-3 8 -2 14q2 5 7 8q2 2 4 2.5t6 0.5q4 1 11 1
q3 0 14.5 0.5t18.5 0.5q21 1 33 3q7 2 10 3h1zM576 94v7q-1 5 -3 13q-2 9 -2 11v2h-3q-67 0 -201.5 -3t-201.5 -3h-1q0 -1 1 -19v-11q2 -1 4 -1q10 -1 29 -2q32 -1 89 1q28 0 63 1t58 2t29 1h79q30 1 49 1h11zM295 596q0 -5 0.5 -19.5t1.5 -37t2 -39.5q1 -37 1 -58
q0 -14 -1 -22q-2 -12 -6 -17q-4 -6 -14 -10q-6 -2 -15 -4q-14 -3 -37 -4q-5 0 -26 -1q4 -6 11 -15q21 -28 51 -62q33 -36 57 -59q12 -12 21 -17q1 -2 3 -3l1 2l4 4q21 20 53 62l38 51q6 7 33 32l13 12q-9 2 -29 1h-36q-9 0 -15 1q-10 2 -15 8q-3 2 -4 6v3q-1 1 -1 4v10v14
q0 8 11 93q4 31 5 49q1 10 1 16l-1 4q-2 2 -7 3q-9 2 -23 1q-11 0 -26 -2q-3 -1 -7.5 -1.5t-7.5 -1t-5 -0.5q-20 -2 -31 -2v-1zM165 149q67 0 201.5 3t201.5 3q14 0 14 -14h1q6 1 10.5 -2.5t5.5 -9.5q0 -1 2 -9q2 -9 2 -15q2 -10 1 -17q-1 -11 -7 -18l-6 -4h-2h-1h-1h-1h-2
h-3h-16q-18 0 -49 -1h-79q-6 0 -29 -1t-57.5 -2t-62.5 -1q-58 -2 -91 -1q-20 1 -32 2q-6 1 -11 2q-8 2 -12 7q-3 3 -4 9v6q-1 6 -1 15l-1 21q-1 6 2.5 11t8.5 6h5q2 10 13 10z" />
    <glyph glyph-name="r" unicode="r" horiz-adv-x="645" 
d="M276 313h-8q-7 0 -37 -4q-27 -3 -41 -2q-11 0 -18 3q-12 5 -15 16q-1 5 1 12q0 5 3 11q3 11 11 29q14 30 38 75q51 98 69 121q5 5 12 5q1 2 3 3q1 1 2 2.5t2.5 3.5t3.5 4q8 9 18 12q5 1 9 -1q2 -1 3 -2l2 -2l5 -5l15 -16l46 -56l125 -147q7 -8 11 -13l7 -12q5 -12 0 -21
q-3 -4 -9 -7q-3 -1 -8 -2q-6 -1 -17 -1q-11 -1 -44 -1q-30 0 -43 -1q-8 0 -13 -1q0 -5 2 -14q2 -13 11 -51q10 -41 12 -54q6 -30 3 -43q-2 -6 -8 -10q-3 -2 -8 -4q-7 -3 -18 -5q-22 -4 -50 -5q-29 -2 -50 1q-13 1 -20 4q-13 4 -17 14q-11 27 1 93q9 49 9 71zM301 556
q-16 -20 -67 -116q-23 -43 -36 -74q-7 -17 -11 -26q-1 -2 -1 -5h6q11 -1 36 2q33 4 39 4q10 0 17 -1q13 -3 16 -14q7 -22 -5 -89q-10 -56 -4 -75q0 -1 1 -1q5 -1 14 -2q18 -3 46 -1q26 1 45 5q8 1 13 3q0 10 -3 26q-3 17 -12 53q-9 38 -11 52q-3 12 -3 19q-1 5 0 8q1 7 5 11
q5 6 16 8q7 2 18 2q14 1 45 1q32 0 43 1h4q-3 3 -9 10l-124 147l-47 55l-11 13q-6 -8 -9 -10q-4 -4 -10 -4q0 -1 -1 -2z" />
    <glyph glyph-name="s" unicode="s" horiz-adv-x="852" 
d="M528 467q9 5 15 7q59 14 91 8q65 -13 98 -83q31 -64 16 -127q-25 -102 -194 -150q-64 -18 -133 -24t-116 -1q-75 9 -152 45.5t-108 94.5q-20 36 -23.5 77t9.5 76q15 38 46.5 61t78.5 23q18 0 32 -3q-3 72 51 138q31 38 74 57q43 20 89 13q47 -8 81 -47t43 -86
q3 -17 2 -59v-20zM215 430q-3 -2 -5 -3q-6 -1 -11 2t-7 8v3q-15 6 -36 6q-74 0 -98 -65q-11 -29 -8 -64t19 -66q27 -51 98 -84.5t142 -41.5q44 -5 110 1t127 23q154 44 174 129q13 54 -13 109q-27 58 -79 67q-26 5 -79 -8q-1 0 -12 -7q-17 -9 -29 -3q-5 3 -7 7q0 1 -1 3v3v3
v9v11v15q1 40 -2 53q-7 41 -35 73t-65.5 38t-73.5 -10.5t-64 -49.5q-52 -63 -43 -132q3 -1 6 -3q11 -8 4 -20q-5 -6 -12 -6z" />
    <glyph glyph-name="t" unicode="t" horiz-adv-x="759" 
d="M487 554q4 0 10 1q15 1 48 4l50 5q20 2 28 2q-3 5 -8 10q-12 13 -33 33l-34 31q-22 20 -27 25t-14 17l-6 7q-1 -3 -11 -119q0 -4 -2 -10q-1 -5 -1 -6zM266 484q-2 0 -5 2q-5 3 -13 11q-10 10 -26 32l-13 18v-29q1 -18 1 -30v-4q3 -1 8 -1q11 -1 28 -1q9 1 20 2zM321 563
q-13 -19 -21 -38l-1 -5l-4 -11l-3 -12q-1 -3 -2 -5q-1 -1 -1 -2q-2 -3 -4 -5q11 1 16 1q1 0 20 -3h3q1 4 1 10q2 15 1 34q-1 20 -4 33q-1 2 -1 3zM341 588q1 -3 3 -6q3 -6 5 -16q3 -15 5 -38q1 -21 -1 -37q-1 -10 -2 -16q-3 -9 -8 -14q-10 -8 -27 -5q-3 0 -8 1t-7 1
q-5 0 -22 -1q-20 -2 -31 -3q-20 0 -33 1q-19 2 -28 9l-4 7q-1 1 -1 2v1v2v2v10q0 11 -1 30v39q-5 4 -6 10t2.5 10.5t9.5 5.5h1q-2 4 -3 7q-5 13 8.5 17.5t17.5 -9.5q1 -2 6 -11q24 4 41 6q25 4 42 4q7 1 12 1q23 27 57 56q11 9 20 -2t-2 -20q-28 -23 -46 -44zM336 322
q-11 -16 -19 -23q-12 -10 -27 -8q-12 2 -27 14q-16 12 -48 46l1 -33q1 -33 1 -38v-4q5 0 11 1q21 2 49 7t48 10q9 2 13 3q0 7 -1 18q-1 3 -1 7zM242 364q25 -27 38 -37q9 -7 14 -8q2 0 5 2q4 4 29 43l4 6v3v8l-1 -1q-18 -7 -22 -8q-32 -7 -67 -8zM186 383q-6 10 3 18
q10 10 19 -1l9 -9h3q44 0 83 9q1 0 18 6q8 3 11 5q3 1 5 1q2 1 3 1q4 0 7 -1q6 -1 9 -7q0 -1 1 -1q17 21 36 41q10 10 20 0t0 -20q-29 -29 -53 -64v-5v-4v-3v-1q0 -3 0.5 -7t2 -10.5t1.5 -10.5q4 -26 0 -37q-1 -4 -5 -7l-4 -2l-6 -3q-7 -2 -18 -4q-20 -5 -49 -11
q-30 -5 -51 -7q-11 -1 -18 -1h-8q-6 1 -10 4l-4 7q-1 1 -1 2v1v1v4q0 4 -1 12q0 9 -1 38q-2 58 -2 62v4zM191 178q-2 4 -2 8q0 14 14 14q8 0 35 2l50 4q31 2 49 1q12 0 20 -2q11 -2 16 -7q4 -3 5 -8q1 -2 1 -5q1 -5 2 -12q1 -15 2 -35t0 -34q0 -8 -1 -14q0 -3 -1 -5
q-1 -4 -3 -7q-9 -13 -30 -11q-3 0 -7.5 0.5t-6.5 0.5h-4q-55 -6 -59 -7q-44 -3 -64 5q-14 5 -18 25q-3 12 -3 31q0 11 2 30q1 16 1 19q0 4 2 7zM268 516l1 1l3 11q2 6 2 7q7 17 17 34q-12 -1 -29 -3q-13 -2 -29 -4l12 -17q14 -19 23 -29zM99 730q57 -4 155 4q123 10 158 10
q5 0 13 1q2 0 7.5 0.5t7.5 0.5q22 2 34 0q20 -5 41 -29l14 -18q8 -10 12 -14q5 -5 27 -25l34 -31q21 -20 33 -34q18 -19 21 -30q6 -26 1 -70q-1 -5 -1.5 -10.5t-1.5 -12.5t-2 -11q-3 -19 -3 -30q-2 -41 -9 -103l-10 -102q-5 -42 -6.5 -102.5t6.5 -99.5q1 -6 -2.5 -10.5
t-9.5 -5.5t-10.5 2.5t-5.5 9.5q-8 40 -6 102.5t6 105.5t10.5 104.5t8.5 100.5q1 12 3 32q0 1 2 14l3 20q3 24 2 40q-2 -1 -5 -1q-4 0 -28 -2l-50 -5q-33 -3 -48 -4q-11 -1 -17 -1h-5h-3h-2q-3 1 -6 3q-11 9 -8 27q0 3 2 10q1 4 1 6q1 11 3.5 43t5 55t6.5 44q-5 3 -9 4
q-8 2 -25 1q-3 -1 -8 -1.5t-7 -0.5q-10 -1 -16 -1q-42 0 -156 -9q-98 -8 -147 -6q0 -85 2.5 -256t2.5 -257q0 -3 -0.5 -18.5t-1 -38t-0.5 -41.5q0 -37 1 -60q1 -13 2 -20v-1h11q18 -1 51 -1q66 0 157 2q92 3 162 7q37 2 58 4q22 2 26 4q13 5 18 -8t-8 -18q-8 -3 -34 -6
q-19 -2 -59 -4q-72 -4 -162 -6q-91 -3 -158 -3q-33 0 -52 1q-10 0 -16 1q-4 0 -6 1q-2 0 -3 1q-4 1 -7 4q-4 5 -6 18q-1 9 -2 23q-1 23 -1 61q0 20 0.5 42t1 37.5t0.5 18.5q0 86 -2.5 258t-2.5 258q0 5 3 9v4q0 6 4.5 9.5t10.5 3.5zM217 171q0 -4 -1 -21q-2 -18 -2 -29
q0 -15 2 -24q1 -4 2 -5q15 -5 51 -3q3 0 57 7q2 0 24 -1q3 -1 5 0v9q1 14 0 33t-2 33q0 5 -1 8q-6 1 -15 1q-17 1 -47 -1q-14 -1 -50 -4q-15 -1 -23 -1v-2z" />
    <glyph glyph-name="u" unicode="u" horiz-adv-x="690" 
d="M579 169l-4 -25q-7 -47 -14 -82q-4 -18 -6 -28q-1 -6 -2 -9l-1 -5l-2 -2q-3 -4 -8 -5q-6 -2 -12 1q-2 1 -5 3q-4 3 -10 8q-10 9 -25 25l-9 10q-82 -73 -212 -76q-25 -1 -61 10q-18 5 -28 12q-8 5 -11 11q-4 11 3 20q7 10 22 7l5 -2q94 0 155 56q39 37 40.5 57.5
t-35.5 56.5q-20 19 -21 21q-7 9 -9 16q-4 14 7 23q3 4 9 5q4 2 10 3q11 1 28 3q31 3 76 4q44 1 77 0q17 0 28 -1q6 -1 10 -2q6 -1 9 -3t4.5 -4.5t2.5 -3.5v-2q1 -2 1 -5t-1 -9q0 -11 -3 -29q-1 -15 -4 -36q1 -3 1 -6v-5q-1 -2 -2 -5t-3 -7zM116 454q31 45 85.5 75t112.5 43
q23 5 59 3q20 -1 31 -5q8 -3 13 -8q8 -9 3 -20.5t-19 -11.5h-6q-106 -20 -153 -96q-26 -42 -19 -65q1 -3 13 -11q7 -5 30 -17q21 -12 29 -18q8 -7 11 -13q5 -12 -3 -22q-3 -3 -9 -6q-3 -2 -9 -4q-9 -4 -26 -9q-33 -10 -75 -20q-43 -11 -75 -17l-28 -5q-14 -1 -20 1
q-10 3 -12 12q-1 4 0 10l1 5q-8 62 -12 115q-3 41 -2 67q0 15 1 25q2 14 7 20.5t13 5.5q3 0 6 -1q4 -1 10 -4l23 -15zM447 176l3 3h-2l-1 1v-4zM135 409q-7 4 -16 10l-21 14l-17 12q-11 6 -17 10v-18q-1 -25 2 -65q4 -52 12 -113v-4q10 1 25 4q32 6 75 17q42 10 73 19
q15 5 23 8q-6 5 -21 13q-24 13 -33 19q-19 13 -23 26q-11 35 21 87q43 70 130 99q-19 -1 -28 -3q-54 -11 -104 -38.5t-76 -66.5l9 -6q12 -7 5 -19t-19 -5z" />
    <glyph glyph-name="v" unicode="v" horiz-adv-x="756" 
d="M656 605q-7 -39 -7 -114q0 -74 -1 -92q-3 -49 -8 -114q-5 -74 -8 -134t-3 -115q0 -14 -14 -14q-4 0 -7 2q1 -2 1 -5q0 -6 -3.5 -10t-9.5 -5q-75 -6 -195 -1q-168 7 -192 7q-30 0 -67 1q-26 1 -42 1q-9 1 -15 2q-3 0 -5 1q-2 0 -3 1q-4 1 -6 3q-2 3 -3 5q-1 1 -1 2v2v2
q0 1 -1 5q0 6 -1 18q-1 22 -3 56q-5 85 -5 88q0 33 1 117.5t0.5 132t-3.5 116.5t-9 123q-1 6 3 10.5t9 5.5q9 1 13 -6q5 9 14 8q36 -4 75 -4q40 -1 70.5 0.5t77 3.5t73.5 3q6 0 19 2q21 2 23 2q32 4 48 -2q20 -6 46 -18.5t39 -19.5t47 -27.5t37 -22.5h4q6 -1 9.5 -6t2.5 -10
zM318 614q21 2 33 3q6 1 11 1q2 2 5 3q6 1 10 -2h2q3 0 4 -1q6 -1 9 -6q7 -10 9 -32q1 -17 -1 -41t-5 -51v-19h7q24 0 38 1t20 3q0 1 1 4q2 7 3 20q2 25 0 64q-3 37 -8 68t-9 38q-6 10 3 18q-9 0 -24 -1q-2 -1 -23 -3q-14 -2 -22 -2q-16 0 -94 -4t-120 -3q-4 -32 -1 -103
q2 -36 6 -61q3 -24 7 -34v-1q6 -1 16 -2q18 -2 49 -2q24 0 63 1q-1 2 -1 3q-3 24 -3 82q0 30 2 40q0 2 1 4q0 13 12 15zM171 358q20 -1 191 8q78 5 112 6q25 1 38 1h13q3 0 5 -1q4 0 7 -2q4 -3 6 -8q1 -2 2 -6q0 -4 1 -11q1 -12 0 -33q0 -30 -4 -97q-10 -168 -10 -172
q0 -14 -14 -14t-14 14q0 5 10 173q4 67 4 96q1 21 0 31v2h-6q-12 0 -37 -1q-34 -1 -112 -5q-140 -9 -173 -9q0 -46 -6 -138q-5 -99 -5 -149q0 -2 -1 -5h31q30 0 194 -7q117 -5 191 1q4 0 8 -2q-1 3 -1 6q0 55 3 115t8.5 135t7.5 115q1 16 1 87t5 109l-36 21l-42 26
q-13 7 -35.5 18t-40.5 18q6 -13 12 -46q5 -33 8 -71q3 -41 0 -69q-1 -16 -4 -26q-5 -15 -15 -20q-9 -4 -31 -6q-15 -1 -40 -1q-15 0 -39 1t-29 1q-3 0 -35 -1t-55 -1q-33 0 -52 2q-13 1 -21 4q-13 3 -17 12q-6 13 -10 45q-4 27 -5 63q-4 69 0 105q-30 1 -56 4q-5 1 -8 3
q6 -54 8.5 -122t3 -115.5t-0.5 -129.5t-1 -115q0 -5 5 -87q2 -33 3 -55q1 -9 1 -14q3 0 8 -1q15 0 40 -1h10q-1 2 -1 4q0 41 6 151q5 92 5 139q-6 4 -6 12q0 6 4.5 9.5t10.5 3.5zM241 294q41 -3 224 -3q14 0 14 -14t-14 -14q-183 0 -226 3q-6 0 -9.5 4.5t-3.5 10.5t4.5 9.5
t10.5 3.5zM246 233q31 -2 99 -1q67 1 102 -2q6 -1 9.5 -5t3 -10t-4.5 -9.5t-10 -3.5q-33 3 -99 2q-69 -1 -102 1q-6 0 -9.5 4.5t-3.5 10.5t4.5 9.5t10.5 3.5zM241 175q104 -7 214 4q5 0 9.5 -3.5t5 -9t-3 -10t-9.5 -5.5q-112 -11 -218 -4q-6 0 -9.5 4.5t-3.5 10.5t4.5 9.5
t10.5 3.5z" />
    <glyph glyph-name="w" unicode="w" horiz-adv-x="694" 
d="M478 570q3 3 5 15q1 6 2 15q0 2 0.5 6.5t0.5 5.5q1 11 12 13q-33 23 -92 19q-4 -7 -12 -8q-7 0 -12 5q-28 -5 -57 -15q-52 -19 -82.5 -49.5t-25.5 -59.5q5 -28 37 -49q19 -12 77 -35q23 -9 35 -14.5t32 -16.5t31 -21.5t21.5 -27t13.5 -35.5q6 -40 -22 -60
q-21 -16 -61 -18q-62 -2 -121 21q-18 7 -30 15q-3 -9 -5 -19q-2 -15 -3 -25v-8v-1q8 -11 33 -20q20 -7 43 -10q44 -8 87.5 -4t79.5 17t62.5 43.5t36.5 75.5q10 44 -17 70q-21 21 -74 37l-48 14q-30 8 -46 13q-53 19 -67 48q-12 28 10 47q15 12 45 19q40 8 82 6q6 0 23 -7
q4 -2 6 -2zM409 743q-6 -24 -3 -71q77 5 118 -33q11 -9 1 -19q-5 -6 -12 -5q1 -3 1 -5t-0.5 -6t-0.5 -7q-1 -10 -2 -18q-6 -27 -21 -35q-12 -6 -29 2q-12 5 -14 5q-37 2 -74 -6q-23 -5 -33 -12q-6 -6 -2 -14q8 -19 50 -33q14 -5 44 -13q34 -9 49 -14q60 -18 86 -44
q38 -37 25 -96q-24 -110 -132 -145v-2v-2q-4 -20 -7 -68q-3 -45 -8 -70q-1 -5 -6 -8.5t-10.5 -2.5t-9 6t-2.5 11q5 22 8 66q3 43 6 63q-22 -5 -47 -6v-126q0 -14 -14 -14t-14 14v125q-30 1 -62 5q-26 4 -49 12q-34 12 -47 31q-3 5 -4 13v12q1 13 4 29t7 28q2 6 4 11
q3 7 7 10q10 7 20 0q3 -2 6 -6q0 -1 1 -3l1 -1q10 -8 26 -14q53 -21 110 -19q31 2 45.5 12.5t10.5 33.5q-5 32 -32.5 51.5t-82.5 40.5q-60 24 -82 38q-43 28 -50 69q-7 43 34 83q33 33 89 55l-1 1q-7 40 -7 78q0 14 14 14t14 -14q0 -35 6 -70q20 5 40 9q-4 53 5 82q1 5 6 8
t10.5 1.5t8.5 -6.5t1 -11z" />
    <glyph glyph-name="x" unicode="x" horiz-adv-x="641" 
d="M459 525q0 1 1 3q3 8 4 24v31v17q-97 37 -195 -29q-48 -33 -83 -83t-49 -106q-9 -31 -11.5 -51t1 -43.5t16.5 -45.5q24 -40 63.5 -67.5t84.5 -38.5t93.5 -9.5t93.5 16.5q4 2 17 5q7 2 10 4q5 2 7 13t1 33q-1 11 -3 18v1h-3q-3 -1 -30 -8q-60 -15 -94 -20q-62 -9 -102 2
q-55 14 -69 63q-3 9 -5 19q-2 15 0 23q8 29 54 38q29 5 84 3q12 0 40 -1.5t41 -1.5q18 0 27 1l7 2v2q1 5 0 13q0 4 -2 16q-1 10 -1 14v1v15v4q-8 -2 -26 -6q-62 -16 -79 -19q-52 -11 -82 -9q-47 3 -52 37q-10 72 42 106q34 22 105 30q54 6 71 2q8 -3 20 -15q1 -2 3 -3z
M492 590v-7v-32q-1 -21 -6 -33q-8 -22 -27 -22q-12 0 -24 13q-6 6 -7 6q-11 4 -59 -2q-65 -7 -93 -26q-37 -24 -30 -78q1 -11 26 -13q26 -2 74 8l78 19q19 5 28 6q7 2 11 2q8 0 14 -4q4 -3 6 -9q1 -3 1 -7q1 -5 1 -13v-4v-5v-3v-3v-1q0 -2 1 -11q2 -12 2 -16q1 -11 0 -18
q-1 -12 -6 -19q-7 -8 -25 -11q-12 -1 -32 -1q-12 0 -40.5 1.5t-40.5 1.5q-52 2 -78 -3q-28 -5 -31 -16q-1 -4 0 -13q1 -8 3 -15q10 -34 50 -44q35 -9 91 -1q38 5 90 19l32 8q7 1 11 2h5q5 0 9 -3q8 -5 12 -20q2 -10 3 -23q1 -25 -1 -39q-4 -25 -22 -34q-6 -3 -16 -6l-16 -4
q-48 -16 -100 -18t-102 10t-94 43q-43 30 -71 76q-16 26 -20.5 55.5t-1 51t11.5 55.5q16 60 54 114.5t90 89.5q36 25 75 37t83 9t85 -23q13 -7 7 -19q-4 -7 -11 -8z" />
    <glyph glyph-name="y" unicode="y" horiz-adv-x="748" 
d="M216 609q-5 2 -17 0q-14 -2 -35 -7q-8 -2 -59 -18q21 -32 67 -78l64 -60q40 -38 50 -48q3 -3 19 -15q16 -13 22 -21q12 -18 15 -55q2 -25 2 -70q-1 -53 0 -66q0 -27 4 -38h1q4 -2 11 -2q16 -2 39 -1q21 1 39 3q6 1 10 2q2 10 1 33q0 19 -5 68q-6 59 -7 70q-3 36 0 49
q3 12 16 30l9 12q5 6 7 10q9 16 83 111l49 62l16 21l2 4v1q-2 1 -13 5q-11 5 -25 9q-15 5 -26 7l-11 1q-2 -1 -9 -9q-7 -9 -17 -26q-1 -2 -42 -75q-29 -51 -44 -70q-13 -16 -23 -23q-16 -10 -31 -2t-43 40q-21 23 -52 63l-47 59q-10 13 -15 19q-3 4 -5 5zM478 224
q18 -3 67 -3q14 0 14 -14t-14 -14q-50 0 -69 3q1 -16 1 -28q2 -37 -6 -50q-2 -6 -8 -8q-3 -1 -7 -2q-5 -2 -15 -3q-18 -2 -41 -3q-25 -1 -43 1q-10 1 -17 3q-12 4 -16 12q-7 15 -8 52q-1 10 -1 24q-9 0 -29 -1t-36.5 -1t-31.5 2q-6 1 -9.5 5.5t-2.5 10.5t5.5 9.5t10.5 2.5
q21 -2 30.5 -2t30 1t32.5 1h1v15v42h-95q-14 0 -14 14t14 14h93q-3 28 -11 39q-3 5 -15 15q-18 13 -22 17q-10 10 -50 48l-64 60q-81 82 -91 127q-1 6 2 10.5t9 6t10.5 -1.5t6.5 -9q1 -5 3 -10q2 1 26 8.5t39 11.5q23 6 38 8q22 3 34 -2q3 -2 7 -6q3 -2 6 -6q6 -7 16 -21
l47 -59q29 -38 50 -61q25 -28 36 -34q1 0 3 1q6 4 16 16q15 20 42 67q41 73 42 75q11 19 19 29q11 14 21 18q8 3 25 0q13 -2 30 -7q15 -4 28 -10q15 -6 20 -11q13 -11 11 -26l-2 -6q-1 -1 -2 -3q-2 -2 -5 -6l-16 -22l-49 -62q-73 -94 -81 -108l-8 -13l-9 -12
q-10 -13 -11 -19q-3 -9 0 -41l1 -6h1q38 0 52 2q6 1 10.5 -2.5t5.5 -9.5t-2.5 -10.5t-9.5 -5.5q-16 -2 -55 -2l4 -35l1 -15h5z" />
    <glyph glyph-name="z" unicode="z" horiz-adv-x="1102" 
d="M4 173l25 5l31 5l29 13l25 19l17 18l19 30v26l-2 21l-13 15l-20 11l-23 6h-38l-20 -1l-4 -27l-10 -59l-9 -42l-6 -32zM-23 354l-11 27l39 15l47 4h48l37 -10l36 -21l29 -37l6 -41l-2 -44l-29 -48l-23 -26l-35 -27l-43 -19l-37 -7l-35 -6l-5 31l-5 -26l-11 -48l-7 -41
l-6 -33l-58 10l6 33l9 43l11 48l4 29l7 31l6 32l7 42l10 59zM271 87l-26 2l-20 -5l-18 -11l-13 -19l-7 -17l13 -6l22 -2l27 1l16 10l3 5h-1l4 29v13zM588 197l15 5l32 11l34 17l33 23l18 20l5 29l-6 28l-15 17l-17 21l-20 11l-28 3l-25 -2l-3 -2l-3 -27l-4 -33l-8 -54
l-7 -54zM841 101l-14 11l-28 -3l-21 -13l-13 -13l-4 -9l12 -6l23 -5h21l24 6v23v9zM210 174l-12 56l39 9l44 -5l34 -39l14 -50v-35v-40l-4 -33l-17 3l18 -15l-23 -29l-38 -22l-45 -3l-42 6l-45 40l7 59l27 39l36 23l38 9l28 -2l-6 24l-8 13l-14 -1zM335 225l58 -2l-2 -39
v-37v-39l2 -28l33 47l28 41l18 30l19 25l39 -30l1 23l7 56l8 54l4 31l3 27v41h24l21 11l41 4l46 -5l40 -23l23 -28l23 -28l12 -54l-11 -55l-32 -36l-41 -31l-42 -21l-36 -13l-37 -11l-2 -17l-3 -35l-5 -39l-7 -31l-56 12l5 29l5 35l3 35l4 41l1 12l-9 -11l-18 -30l-28 -41
l-31 -45l-21 -39l-22 -42l-21 -37l-19 -29l-19 -35l-14 -27l-52 26l14 29l21 37l19 29l21 35l1 2l-8 24l-7 46l-3 37v41v39zM803 186l-16 56l43 10l51 -28l15 -47l3 -48v-37v-37l-6 -39l-35 6l2 -8l-35 -9h-37l-41 11l-40 38l6 53l27 33l41 25l57 3l-3 20l-11 6zM945 433
l58 -4l-3 -45l-6 -51l-6 -53l-5 -48l-2 -28v-43v-42v-31l2 -30l5 -27l-58 -10l-5 31l-2 34v33v42v45l2 30l5 50l6 53l6 51z" />
    <glyph glyph-name="braceleft" unicode="{" horiz-adv-x="871" 
d="M769 534q-27 -45 -71 -107l-75 -102l-25 -39q-18 -29 -33.5 -48.5t-34.5 -35.5q-1 -1 -3 -2q7 -96 -5 -173q10 -8 4 -19q-16 -29 -55 -33q-27 -3 -60 8q-3 0 -5 2q-12 1 -13 13q-1 21 -4 60l-4 51q-4 58 -3 99l-4 2q-17 9 -56 49q-32 33 -78 86q-98 112 -125 155
q-7 11 5 19q2 1 5 2q0 2 1 5q8 19 46 36q40 17 100 31q102 23 216 21q115 -1 215 -30q6 -1 8 -7l1 1q7 12 19 5q18 -10 26 -23q2 -3 3 -7q12 -7 5 -19zM410 222q-2 -46 3 -111q1 -15 3.5 -49.5t3.5 -52.5q28 -8 49 -6q17 1 27 11q-4 4 -3 10q14 84 5 190q0 6 3.5 10t9.5 5
q3 0 6 -1q16 14 29 31t29.5 43t25.5 39l74 103l31 43q-38 -16 -91 -29q-84 -20 -226 -17t-215 31q39 -50 91 -109q44 -50 77 -84q35 -36 49 -44q2 1 5 1q6 0 10 -4.5t4 -9.5zM217 509q146 49 355 41q5 0 9 -4.5t4 -10t-4.5 -9.5t-10.5 -4q-199 8 -339 -37q65 -14 159 -16
q138 -3 219 17q61 15 98 33q26 13 30 23q1 2 0 4q-4 6 -16 13q-4 2 -5 6q-6 -11 -17 -7q-96 27 -207.5 28.5t-209.5 -21.5q-57 -12 -95 -29q-27 -12 -31 -21q0 -1 1 -2q5 -6 20 -12q13 -6 31 -11v2q-5 13 9 17z" />
    <glyph glyph-name="bar" unicode="|" horiz-adv-x="882" 
d="M498 342q0 6 3 10q18 22 17 40q-1 16 -14 27q-27 22 -68 13q-27 -38 -71 -91l-76 -90q-7 -9 -20.5 -23t-22 -25t-13.5 -22q-4 -10 -3 -41q2 -37 -8 -53q-4 -6 -18 -22q-16 -17 -23 -25q-11 -15 -15 -24q-2 -4 -2 -8q6 -8 12 -6q8 3 22 18l24 33q16 21 25 27q5 3 17 5
q3 1 9.5 2t9.5 2q25 4 35 11q8 5 19 20q2 4 8.5 14t10.5 14q12 16 51 64l50 62q8 12 25 41l7 13q0 5 3 9q2 4 6 5zM603 438q15 -33 14 -61q-2 -53 -42 -71q-31 -14 -65 2l-4 -7q-18 -31 -27 -43q-11 -15 -51 -64l-50 -62q-3 -5 -9.5 -14.5t-8.5 -13.5q-14 -19 -26 -28
q-15 -10 -46 -15q-3 -1 -9.5 -2t-9.5 -1l-8 -2q-4 -2 -16 -19l-26 -35q-18 -21 -34 -26q-25 -9 -43 14q-11 15 -2 37q5 13 20 30q7 9 24 27q12 14 14 17q6 10 4 37q-2 38 5 53q6 15 16.5 28.5t25 29t18.5 20.5l76 90l39 48q-35 30 -26 66q8 32 46 52q35 19 75 17q4 12 13 30
q12 26 15 33q37 99 99.5 135t117.5 8q35 -18 50.5 -53.5t5.5 -84.5t-50 -98q-22 -27 -66 -46q-50 -23 -59 -28zM688 571q-22 -30 -63 -62q-26 -19 -45 -25q-2 -1 -5 -2q8 -10 14 -20q10 6 61 29q38 17 56 39q63 76 44 141v-3q-8 -36 -50 -84zM542 525q-10 43 18 98
q20 39 52 74q0 7 6 11q34 23 81 19q-15 4 -31 4.5t-35 -8.5t-36.5 -23.5t-35 -41.5t-30.5 -63q-3 -8 -16 -35q-7 -14 -10 -23q18 -6 34 -17q1 3 3 5zM409 453q30 12 60.5 8.5t51.5 -20.5q24 -19 25 -47q1 -22 -12 -44q0 -5 -3 -10q-3 -3 -6 -8q21 -9 38 -1q25 11 26 46
q2 50 -54 109q-23 25 -58.5 27.5t-61.5 -13.5q-27 -14 -32 -34q-5 -18 16 -37l3 4q-1 1 -1 2q-5 13 8 18zM270 161q-1 -6 -3 -12v-1l5 -10q5 -13 -7.5 -18.5t-18.5 6.5q-1 3 -4 10q-3 5 -3 9t1 10t2 10q1 2 1 4q-1 6 3 11q31 40 103 117q71 76 100 115q8 12 19.5 3.5
t2.5 -19.5q-33 -44 -101 -118q-73 -79 -100 -113v-4z" />
    <glyph glyph-name="braceright" unicode="}" horiz-adv-x="812" 
d="M158 633q0 2 -1 1zM647 641q-4 1 -9 3q-12 3 -28.5 5t-27.5 3l-32 1q-22 1 -30 1q-5 0 -9 4.5t-4 9.5q-126 6 -238 -13q-74 -13 -96 -21q-4 -2 -9 -4l10 -4q15 -5 41 -9q47 -7 121 -9q144 -6 204 2q34 4 82 20q14 5 22 9q1 1 3 2zM657 537v77q-11 -5 -26 -10
q-51 -17 -87 -22q-62 -8 -209 -2q-76 3 -124 10q-28 4 -46 9q-7 3 -13 5q-1 -13 -2 -22q0 -16 1 -26q2 -10 5 -13q18 -18 65 -30q41 -10 103 -14q114 -8 187 6q17 3 67 18q44 14 71 16q4 0 8 -2zM660 24q-2 -10 -12 -11v-1q2 -12 -10 -15q-3 -6 -9 -8q-8 -3 -52.5 -21
t-70.5 -24q-70 -15 -168 0q-102 15 -146 57v-4q0 -6 -3.5 -10t-8.5 -5q14 -12 32 -19q143 -53 282 -39q73 7 117 32q48 27 64 53l2 9q-4 4 -17 6zM631 -127q45 22 52 44q3 13 -1 39q0 4 -3 16q-23 -22 -54 -40q-49 -28 -129 -36q-143 -14 -294 41q-25 9 -44 26q2 -36 11 -52
q21 -35 78 -55t133 -24q72 -3 138 8.5t100 31.5q6 4 13 1zM190 53v-7h4q7 69 56 148q46 76 99 100q-64 30 -100.5 72.5t-56.5 112.5q7 -85 2 -242q-3 -68 -3 -88q1 -61 -1 -96zM163 8q-1 -2 1 -5zM185 491q3 -2 5 -5q0 3 1 7l-6 2v-4zM662 504v12q0 1 -1 1q-3 -6 -10 -6h-5
q3 -58 -66 -128q-44 -45 -96 -74q112 -55 153 -237q3 38 4 100q2 120 4 147q2 20 6.5 59t5.5 44v71q0 7 5 11zM384 276q-27 -3 -56 -29.5t-54 -66.5q-33 -54 -47 -107q6 2 12 -1q12 -6 5 -19q-8 -14 -9 -17q-2 -1 -6 -5l-10 -11q-1 -2 -3 -3q39 -32 126 -46q92 -14 158 1
q25 5 65 21.5t54 21.5q-34 228 -165 277q-4 1 -7 5q-5 2 -7 8q-5 13 8 18q56 22 112.5 80t57.5 103q-12 -3 -32 -9q-51 -16 -69 -20q-78 -14 -195 -6q-59 4 -103 14q20 -68 57.5 -107.5t106.5 -67.5q7 -3 9 -10q3 -3 4 -8q1 -6 -2.5 -10.5t-9.5 -5.5zM687 557q7 -52 -2 -137
q-1 -46 -3.5 -174t-2.5 -198q11 -3 17 -9q15 -14 7 -35q0 -1 7 -43q5 -33 -1 -52q-10 -35 -69 -63q-17 -8 -45.5 -18.5t-34.5 -13.5q-9 -4 -16 3q-77 -17 -165 -13q-81 4 -144.5 26.5t-89.5 66.5q-20 33 -14 100q0 5 4 9q0 16 13 27q6 4 13 7q1 7 1 14q-1 41 1 94
q-1 42 -1 59q0 20 0.5 68t0.5 74t-1.5 65.5t-4.5 72.5v1v14q0 3 1 5q-13 7 -22 16q-9 10 -12 28q-2 13 -2 32q1 11 2 31q2 17 2 22q0 14 14 14h3q1 0 2 1q8 5 18 9q24 10 102 23q143 24 315 8q11 -1 13 -12q31 -2 53 -9q19 -5 27 -13q4 -4 6 -10q6 -4 6 -11v-74q1 -2 2 -5z
M296 96q0 -14 -14 -14t-14 14t14 14t14 -14zM367 130q0 -14 -14 -14q-4 -3 -10 -3q-14 0 -14 14t14 14q4 3 10 3q14 0 14 -14zM420 136q0 -14 -14 -14t-14 14t14 14t14 -14zM467 130q0 -14 -14 -14t-14 14t14 14t14 -14zM482 69q0 -14 -14 -14t-14 14t14 14t14 -14zM331 35
q0 -14 -14 -14t-14 14t14 14t14 -14zM359 79q0 -14 -14 -14t-14 14t14 14t14 -14zM403 15q0 -14 -14 -14t-14 14q0 6 4 10t10 4t10 -4t4 -10zM529 97q0 -14 -14 -14t-14 14t14 14t14 -14zM459 2q0 -14 -14 -14t-14 14t14 14t14 -14zM535 30q0 -14 -14 -14t-14 14t14 14
t14 -14zM423 72q0 -14 -14 -14t-14 14t14 14t14 -14zM589 24q0 -14 -14 -14t-14 14t14 14t14 -14zM399 185q0 -14 -14 -14t-14 14t14 14t14 -14zM437 190q0 -14 -14 -14t-14 14t14 14t14 -14zM424 238q0 -14 -14 -14t-14 14t14 14t14 -14zM428 332q0 -14 -14 -14t-14 14
t14 14t14 -14zM389 369q0 -14 -14 -14t-14 14t14 14t14 -14zM451 377q0 -14 -14 -14t-14 14t14 14t14 -14zM518 391q0 -14 -14 -14t-14 14t14 14t14 -14zM332 394q0 -14 -14 -14t-14 14t14 14t14 -14zM276 40q0 -14 -14 -14t-14 14t14 14t14 -14zM364 -4q0 -14 -14 -14
t-14 14t14 14t14 -14zM514 146q0 -14 -14 -14t-14 14t14 14t14 -14zM581 61q0 -14 -14 -14t-14 14t14 14t14 -14z" />
    <glyph glyph-name="asciitilde" unicode="~" horiz-adv-x="883" 
d="M652 667q51 -2 76 -56q15 -32 19 -77l5 10q11 36 -9 76q-21 41 -56 48q-12 3 -35 -1zM141 139q19 5 48 14l99 31q-3 2 -5 4q-7 12 4 20q13 8 35 31q10 10 13 16l1 3q-4 2 -10 2q-11 2 -33 1q-11 -1 -14 -1h-6q-2 1 -3 1q-5 2 -8 5q-4 5 -3 12q0 2 1 5q0 2 0.5 3.5t1 4
t1.5 3.5q3 15 3 23q0 7 -4 8q-10 4 -37 -6q-2 -1 -2.5 -1.5t-3 -2t-5.5 -3.5q-7 -5 -15 0q-6 -38 -34 -94q-5 -10 -11 -21l-14 -25q-8 -13 -11 -20q2 -1 4 -3q5 -4 8 -10zM657 617q-20 21 -43 26q-1 1 -2 1q-218 -160 -365 -291q15 2 25 -2q7 -2 12 -7q44 57 165 144
q87 62 195 128q6 4 13 1zM690 559q-8 27 -26 49q4 -10 -6 -16q-108 -66 -193 -127q-126 -91 -164 -146q-3 -4 -7 -5q0 -10 -4 -25h2q21 1 34 0l172 127zM694 527l-337 -250q4 -4 6 -10q3 -10 -2 -21l140 103q127 93 193 148q-3 5 -2 10q2 10 2 20zM626 691q1 0 20 3t23 3
t24 -1q48 -10 75 -63q25 -51 10 -97q-3 -12 -30 -48q-8 -12 -19 -3q-2 1 -4 3q-1 -1 -2 -3q-73 -61 -205 -158q-160 -117 -201 -151q2 -12 -11 -16q-5 -1 -21 -6l-43 -14l-45 -14l-52 -15q-2 -9 -12 -10q-6 0 -10 3q-2 -1 -9 -8q-8 -7 -13 -10q-19 -16 -35 -14q-12 2 -18 9
q-7 8 -4 20q4 10 19 24q9 9 23 20l1 1q3 7 11 8q5 10 20 36l22 41q29 58 33 95q1 6 5.5 10t9.5 3q2 0 4 -1q1 4 5 7q161 148 413 332q2 2 4 2q2 11 12 12z" />
    <glyph glyph-name="exclamdown" unicode="&#xa1;" horiz-adv-x="729" 
d="M534 318l5 6q27 39 32 53v1v5q1 5 3 9q6 9 17 8q10 -1 13 -11q2 -4 2 -9v-6q0 -2 4.5 -20t6 -23.5t5 -23t4.5 -25.5l3 -23q2 -16 1 -25.5t-2 -24.5t-4.5 -25.5t-9 -22.5t-13.5 -23q-52 -76 -149 -90q-31 -4 -84 -4q-66 0 -85 -1q-8 0 -12 5q-71 10 -112 72t-13 132
q6 16 17 32t25.5 34.5t20.5 25.5q27 40 37 65l-1 12q0 8 1 13q3 11 14 14q10 3 17 -4q3 -4 5 -9q1 -3 2 -7v-2q0 -1 1 -2q1 -7 3 -19q2 -13 2 -16q3 -16 10 -27q16 -21 36 -22q20 0 29 23q4 11 4 31v6q0 3 -0.5 7t-0.5 6v20q6 98 57 175l33 44q25 33 35 53q5 9 7 14v8v13
q0 10 3 16t9 9t13 0q10 -3 12 -13q1 -5 0 -11q-1 -8 -6 -20q-1 -4 -3 -9q-3 -23 -10 -62q-5 -31 -6 -47q-2 -42 22 -107q7 -19 9 -25q9 -43 -4 -126q-2 -13 -5 -27zM263 380q-10 -21 -32 -52q-7 -11 -21 -28t-23 -31t-15 -27q-15 -35 -6 -68t30.5 -57.5t56 -35.5t69.5 -2
q10 2 15 -7h15h16q51 0 80 4q85 12 131 78q17 25 21 60t-0.5 61.5t-14.5 67.5l-23 -35q-15 -20 -25 -31q-7 -8 -12 -11q-10 -7 -20 -4q-8 3 -9 12v2v1v1l1 1v1l1 4l3 15q6 26 10 50q13 78 4 116q-1 4 -7 21q-26 70 -24 119q1 16 6 42q-4 -4 -19.5 -24.5t-21.5 -30.5
q-48 -71 -53 -161v-17v-8q1 -7 1 -11q1 -26 -6 -42q-17 -42 -56 -41q-34 1 -57 34q-11 14 -15 34zM321 151q-6 30 20 61q9 12 27 28q23 20 26 24q26 26 31 34v2v3q1 5 4 9q3 5 8 6q5 2 11 0q17 -6 14 -30q0 -3 -2 -12q-1 -6 -1 -8q0 -6 1 -22.5t1 -31.5t-2 -26
q-6 -26 -27 -47t-47 -30q-25 -11 -53.5 -2t-41.5 39q-5 13 7.5 18.5t18.5 -6.5q2 -5 5 -9zM431 261q-3 -4 -9 -9.5t-8 -7.5t-27 -24q-17 -15 -25 -25q-21 -26 -10 -49q2 -6 0 -12q11 -1 24 4q20 7 36 22.5t19 33.5q2 9 2 19t-1 25.5t-1 22.5z" />
    <glyph glyph-name="cent" unicode="&#xa2;" horiz-adv-x="982" 
d="M285 486l-2 1q-2 1 -19 9q-14 7 -21 12q-15 11 -12 25q2 8 10 11q2 1 5 1q3 1 9 1q8 1 24 1h15h10h16q3 0 6 2q-3 6 1 13q24 42 62 43q5 0 12 -1q8 -1 10 -1q4 0 6 1q-1 -2 -1 -3q0 1 3 4q-1 -1 -2 -1q1 5 2 15q5 36 6 44q5 29 12 42q7 12 16 15q12 4 24 -5q9 -8 14 -32
q2 -10 5 -40q3 -25 6 -37q2 -9 5 -14q4 1 7 1q5 0 23 0.5t28 0.5t25.5 -2.5t26.5 -7.5q2 -1 7 -4l9 -5q6 -4 9 -5h1q1 0 2 1q5 3 12 8l30 24q20 15 32 20q10 4 18 4q13 -1 18 -13q2 -5 1 -11q0 -2 -2 -6q-1 -5 -5 -13l-17 -31q-12 -21 -16 -32q-4 -7 -5 -11v-1l4 -4l19 -22
l20 -24q10 -13 13 -18q2 -5 5 -21q1 -5 2 -7q1 0 2 -1q5 -1 12 -1q6 0 18 -0.5t18 -0.5q24 -2 37 -6q10 -4 15 -10q8 -9 6 -21q-1 -5 -5 -9q-1 -1 -2.5 -2t-4.5 -2q-3 -2 -10 -4l-31 -12q-44 -17 -53 -25q-4 -3 -11 -24q-9 -30 -13 -37q-11 -19 -34 -45q-30 -34 -34 -39
q-1 -2 -1 -12q1 -10 4 -27q5 -25 6 -29q1 -7 0 -12q0 -9 -4 -15q-7 -9 -20 -5q-4 2 -10 6q-8 5 -21 18l-21 20q-10 9 -14 11q-9 5 -38 0q-45 -7 -54 -7q-3 0 -30 6q-9 2 -14 2l-6 1q-6 -2 -13 -12q-5 -6 -14 -25q-7 -14 -11 -21t-13.5 -17.5t-21.5 -13.5q-7 -3 -13 0t-9 10
q-2 6 -1 14q0 4 1 12q1 6 1 8t0.5 18.5t0.5 26.5q-1 29 -6 36q-7 8 -33 22q-32 16 -44 31q-8 11 -14 43q-4 18 -8 22h-2q-4 0 -10 1h-31h-30q-8 1 -12 2t-7 2q-5 3 -8 8q-4 9 2 17q3 4 8 6q1 1 4 3l2 1q6 4 25 12.5t23 10.5q25 14 27 23q2 7 3 41q0 31 9 49q2 3 7 9
q6 8 7 10q3 4 5 6zM423 383q-13 19 -34 47q-8 -24 -1 -40q4 -8 12 -10q9 -2 23 3zM607 446l-27 -27l-36 -36q37 -14 61 -3q11 5 14 15q4 15 -6 38zM362 278q-18 2 -33 5q-6 2 -9 6.5t-1.5 10.5t6 9t10.5 2q12 -3 26 -5v8q0 6 4 10.5t9.5 4.5t10 -4t4.5 -9v-13q27 -3 60 -4
q-1 12 -3 23q-1 5 2.5 10t9 6t10.5 -2.5t6 -9.5q2 -13 3 -28q37 -1 100 0q0 7 -1 16q0 6 3.5 10t9.5 4.5t10 -3t5 -9.5q1 -10 1 -17h48q6 0 10 -4t4 -10t-4 -10t-10 -4h-48q-1 -13 -4 -28q-1 -5 -6 -8.5t-10.5 -2.5t-9 6t-2.5 11q2 11 3 21q-60 -1 -97 0v-12q0 -6 -4 -10.5
t-9.5 -4.5t-10 4t-4.5 9q0 2 -1 15q-33 1 -60 3v-20q0 -14 -14 -14t-14 14v24zM377 564q-3 -4 -6 -7.5t-7 -8.5l-6 -9q-16 -18 -36 -20h-18h-10h-12l14 -7q6 -3 9 -6q6 -5 8 -11q3 -8 -2 -19l-8 -13q-2 -3 -8 -10l-3 -4q-7 -13 -7 -38q-1 -36 -3 -46q-5 -22 -42 -42l-20 -9
q24 0 32 -0.5t13 -0.5q8 -1 12 -4q15 -9 21 -41q5 -26 9 -30q8 -11 35 -24q32 -17 42.5 -31t11.5 -51q0 -10 -0.5 -27t-0.5 -19v-2q7 9 14 22q10 21 16 30q12 17 28 21q6 2 17 1q7 -1 17 -3q25 -5 26 -5q6 0 47 7q39 6 57 -4q6 -3 19 -15l21 -20l6 -5l-3 16q-4 20 -5 31
q-1 20 7 30q8 11 35 42q21 23 31 40q2 4 11 31q8 29 19 38q13 10 61 29l25 9q-8 2 -21 3q-6 0 -18.5 0.5t-17.5 0.5q-10 1 -16 2q-10 2 -15 7q-9 7 -12 23q-2 13 -3 14q-1 3 -9 13l-20 23l-18 21l-6 7l-2 2l-1 1l-1 1v1v1q-2 2 -2 5q-1 6 2 14q2 7 6 15q5 11 17 33
q12 21 15 27l-18 -13l-31 -23q-8 -7 -14 -10q-8 -5 -14 -6q-4 0 -9 1q-2 1 -6 2q-4 3 -11 6l-9 6l-3 2q-10 4 -22 6t-20.5 2t-26 -0.5t-24.5 -0.5h-1q-2 0 -4 -1q-10 -1 -17 3q-11 8 -17 32q-3 14 -7 41q-3 29 -5 38q-1 7 -2 11q-4 -10 -8 -30q-1 -8 -6 -43q-2 -12 -3 -17
q0 -4 -1 -7q-2 -6 -6 -9q-10 -8 -27 -8q-3 0 -11 1q-6 1 -10 1t-7 -1q1 -7 -5 -12zM396 466q44 -56 61 -84q7 -12 -5 -19q-4 -3 -9 -2q-28 -13 -49 -8t-31 26q-16 35 8 80q1 6 5 9q11 9 20 -2zM511 390l49 49l28 28q7 6 11 9q2 2 3.5 3t3.5 2q5 2 10 0l8 -5q0 -1 1 -2l2 -4
q1 -3 5 -11l7 -16q13 -32 7 -55q-7 -23 -30 -34q-40 -18 -93 7q-4 2 -6 6q-3 1 -6 3q-10 10 0 20z" />
    <glyph glyph-name="sterling" unicode="&#xa3;" horiz-adv-x="759" 
d="M573 600q-32 -66 -34 -145q-3 -104 46 -168q-2 86 -4 162q-1 29 -4 84t-4 67zM622 211l-4 2l-5 3q1 -85 1 -255h4h2q1 0 2.5 2.5t3.5 7.5q5 15 6 45q0 23 -3 55q0 8 -1.5 22.5t-1.5 18.5q-3 44 -4 99zM608 611h-2q-3 0 -5 1q1 -20 4 -76t4 -87q3 -93 4 -202q3 0 6 -2
l2 -1q0 14 -1 88q-2 140 -9 219q0 3 -0.5 12t-1 23t-1.5 25zM603 659h2q-1 6 -1 11q-1 6 -2 10q-1 -1 -2 -1h-1v-14q3 -3 4 -6zM291 204q5 9 5 32q1 30 -6 75q-8 51 -21 94q-2 -3 -6 -7q-19 -19 -45 -31t-59 -16.5t-53 -5.5t-53 -1h-5q-3 0 -8.5 0.5t-9.5 0.5q-19 1 -31 0
q-9 0 -15 -1l9 -7l11 -7l11 -8q138 -113 255 -117h3q2 0 5.5 -0.5t6.5 -0.5h6zM319 304q77 0 137 -10q90 -15 129 -51v5q-3 1 -6 3q-72 72 -68 205q2 84 35 153q-18 5 -69 3q-57 -3 -121 -14q-68 -12 -111 -27q-23 -8 -35 -16q-10 -7 -11 -11q-2 -10 10 -24q5 -7 35 -32
q20 -18 28 -31q8 0 12 -8q17 -35 33 -133zM576 699q1 0 3 1l2 2q6 2 10 3q17 6 28 0q5 -3 7 -9q2 -2 3 -6q1 -7 2 -17q2 -16 4 -45l3 -44q1 -27 1 -31q7 -80 9 -220q2 -159 6 -219q0 -5 1.5 -19t1.5 -22q3 -34 3 -57q-1 -35 -8 -54q-10 -31 -36 -29q-3 0 -6 2q-4 -5 -10 -5
q-14 0 -14 14q0 190 -1 274q-9 -6 -17 2q-32 32 -117 46q-56 9 -129 10q2 -23 2 -40q-1 -43 -17 -57q-3 -2 -7 -3h-3h-4h-10q-3 0 -6 0.5t-5 0.5h-2q-127 5 -273 123q-2 2 -9 6l-11 8q-17 12 -23 22q-7 11 -1 21q4 7 13 11q11 4 32 5q13 1 33 0q4 0 9 -0.5t8 -0.5h5
q43 0 70.5 2t63 12.5t56.5 31.5q11 11 7 21t-25 28q-31 27 -37 34q-22 25 -17 49q3 15 23 28q15 10 41 19q46 17 117 29q65 11 123 14q62 3 84 -6q6 10 12 18v24q-2 2 -3 5q-5 13 8 18z" />
    <glyph glyph-name="currency" unicode="&#xa4;" horiz-adv-x="729" 
d="M322 466q59 80 108 102q50 22 114 7q32 -8 55 -26.5t28 -49.5q7 -46 -4 -91q-15 -55 -104 -198q-41 -66 -76 -111q-40 -52 -64 -65q-8 -4 -19 -1q-6 2 -15 6q-13 6 -36 20l-34 22q-21 14 -25 16q-42 24 -90 67q-46 42 -81 91q-93 130 -40 224q20 37 66 55t94 14
q43 -4 77.5 -24.5t45.5 -57.5zM299 438q-2 35 -30.5 56.5t-71.5 25.5q-43 3 -80.5 -11.5t-53.5 -43.5q-43 -79 38 -193q34 -47 79 -88q45 -40 84 -63q4 -2 26 -16l34 -22q21 -13 33 -19q7 -3 11 -4q19 12 53 56t74 108q87 139 100 192q11 39 4 79q-6 39 -62 53
q-54 13 -95 -6q-10 -4 -19.5 -10t-18.5 -15l-16 -15q-7 -6 -17.5 -19.5t-14.5 -18t-16 -21t-14 -18.5q-8 -12 -19 -3q-5 4 -6 10q-2 3 -2 6z" />
    <glyph glyph-name="yen" unicode="&#xa5;" horiz-adv-x="895" 
d="M734 349q-18 4 -92 11q-81 8 -126 23q-9 3 -19 16q-7 10 -16 27q-15 29 -34 75l-30 78l-4 13l-33 -96q-19 -54 -32 -87l-13 -30q-3 -7 -6 -11q-3 -6 -7 -8q-11 -8 -35 -14q-19 -4 -46 -7q-47 -6 -81 -5q-14 0 -35 -2h-8l51 -28l65 -37q15 -8 24 -14q12 -7 15 -12
q5 -4 5 -12q0 -4 -1 -9q0 -9 -3 -24q-5 -23 -16 -67q-3 -14 -12.5 -51.5t-12.5 -50.5l78 77q36 36 53 50l21 16q14 8 23 6q15 -4 55 -28l78 -50l72 -45l10 -6v1q-14 25 -42 102q-14 37 -21 62q-5 14 -7 24q-2 12 0 19q1 5 6 10q3 3 8 6q8 5 22 13q24 13 63 30q43 20 83 35z
M305 382v1q2 2 4 7l13 29l31 86q38 107 47 137q1 5 6 8t11 1q10 -2 10 -13q3 -4 4 -8q1 -8 13 -42t29 -76q19 -47 33 -73q8 -15 14 -23q1 -3 2 -4l2 -2l1 -1q41 -13 119 -21q92 -9 126 -17q1 0 2 -1h6q17 -3 17 -18q0 -10 -8 -15q-4 -2 -9 -3h-5h-2q-30 -10 -108 -45
q-39 -18 -62 -30q-13 -7 -19 -11q-2 -1 -3 -2l1 -5q1 -8 5 -21l21 -60q28 -76 40 -100q5 -8 8 -16q3 -7 3 -12q2 -14 -7 -20q-7 -4 -16 -1q-4 1 -10 4q-10 4 -26 14q-21 12 -73 46l-77 49q-34 20 -45 24l-4 -2q-7 -5 -18 -14q-19 -16 -52 -48q-11 -12 -35 -35l-36 -37
q-14 -13 -21 -19q-1 0 -3 -3q-4 -2 -6 -4q-12 -9 -23 -2q-9 5 -9 15q0 4 2 9l3 6q1 6 29 121q12 48 15 67q3 13 4 21v1q1 -3 3 -1q-1 0 -3 1v1q-3 2 -7 4q-8 6 -23 14l-65 36l-62 35l-21 12q-4 2 -7 4q-1 1 -2 1.5t-2 1.5q-3 4 -4 7q-1 7 2.5 12.5t9.5 6.5q5 1 11 0
q1 0 3 -0.5t3 -1.5h1q7 0 36 3q23 2 38 2q33 -1 78 4q25 3 43 7q17 4 24 9z" />
    <glyph glyph-name="brokenbar" unicode="&#xa6;" horiz-adv-x="846" 
d="M26 180q18 -52 53 -95q0 9 -1 17q-2 26 -9 38q-4 6 -8 10t-11.5 9t-11.5 8q-8 6 -12 13zM15 221v4q1 19 25 34q1 1 18 10q10 5 16 10q15 11 18 25q3 20 -15 54q-6 11 -16 43q-5 20 -16 31q-35 -71 -36 -147q0 -33 6 -64zM488 680q34 -2 58 -12q84 -39 134 -116
q51 -77 63 -172q12 -92 -13 -183q-26 -91 -86 -156q-104 -116 -302 -109q-83 3 -126 21q-117 49 -176 137q-60 90 -59 195q2 104 60 198t162 151q77 42 132 58q87 24 146 -4q5 -3 7 -8zM281 273v-1v1zM215 481q3 10 7 18q6 12 13 18q14 11 29 2q2 -2 3.5 -4.5t2.5 -3.5v-2
v-4q1 -3 0 -7q-1 -9 -5 -17q-9 -21 -29 -24q-6 -9 -16 -5q-11 4 -9 16v6q1 4 4 7zM565 26q8 65 1 88q-2 6 -11 16q-13 16 -17 24q-4 9 -7 20t-6.5 26t-3.5 18q-1 0 -1 1l-3 5q-3 5 -3 8q-1 8 3 13q5 5 12 5q5 0 9 -3l2 -3q2 -1 3 -3l5 -7q8 -11 12 -15q6 -4 9 -4q6 2 15 17
q4 8 3 13q-2 4 -10 9q-4 2 -19 9t-19 14q-11 16 -2 33q7 11 22 20q12 8 25 13q16 5 25 3q17 -4 23 -8h1q7 1 16 1q6 0 10.5 -4t4.5 -9.5t-4 -10t-9 -4.5q-14 -1 -22 -1h-2h-3q-3 0 -5.5 1.5t-4.5 4.5q-5 1 -11 2h-1q-1 0 -3.5 -0.5t-5.5 -1.5q-10 -3 -19 -9t-12 -11
q-1 -2 -1 -3q1 -1 9 -4q17 -8 22 -12q16 -10 21 -22q6 -17 -5 -37q-15 -26 -33 -30q-10 -2 -19 2q3 -14 8 -24q2 -5 12 -18q13 -14 16 -26q10 -28 2 -91q16 13 30 28q55 61 78.5 146t12.5 172q-11 88 -57.5 159t-123.5 106q-16 8 -40 9q2 -3 2 -7q0 -14 -14 -14
q-20 0 -57 -24q-4 -2 -13.5 -7.5t-14.5 -9.5q-15 -9 -20 -16v-1q1 -5 5 -14q2 -7 9 -21t9 -20q13 -29 11 -44q-2 -14 -14 -21q-10 -5 -26 -3q-13 2 -26 19q-2 2 -3 4q0 -4 -2 -7q-2 -4 -16 -21q-5 -5 -7 -9q5 -8 4 -16q-2 -8 -11 -18l-6 -6q-3 -4 -4 -6q-3 -3 -3 -5l3 -3
l4 2q3 1 9 4l10 5q6 3 11 4q8 2 15 0q10 -4 12 -15q2 -7 1 -17q-4 -28 -35 -38q-2 -1 -20 -5q-8 -2 -11 -3q-1 -2 -3 -5q-3 -7 -6.5 -17.5t-4.5 -17.5q8 2 20 9q23 15 36 28q1 1 6 12q7 17 20 21q10 4 23 -5q8 -5 17 -14q18 -19 23 -31q2 -5 3 -10q2 -10 -4 -17
q-11 -15 -38 -24q-1 0 -22 -6q-13 -3 -21 -7q-22 -9 -36.5 -28t-18.5 -58q-4 -43 6 -61q12 -20 31.5 -25t43.5 1l25 5q16 3 25 4q32 3 51 -8q18 -11 34 -33q2 -4 12 -18q7 -11 11 -16q2 -2 2 -5q21 10 39 21q-6 5 -5 13zM64 453q16 -16 24 -44q9 -30 13 -37q24 -43 18 -73
q-4 -25 -28 -43l-20 -12l-16 -9q-12 -7 -12 -10q-1 -25 13 -36l9 -7q9 -6 16 -12.5t12 -15.5q11 -17 13 -50q1 -11 1 -47v-2q49 -47 119 -76q39 -16 116 -19q92 -3 163 22q-4 6 -11 15l-11 17q-13 18 -25 26q-11 7 -33 4q-9 -1 -24 -4l-25 -5q-74 -12 -104 38q-15 25 -10 77
q9 85 73 110q10 4 24 8q2 1 6.5 2t8 2t5.5 2q17 5 23 11q0 1 -1 3q-3 6 -17 21q-7 7 -12 11h-1q0 -2 -1 -4q-7 -16 -12 -21q-15 -15 -42 -32q-17 -10 -29 -13q-22 -5 -31 11q-3 5 -3 12q0 4 1 10q2 9 6 21t8 21q2 5 4 8q4 6 8 8q7 5 21 8q17 3 18 4q13 4 15 13l-9 -4
q-6 -4 -11 -6q-18 -6 -29 2q-15 10 -16 25q0 11 8 23q3 3 6 7l6 6l2 3q-5 7 -4 15q1 6 7 14q3 4 9 11q12 15 13 17q2 5 8 6q-2 5 -1 9q2 6 6.5 9t10.5 2q15 -3 27 -20q6 -8 8 -8q5 -1 8 0q1 7 -8 28q-3 7 -10 21.5t-9 20.5q-5 12 -7 19q-2 14 4 22q8 12 28 25q6 3 15 9l13 8
q26 16 42 22q-23 0 -39 3q-5 1 -8.5 6t-2.5 11q1 1 1 3q-27 -1 -59 -10q-53 -15 -126 -55q-104 -57 -159 -153q3 -1 6 -4zM681 321v14q0 14 14 14t14 -14v-14q0 -14 -14 -14t-14 14z" />
    <glyph glyph-name="section" unicode="&#xa7;" horiz-adv-x="807" 
d="M666 18q-6 40 0 107q2 13 5 39t5 46t2 36q1 26 -0.5 58t-3 55t-4.5 63.5t-4 58.5q-9 130 0 205q-85 -1 -257 -15q-197 -16 -286 -16q-4 0 -7 2q6 -50 7 -125v-57q0 -44 1 -76q10 -325 13 -388q371 0 529 7zM482 541q-16 -14 -24.5 -35.5t-5.5 -40.5q2 -20 16 -28
q16 -11 46 -3q13 4 24.5 16t16.5 27q12 34 -12 52q-18 13 -61 12zM494 569q42 0 65 -18q21 -15 26 -39t-3 -43q-7 -22 -23.5 -39t-36.5 -22q-42 -12 -69 5q-25 16 -29 49q-6 46 26 86q-2 3 -2 7q0 14 14 14h11l3 3q10 6 18 -3zM316 316q30 15 42 18l5 2l-1 1q-27 32 -50 30
q1 -6 -3 -11q6 3 10 4q10 2 16 -6q4 -7 1 -15q-4 -9 -20 -23zM350 291l16 7l17 8l3 1l-4 4zM345 235q8 5 12 7q55 32 64 36q-7 4 -14 9h-1v-1h-1v-1l-2 -2l-9 -7l-32 -27zM458 265l22 16q-9 -2 -15 -4l-3 -1v-5l-2 -4zM588 274q2 1 5 2q8 2 14 -3q7 126 6 212q-3 -3 -10 -3
q-14 0 -14 14t14 14q6 0 10 -3q-1 45 -4 78q-48 -3 -152.5 -6.5t-159.5 -7.5q-1 0 -64 -6q-36 -4 -62 -4q0 -38 -1 -121.5t-1 -127.5l23 19q17 14 27 21q43 32 78 41q45 11 86 -38l11 -15l12 -13.5t10 -10.5t11 -9.5t11 -5.5q4 -1 20 3l42 12q67 22 83 23q6 0 10.5 -3.5
t4.5 -9.5v-3q4 -4 5 -9t-1 -11q-1 -5 -4 -12q-5 -9 -10 -17zM586 106q0 -1 -1 -1l-2 -2q3 0 6 0.5t6.5 1t5.5 0.5q0 55 4 139q-1 -2 -3 -5q-6 -8 -17 -20l-3 -3q4 0 7 -2q6 -3 8 -9q3 -7 -1 -13q-1 -3 -4 -6l-9 -9l-3 -4q7 -2 11 -9q5 -9 0 -20q-3 -5 -8 -11q10 -1 13 -10
q3 -13 -10 -17zM525 105q-4 -3 -7 -6l9 1q-1 2 -2 5zM320 124q-35 -25 -54 -34q39 1 139 4l61 2q-1 2 0 3q0 3 1 6q1 1 2 3h-1q-8 -1 -14 5q-3 4 -3 9l-2 -2l-3 -3q-3 -4 -4 -5q-11 -12 -24 -7q-9 3 -9 14q0 3 1 6t4 8q4 6 11 15l18 23q12 12 35 32l31 28l-94 -74
q-3 -2 -18 -15l-26 -23q-16 -14 -25 -19t-16 -3q-9 2 -12 10q-2 5 -1 11q1 3 3 6zM294 230q-34 -19 -61 -37q-4 -2 -16 -12t-21 -15q-6 -3 -12 -4t-10 -1q-1 1 -2 1q1 -12 3 -22q2 -24 5 -37q2 -7 3 -10q7 -1 20 -2q14 -1 34 -1q-4 6 -2 12q0 3 2 5.5t5 4.5q2 2 5 4q2 1 7 4
l8 6q3 2 6 3q8 6 32 28q5 5 15 14l25 22l25 21l-35 -23l-43 -28q-30 -20 -50 -30q-12 -7 -21 -10q-11 -4 -19 -4q-8 1 -12 7q-6 9 1 17q2 3 8 7l10 7l12 12q5 7 16 14zM196 218q-15 -7 -25 -8h-1v-5v-11q3 3 7 6q7 7 19 18zM123 683q95 0 284 15q191 15 264 16v3q1 5 6 8.5
t11 2.5q12 -3 11 -15q8 -4 8 -13q0 -12 -12 -14q-10 -73 -1 -203q1 -18 4 -59.5t4.5 -64t3 -55.5t0.5 -58q0 -17 -2 -37t-5.5 -47t-4.5 -40q-7 -75 3 -115q1 -5 -2 -10t-9 -7q-6 -1 -11 3q-3 -3 -7 -3q-149 -7 -573 -7q-14 0 -14 14t14 14h7h7q-3 62 -13 388q-1 33 -1 76v57
q-1 79 -8 131q-1 6 3 10.5t9 5.5q7 1 11 -4q4 8 13 8zM634 613q7 -58 7.5 -128t-2.5 -125.5t-6.5 -129t-3.5 -123.5q11 2 16 3q6 1 10.5 -2t6 -9t-1.5 -10.5t-9 -6.5q-35 -7 -245 -16q-95 -4 -151 -4q-31 0 -53 1q-24 1 -31 4q-8 3 -13 13q-3 7 -5 16q-4 16 -6 41
q-4 35 -5 68q-2 24 -0.5 188.5t1.5 188.5q0 14 14 14q8 0 12 -7q25 0 61 4q63 6 65 6q55 4 159 7.5t152 6.5q2 11 12 12q6 1 10.5 -3t5.5 -9zM326 529q9 -2 63 -2q14 0 14 -14t-14 -14q-56 0 -69 2q-5 1 -8.5 6t-2.5 10.5t6 9t11 2.5zM482 374v-38q0 -6 -4 -10t-10 -4t-10 4
t-4 10v38q0 14 14 14t14 -14zM362 433l25 20q10 10 19.5 -0.5t-1.5 -19.5q-12 -12 -25 -22q-12 -9 -20.5 2.5t2.5 19.5z" />
    <glyph glyph-name="dieresis" unicode="&#xa8;" horiz-adv-x="1064" 
d="M745 405q42 22 63 43q17 17 7 64q-5 22 -14.5 38t-19.5 20q-20 9 -56 -3q-15 -6 -41 -19q13 -13 28 -39q31 -53 33 -104zM717 390q2 51 -29 105q-25 43 -45 46q-33 6 -90 -22q-11 -5 -30.5 -15.5t-23.5 -12.5q68 -8 106 -46q42 -41 39 -108q-2 -51 -30 -98q50 33 76 74
q19 28 25 59l-2 2q-4 9 4 16zM396 458q2 -20 0 -39q18 37 44 62q-1 3 -1 6q-32 -1 -43 -29zM369 343q2 -1 3 -1q1 4 2 9zM342 521q-3 4 -8 6q-17 9 -49 0q-23 -7 -66 -28l-6 -2q49 -16 72 -67q16 -34 12 -75.5t-29 -75.5l21 15l43 32q-3 7 2 14q33 47 35 89q-5 5 -5 11
q0 11 3 22q-1 7 -3 14q-3 17 -9 28q-9 1 -12 8q-2 5 -1 9zM669 572q-30 10 -56.5 12.5t-46 1.5t-45.5 -9.5t-41 -15.5l-48 -23q-32 -16 -51 -24q4 -9 7 -19q35 32 81 15q2 0 3 -2l32 17l36 19q66 32 107 25q5 -1 10 -3zM931 521q-9 -4 -27.5 -10.5t-31.5 -11.5t-25 -11
l-1 -1v-14q31 14 67 35q5 3 11 1q5 5 7 12zM928 590q-28 -32 -88 -57q-1 0 -2 -1q3 -7 4 -14v-1q17 8 48.5 19t36.5 13t10 0v5q-1 20 -9 36zM531 612v-4q25 6 48 7q-3 11 8 16q71 30 101 37q-3 3 -6 4h-8q-7 -1 -19 -4q-23 -6 -52 -18t-50 -23q-10 -6 -17 -11q-3 -2 -5 -4z
M228 457h1h1l-1 1q0 -1 -1 -1zM548 224v-2q0 -5 -3 -9q4 0 8 -2q11 8 22 21h-1h-2l-1 -1v-1h-1v-1l-1 -1q-1 -2 -4 -3q-5 -3 -10 -2q-3 1 -5 3zM585 321l-1 -2h1v2zM184 282q-2 1 -3 2q-9 11 2 20l6 4q-1 6 -1 12q0 13 5 33q2 10 8 31q4 17 5 22l1 8q-3 15 3 24
q-33 -33 -44 -84q-15 -69 31 -86q6 -2 8 -8q7 4 14 9q-2 1 -3 2l-2 2q-8 -10 -19 -2q-4 2 -5 6q-1 0 -3 1q-2 2 -3 4zM142 447q-21 -29 -29.5 -60.5t-5.5 -57t15 -44.5q17 -28 44 -32h1q-44 32 -28 107q7 33 25 63.5t40 46.5q-19 6 -40 3q-6 -2 -11 -4t-9 0q-3 -1 -5 -2v-1
q12 -8 3 -19zM462 464q-33 -31 -51 -82t-13 -98q6 -48 34 -71q27 -23 71 -19q-29 12 -46 42q-17 29 -20 65q-4 45 12 89t50 65q3 2 8 2v4q-20 4 -43 4q-1 -1 -2 -1zM830 559q54 23 77 50q1 1 2 1l-1 1q-22 7 -56 -7l-30 -15l-11 -6q10 -10 17 -25q1 1 2 1zM504 602v2
q-1 2 -1 5q-1 9 3 16q4 6 14 14q7 5 19 12q22 13 53 25q33 13 56 19q14 4 23 5q13 1 21 -2q24 -9 32 -41q4 -16 4 -44q0 -10 -7 -13v-1v-4q36 12 61 4q1 0 27 14q19 11 33 16q43 19 74 8q23 -7 35.5 -30.5t13.5 -50.5q1 -29 -11 -53t-38 -31q-5 -2 -9 0q-32 -18 -62 -30
q-4 -2 -8 -1q-4 -7 -9 -13q-26 -26 -85 -55q-6 -40 -29 -76q-53 -80 -174 -127q-4 -2 -9 -1q-3 0 -6 -1q-69 -12 -111 23q-37 31 -43 90q-2 17 -1 36q-12 -7 -65 -46q-42 -31 -71 -44q-13 -6 -19 7q-27 -13 -53 -9q-40 6 -64 46q-15 24 -19 55t6 67.5t35 69.5q1 3 4 4
q-4 3 -6 7q-5 13 8 18q15 6 30 8q11 5 50 24q46 23 71 30q43 12 70 -2q10 -6 19 -14q18 8 46 22l50 24q22 10 42 16v2zM639 618q40 20 59 23h1l-1 1q-1 0 -2 -1q-30 -6 -80 -28q8 -1 16 -3q2 5 7 8zM471 307q4 -1 9 1q3 3 6.5 5.5t5.5 4.5l3 3q2 3 5 9q4 7 7 15q16 43 11 74
l-2 4q-2 5 -2 8h-1q-25 -15 -38 -50.5t-11 -73.5h7zM700 612v1q-13 -3 -31 -11l25 -9q-1 3 -1 6q0 10 7 13z" />
    <glyph glyph-name="copyright" unicode="&#xa9;" horiz-adv-x="934" 
d="M436 585l-6 1q-9 1 -25 1q-27 1 -74 0q-28 0 -75.5 -1.5t-56.5 -1.5h-2l-72 -62q-4 -4 -19 -14q-17 -12 -25 -19q-14 -11 -21 -19q-5 -5 -7 -8q1 -1 2 -1q8 -4 26 -6q10 -2 21 -3h21q10 -1 12 -1l37 -4q28 -3 44 -4q50 -4 71 7q14 7 35 27l15 15q13 14 20 19q2 2 9 7
l13 11q20 15 33 27q17 16 23 26q1 2 1 3zM282 213q-3 4 -3 9q0 27 -14 100q-11 57 -9 92q-18 -1 -42 1q-16 1 -44 4l-37 4l-56 4q-21 3 -33 8q-4 2 -7 4q11 -81 14 -94q14 -74 36 -99q3 -2 12 -6q11 -4 28 -9q33 -8 79 -13q43 -5 76 -5zM305 214q20 2 25 6q22 14 83 67
q30 25 48 43q11 10 16 16l6 7q12 31 -6 112q-10 47 -26 91q-8 -9 -20 -21q-14 -12 -35 -28l-14 -11q-5 -4 -7 -5l-19 -19q-12 -13 -15 -15q-23 -23 -42 -33q-7 -3 -15 -5q-3 -34 8 -92q15 -79 15 -105q0 -4 -2 -8zM145 362q3 1 6 1q11 2 22 -11q12 -13 0 -32
q-11 -18 -28 -14q-13 3 -17 15q-3 7 0 17l7 16q4 6 10 8zM184 505q1 -8 -5 -15q-3 -4 -9 -7q-5 -3 -11 -4l-3 1q-3 1 -4 1l-3 -3q-11 -9 -20 2t2 20l18 14q2 8 13 8q5 0 9 -2q6 -1 10 -5q3 -5 3 -10zM355 308q2 -2 4 -3q6 -7 3 -16q-1 -2 -3 -5t-6 -5q-3 -3 -6 -5l-6 -2
q-8 -1 -13 4q-1 1 -2 3q-2 1 -3 3q-7 11 4 19l4 6q7 12 19 5q3 -2 5 -4zM679 473q-2 -1 -5 -1l-18 -5q-22 -6 -54 -16q-71 -23 -87 -30h-2q7 -52 -4 -78q-2 -6 -11 -15q-6 -8 -17 -18l-42 -38q35 -30 50.5 -41.5t28.5 -14.5q13 -2 31.5 4t57.5 26q19 9 51 22q41 16 51 21
q3 1 14 5t24 9.5t23 10.5q20 10 30 17l2 2q0 3 1 5q-7 11 -14 17q-3 2 -9.5 8t-11.5 10t-7.5 7.5t-18.5 22.5l-26 31q-16 19 -26 29q-6 6 -10 9q-1 0 -1 1zM830 322q-1 -68 -10 -130q-7 -47 -17 -78q-13 -40 -33 -54q-24 -16 -74 -27q-61 -14 -71 -17q-4 -2 -25 -10
q-20 -9 -33 -13q-20 -7 -34 -9q-21 -3 -34 5q-35 20 -87 96q-5 6 -19.5 28t-20.5 31l-18 22q-10 13 -18 21q-2 2 -3 4q-16 -5 -46 -6q-37 0 -84 5t-83 14q-19 5 -31 10q-16 6 -22 14q-28 30 -44 111q-4 24 -9.5 64t-7.5 51q-1 5 2.5 10t9.5 6q4 1 8 -1q3 9 13 20q9 10 24 22
q9 7 26 19l18 14l79 68q9 7 18 0q10 0 54.5 1.5t71.5 1.5q48 1 76 0q17 0 27 -1q14 -2 20 -5q6 -4 9 -11q3 -2 5 -5q22 -52 37 -122q3 -11 5 -22q26 10 85 29q32 10 54 16q13 4 20 5q10 3 15 2q6 -1 14 -7q5 -4 12 -11q11 -11 28 -30l27 -32q15 -19 18 -22l6 -5q3 -4 9 -9
l11 -9q22 -21 26 -36q2 -9 -4 -18zM545 15q6 2 13 4q12 4 31 12q21 9 26 11q13 5 75 18q45 10 64 24q12 8 22 39q10 28 16 73q7 47 9 103q-8 -5 -18.5 -10t-24.5 -11l-24 -10q-10 -4 -13 -5q-11 -4 -52 -21q-32 -12 -50 -22q-55 -27 -78 -31q0 -30 2 -87.5t2 -86.5zM605 376
q4 1 7 1q11 -1 15 -11q3 -6 2 -15q-1 -7 -8 -12q-3 -3 -8 -6q-10 -4 -20 -3h-2q-8 -7 -17 -2q-12 6 -5 19l2 3l1 1q1 11 14 24q9 9 19 1zM586 174l2 2q12 7 22 3q11 -6 9 -20q-1 -6 -5 -14q-3 -6 -8 -11q-7 -8 -16 -9q-13 -1 -19 13l-2 2q-9 9 -1 19v2q0 14 14 14q2 0 4 -1z
M740 133q-1 -5 -3 -8l-4 -4q-1 -1 -3 -2q-3 -1 -7 -3t-7 -3h-4q-2 -1 -4 -1q-7 1 -11 7q-2 2 -3 6q-4 13 9 17q6 2 10 3l7 4q12 6 19 -7q2 -4 1 -9zM515 270v6q2 6 6.5 9t10.5 2q3 -1 10 -2q2 -1 4 -1q1 0 3 -1t3 -2q5 -5 5 -11t-5 -11q-1 -1 -3 -2t-3 -1q-2 0 -4 -1
q-7 -1 -10 -2q-6 -1 -10.5 2t-6.5 9v6zM322 539q-9 -1 -12 -2h-5q-2 0 -4 1q-3 1 -6 4q-5 6 -2 14q1 2 2.5 4t2.5 3l1 1q1 0 2 0.5t2.5 0.5t4.5 1q4 3 8 4q11 1 16 2h4q1 0 2 -1q4 0 7 -2q4 -4 5 -10q1 -5 -3 -10q-2 -2 -5 -4q-1 -1 -4 -2q-2 0 -4 -1q-2 0 -7 -1
q-2 -1 -5 -2zM340 394l-3 -16q-1 -5 -6 -8.5t-10.5 -2.5t-9 6t-2.5 11l3 16q1 5 6 8.5t10.5 2.5t9 -6t2.5 -11zM437 484q-3 -13 -5 -28q-1 -6 -5.5 -9.5t-10.5 -2.5t-9.5 5.5t-2.5 10.5q2 15 5 30q2 6 6.5 9t10.5 1.5t9 -6t2 -10.5zM397 379l-5 -15q-4 -14 -17.5 -9.5
t-8.5 17.5l5 15q4 14 17.5 9.5t8.5 -17.5zM463 379q-2 -4 -16 -21l-3 -4l-1 -1l-1 -1l-2 -2q-3 -2 -8 -2q-6 0 -11 5q-3 4 -3 9q0 3 1 5q0 1 1 1v2q1 0 1 1q1 1 9 11l1 1q7 9 8 10q7 12 19 5t5 -19zM438 192l10 -14q9 -11 -2.5 -19.5t-19.5 3.5l-10 14q-9 11 2.5 19.5
t19.5 -3.5zM668 425l-13 -10q-12 -9 -20.5 2.5t2.5 19.5l13 10q12 9 20.5 -2.5t-2.5 -19.5zM376 218v-31v-3q9 -11 59 -83q50 -71 78 -88q2 -1 4 -1q0 29 -2 88t-2 89q-14 2 -30 12t-27 19l-39 33l-41 -34v-1z" />
    <glyph glyph-name="ordfeminine" unicode="&#xaa;" horiz-adv-x="884" 
d="M213 464q-18 -43 -21 -71q-4 -41 22 -63q1 10 1 17q4 72 -2 117zM208 490l-1 3q-14 64 -51 132q-29 -48 -35 -155q-1 -60 -1.5 -75.5t1.5 -70t2 -56.5q1 -46 11 -80q7 -23 16 -31q7 -6 19 1q8 5 17 28q9 22 16 57q5 28 9 62q-8 -3 -14 2q-38 32 -33 88q4 34 26 87
q5 13 18 8zM227 620l-48 21q40 -73 56 -142q13 -61 8 -154q-3 -53 -14 -107q-7 -37 -17 -62v-1l38 25q3 11 9 30q8 22 9 33q36 250 -41 357zM608 200l-6 19q-1 -1 -2 -1q-33 -6 -41 -6l3 -15q7 0 22 1q15 2 24 2zM615 172h-3q-8 0 -25 -1q-14 -2 -22 -2v-6v-5q0 -14 1 -18
q1 -2 13 -3h14q12 1 14 1q5 0 18 -3q-1 7 -5 19zM572 323q-1 6 -2 10q-14 2 -22 1q-6 -2 -15 -6l3 -11q15 3 36 6zM582 285l-3 11q-21 -4 -36 -6l3 -10q4 0 21 3q9 1 15 2zM594 246l-3 12q-8 -1 -20 -3q-14 -2 -20 -3l3 -11q8 -1 40 5zM524 354q10 5 19 7q14 3 35 -1
q4 -1 7 -3q3 -1 5 -2q3 3 8 5l34 5l5 1q4 75 -14 118h-2q-63 -3 -93 -4q-48 0 -62 4q-22 6 -54 31q-36 29 -44 34q-45 26 -99 51q57 -115 25 -341q-2 -13 -10 -37q144 92 201 133q10 8 18 -2q3 3 7 4q8 3 14 -3zM730 474h7q2 0 4 -1v12l-1 2h-4q-10 1 -28 0q-19 0 -56 -2
l4 -10q19 -2 56 -1h1q10 2 17 0zM529 108q-9 13 -6 32q2 12 14 12v6q0 19 -1 22q-10 60 -21 109q-5 3 -6 8t1 9q-3 14 -8 28q0 -1 -1 -1l-19 -14q1 -54 -5 -73q-6 -21 -22 -52q-12 -21 -21 -28q-11 -8 -21 -4t-14 17q-3 7 2 16q2 5 6 12q2 4 6 10q0 1 1.5 2.5t1.5 2.5
q16 29 25 69q-39 -27 -127 -83t-133 -88q-12 -7 -20 4q0 1 -1 2q-16 -2 -29 10q-15 13 -24 45q-11 37 -12 87l-2 56q-2 57 -1.5 71.5t1.5 76.5q7 127 48 180l-11 18q-7 12 5 19t19 -5l2 -3l67 -29q9 3 15 -4l4 -4q79 -36 140 -71q10 -6 48 -36q27 -22 44 -27q10 -2 54 -2
q17 1 92 4q66 3 87 3q20 1 31 0q6 0 10 -1h2q9 0 13 -8l1 -3q1 -1 1 -2q37 -77 5 -131q0 -2 -1 -3h-1q0 -1 -1 -1v-1q-3 -3 -7 -5q-3 -1 -7 -2q-7 -2 -18 -4q-17 -4 -49 -9l-50 -7q-25 -4 -32 -6h-6q2 -8 30 -102q14 -47 20 -69q4 -15 5 -24q1 -5 1 -9q1 -2 0 -4q0 -5 -3 -9
q-4 -4 -9 -6q-2 -6 -7 -9q-35 -15 -68 -11q-10 1 -18 4q-4 0 -8 1q-12 2 -12 14z" />
    <glyph glyph-name="guillemotleft" unicode="&#xab;" horiz-adv-x="839" 
d="M631 600q36 0 52 2q4 0 8 -1q0 37 -2 72q0 3 1 5q-29 -4 -58 -7q-1 -26 -1 -71zM629 491q6 0 20 1q20 2 30 2q3 0 5 -1q4 42 6 82q-2 -1 -3 -1q-18 -2 -56 -2q1 -50 -2 -81zM610 380h55h3q8 44 13 86h-2q-9 0 -28 -1q-16 -2 -25 -2q-5 -37 -16 -83zM579 267q4 1 63 5h3
q10 41 17 80h-60q-2 -9 -10.5 -39t-12.5 -46zM525 48q5 0 20.5 2.5t23.5 3.5t13 -5l15 49l10 34h-3q-32 0 -52 3q-2 0 -4 1q-12 -51 -23 -88zM516 20q-13 -39 -29 -74q36 1 64 5q-11 8 -4 20q16 23 27 55h-1q-9 -1 -26 -3.5t-25 -3.5q-3 0 -6 1zM283 297q38 -5 82 -5.5
t101 2t85 2.5q3 0 6 -1q3 10 11 37l11 42q4 14 9 36.5t8 42t5 38.5q3 32 2 90q0 62 1 87q-135 -12 -277 -5h-6q10 -87 0 -171q-10 -81 -36 -187zM155 34q-8 -1 -24.5 -1.5t-21.5 -0.5l-13 -30q-6 -15 -9 -24v-1q1 -1 4 -2q10 -2 30 -4q4 -1 9 -1v1q11 22 24 59zM196 137
q-20 -2 -40 -1l-2 -5l-1 -1q-6 -14 -14 -31l-12 -27l-5 -11q29 0 41 2h3l10 28q7 19 20 46zM240 236q-22 -3 -45 -3l-17 -47q-2 -4 -10 -23q15 0 33 3q5 1 9 -2q15 30 22 48q4 11 8 24zM298 578q-4 -1 -18 -3l-29 -5q-1 -40 -4 -76h43h3q5 43 5 84zM297 606q-1 28 -4 55v2
h-40q0 -35 -1 -65q2 0 23 5q13 2 22 3zM546 268q-4 -7 -12 -7q-27 0 -84.5 -2.5t-87.5 -3t-87 5.5q-8 -38 -17 -59q-8 -20 -29 -62q-19 -38 -27 -59q-3 -7 -22 -61q-12 -34 -21 -53q18 -1 22 -1q167 -20 279 -20q-2 5 0 10q13 27 23.5 55.5t19.5 61.5t14.5 55t15 63.5
t13.5 60.5l4 16h-4zM250 284v4q1 4 4 7q2 9 3 16q23 89 32 155h-45q-4 -45 -12 -87h19q14 0 14 -14t-14 -14h-24q-10 -45 -23 -90q21 1 43 4l2 8q-1 3 -1 6q1 3 2 5zM556 163q18 -3 48 -3q6 0 10 -4q13 45 24 88q-51 -3 -64 -6h-2l-17 -75h1zM739 691q-4 -34 -3 -134
q1 -89 -10 -139q-5 -19 -11.5 -54t-12.5 -64q-7 -28 -14 -54q-18 -63 -54 -162l-49 -133q3 -3 4 -7q1 -6 -2 -10.5t-9 -6.5h-2l-1 -2q-4 -13 -18 -8q-4 1 -7 6q-116 -15 -373 15q-3 1 -24.5 2t-34.5 3q-22 2 -35 5q-8 3 -14 6q-9 5 -11 13q-2 5 0 11q0 2 1 5q-3 5 -1 12
q10 28 34 74l21 40l15 33q67 165 83 326q-7 4 -7 12q0 10 10 13q6 98 -13 169q-1 6 2 11t8 7h7v3q1 5 6 8.5t11 2.5q2 -1 4 -1t4 -1q9 -2 41 -1t45 0q188 -9 364 16q6 1 10.5 -2.5t5.5 -9.5q0 -4 -1 -8q1 0 2 -1q1 4 1 9q1 5 5.5 9t10 3t9.5 -5.5t3 -10.5z" />
    <glyph glyph-name="logicalnot" unicode="&#xac;" horiz-adv-x="636" 
d="M486 597v-1v1zM486 614v11l-15 -8l-9 -7l-6 -4q5 0 14 -1.5t13 -1.5h3v11zM336 666q-24 -12 -36 -32l4 2l10 10l16 15zM169 474l5 4l11 9q-7 0 -10 -1q-4 -1 -6 -11v-1zM167 428l7 6l19 13l12 8l18 16l12 13q-10 0 -25 2l-9 -6l-17 -14l-14 -11l-3 -4v-23zM407 368
q0 -9 1 -24l1 -82q3 -127 3 -154q0 -8 -7 -12q1 -3 1 -6q0 -14 -14 -14q-4 0 -13.5 -0.5t-24.5 -1.5t-26 -2q-24 -1 -38 -1q-9 0 -15 1q-4 1 -6 1q-5 2 -8.5 5t-4.5 7q-1 2 -1 5q-1 3 -1 9q-1 11 -1 30q-1 25 -1 87q-1 66 -1 91q-1 43 -3 51q-1 6 -7 7q-9 2 -28 1
q-29 -3 -36 -3q-24 0 -35 13q-9 10 -6 29q1 3 1.5 7t1 6t0.5 4q-1 42 3 59q5 25 24 31q10 4 38 2q31 -2 43 -3q3 15 6.5 40.5t3.5 27.5q6 41 16 63q15 30 46.5 46.5t89.5 22.5q1 0 4 0.5t7.5 1t7.5 1.5q17 2 29 3q17 1 29 -1q19 -3 26 -14q4 -7 4 -18q1 -7 0 -17
q0 -5 -1 -11l4 -4l-4 -4q-1 -6 -1 -8v-10v-16v-17q0 -4 -1 -7q-2 -7 -6 -11q-5 -4 -15 -4q-4 -1 -12 0q-4 0 -14 1.5t-16 2.5q-18 1 -29 -0.5t-14 -5.5q-9 -11 -9 -43q1 -10 2 -29v-1l50 7q26 4 42 5h15h7q5 -1 9 -4q8 -6 11 -21q1 -9 1 -22v-21q-1 -12 -1 -14t1 -11
q1 -12 1 -17q1 -12 1 -19q-1 -5 -2 -8q-2 -7 -6 -11q-3 -2 -7 -3h-3q-2 -1 -6 0h-15q-2 1 -42 4q-28 2 -42 2q-4 1 -7 1zM506 422l-3 -3l-14 -10l-11 -11l-7 -6q21 -2 29 -3h9q0 4 -1 11q0 5 -1 17q0 3 -1 5zM381 187l2 -4v5zM295 280l-9 -5l-7 12q0 -14 1 -33l17 10l8 5z
M310 328l-12 -9l-7 -8l-7 -8l-5 4v-17l10 5l12 8l12 10l5 4zM492 431h1l11 10l2 -3l1 7v20q0 10 -1 17v2h-12h-2l3 -4l-9 -7l-2 -2l8 -9l8 -14l-12 -6l-7 -5l-4 -4l3 2h12v-4zM279 519l-3 -3l5 -5l3 2zM297 138l-6 7l-7 -6l-3 -2v-7q0 -19 1 -29v-1q3 -1 8 -1q13 0 37 1
q12 1 32 2t26 2q-1 2 -1 4v14h-3v4l-6 -7l-13 -9l-9 -8l-10 12l9 8l13 9l10 11l9 2q-1 11 -1 25l-7 -4l-10 -10l-2 -1l2 -15h-9l-6 -5l-15 -12l-11 -8l-6 4l-16 -11l-8 -6l-10 12l8 6l16 11l4 3v3l15 21l9 10l-8 -6l-20 -12zM353 194l9 4l20 10v12l-7 -5l-11 -10l-4 -4z
M312 191l-11 10l-1 -1l-13 -9l-7 -5v-29l7 4l17 14l17 14l19 17l4 3l-6 -3l-16 -8zM301 245l4 5l-19 -11l-6 -5v-17v-12l10 9l19 11l17 14l1 2l-4 -2l-12 -7zM347 269l11 7l16 1l6 -15l-11 -8l-18 -16l-16 -15l16 8l21 7l3 -4l3 2l4 -7l-1 32v38l-9 -8l-17 -15zM327 297
l20 12l25 7l3 1l1 -1l2 1l2 -5v30l-10 -7l-15 -12l-20 -19zM355 352l4 3l16 3l4 -9v21v3l-14 -11zM303 359l-8 10l-18 -19q1 -10 2 -29l7 10l15 10l14 12l17 14l17 14l-10 -5l-21 -9zM283 396l-2 4l-8 -7l-9 -8q7 -6 10 -15l10 11l17 15l16 14l-21 -7zM370 466l-12 -5
l-16 -13l-13 -12l7 4l29 11l5 4l10 8q-5 3 -6 8q-2 1 -4 3l-2 -1zM232 399l-5 8l-7 -6l-9 -7q24 2 36 -1l1 -1l15 13l13 12l14 12l-2 -1l-27 -14l-17 -8zM285 445l18 9l33 18l8 3l10 9l18 10v5q-1 6 -1 9l-4 -3l-8 -7l-12 -8l-13 -11l-16 -14l-14 -7l-7 -3l-3 -3zM211 427
l-5 9l-3 -3l-19 -13l-11 -7l-8 -7q-1 -5 -1 -6v-6q2 -3 14 -3h3l6 4l11 8l12 10l14 12l14 11l20 14l17 11l13 7l18 15l-10 -7l-32 -18l-23 -16l-18 -8zM292 493l27 18l27 15l19 1l2 -6l4 -4q-1 7 -1 13q0 13 1 22l-10 -7l-12 -6l-2 -1l-3 -3l-13 -10l-19 -13zM376 626l-3 -1
l-25 -12l-4 -1l-7 -5l-17 -13l-14 -10l-11 -11l-11 -7l-1 -1l-3 -26l6 4l12 9l14 11l5 4l-7 12l15 9l20 14l23 17zM335 636l-2 5l-7 -7l-12 -10l-16 -12l-4 6q-4 -12 -8 -31l10 9l14 10l-4 6l28 23zM450 681l10 -10l5 4l10 -12l-13 -12l-9 -7l-11 -9l-15 -10l-13 -8l-10 -6
l-2 -4l-2 1l-14 -12l-5 -4l-7 -7l-19 -17l-12 -11l2 1l2 -2l6 3l12 9l7 -10q3 21 13 33q10 13 32 15q12 2 29 1l-5 8l11 7l11 9l13 8l10 8q1 3 1 6q1 11 1 16q1 8 0 13v4q-2 1 -7 2q-8 1 -23 1q-11 -1 -26 -3q-20 -3 -21 -3q-18 -2 -34 -5l-18 -15l-19 -14l-5 -5l10 7l21 13
l32 14l2 -4l1 2l8 5l9 -12l20 10zM445 664l-3 -1l-19 -9l-20 -7l8 -3v-7l15 13l18 12zM427 397l-8 14l11 7l10 6l11 9l12 8l9 10l2 4l-3 -2l-13 -6l-9 -5l-9 -7l-17 -14l-20 -16l-2 -2l-4 -8h2q6 1 16 0q14 0 43 -2l10 -1l-9 10l9 8l2 3l-12 5l-8 -6l-12 -8zM382 420l-8 14
l14 8l15 9l14 8l10 6l14 9l9 -11l7 6l11 9l4 4q-8 -1 -19 -3q-14 -1 -32 -4l-9 -7l-15 -11l-17 -14l-5 -4l1 -1l-14 -12l-18 -16l-20 -19l-4 -6l11 5l24 13l25 12l11 1l2 1l5 4l-3 7z" />
    </font>
</defs>
</svg>
